<?xml version="1.0" encoding="utf-8" ?>
<svg baseProfile="full" height="6479.29094488189px" version="1.1" viewBox="0 0 18495.44094488189 6479.29094488189" width="18495.44094488189px" xmlns="http://www.w3.org/2000/svg" xmlns:ev="http://www.w3.org/2001/xml-events" xmlns:xlink="http://www.w3.org/1999/xlink"><defs /><g transform="translate(236.22047244094574,236.2204724409449) scale(1,-1) translate(0,-3961.0)"><path d="M0 1345 l0 -1345 5970 0 5970 0 0 589 0 588 -41 -20 -41 -20 -55 -13 -55 -13 -27 10 -26 10 -19 17 -18 17 -23 46 -23 45 -15 13 -15 12 -25 -7 -26 -6 -60 -58 -60 -59 -35 -7 -36 -6 0 -15 0 -15 -27 -49 -26 -49 -4 4 -3 3 25 44 25 44 0 18 0 17 -12 0 -13 -1 -20 -12 -20 -12 -77 -57 -76 -57 -63 -33 -64 -32 -53 -4 -53 -5 -24 23 -25 23 0 44 0 44 14 27 13 27 7 23 7 22 -16 0 -17 0 -26 -18 -27 -19 -21 -5 -21 -5 -17 9 -16 9 0 14 0 14 -10 6 -9 6 -79 -70 -80 -70 -68 -52 -69 -52 -79 -39 -80 -38 -34 0 -34 0 -34 34 -34 34 0 49 0 49 21 75 21 74 5 28 5 27 -19 0 -19 0 -30 -31 -29 -31 -46 -34 -47 -34 -30 -6 -30 -6 -11 20 -11 21 0 25 0 26 -15 0 -15 0 -93 -78 -93 -79 -63 -42 -63 -43 -55 -29 -55 -29 -27 0 -28 0 -16 18 -17 19 0 39 0 39 45 93 45 93 0 20 0 20 -10 20 -11 19 -13 0 -13 0 -18 -20 -18 -20 -76 -29 -77 -30 -65 -11 -64 -11 -55 15 -54 14 -41 -43 -40 -44 -30 -11 -29 -11 -13 17 -13 18 0 20 0 21 19 40 18 41 34 28 34 27 20 36 20 36 17 11 16 10 16 -13 16 -13 0 -43 0 -42 -21 -27 -21 -27 5 -13 6 -14 52 -11 52 -11 60 11 61 11 65 24 66 25 23 15 22 14 0 30 0 29 32 36 31 36 40 20 39 20 14 -5 14 -5 -10 -28 -10 -28 -51 -46 -51 -46 11 -21 11 -21 0 -20 0 -20 -46 -95 -45 -95 3 -42 3 -42 16 -10 16 -10 35 7 35 6 92 57 92 58 105 87 105 88 13 0 14 0 64 66 63 66 27 20 28 19 49 8 50 8 -5 -9 -5 -8 -31 0 -30 0 -33 -16 -33 -15 -66 -69 -66 -68 0 -34 0 -33 9 -14 9 -14 28 7 29 8 35 25 35 26 40 38 40 37 24 4 23 3 22 36 21 37 27 33 26 34 10 35 9 35 89 143 89 143 79 107 78 107 127 126 126 126 52 27 52 26 24 0 24 0 18 -20 17 -19 -6 -35 -7 -36 -30 -57 -30 -58 -56 -75 -56 -75 -131 -131 -131 -130 -143 -122 -142 -122 -28 0 -27 0 -33 -40 -32 -39 0 -6 0 -7 -19 -26 -18 -27 -6 -30 -5 -30 -21 -74 -21 -75 0 -49 0 -49 29 -29 29 -29 34 0 34 0 80 38 79 39 69 52 68 52 82 69 81 70 14 14 13 14 54 56 53 57 53 24 53 25 40 0 40 0 25 -21 25 -21 -27 16 -27 16 -38 0 -38 0 -44 -20 -43 -20 -39 -31 -39 -31 -30 -43 -29 -42 6 -22 5 -21 12 -1 11 -1 20 2 20 2 25 18 25 18 25 3 24 4 43 53 43 53 0 -8 0 -8 -42 -49 -42 -49 -23 -56 -23 -56 0 -41 0 -41 20 -18 19 -18 53 5 53 4 64 32 63 33 76 57 77 57 20 12 20 12 20 1 20 0 29 60 30 60 20 18 21 17 -16 -20 -17 -20 -27 -53 -28 -53 5 -5 5 -5 27 10 26 10 55 55 55 54 27 7 26 6 20 -20 20 -20 26 -48 26 -48 35 -17 35 -17 56 13 55 12 40 20 39 19 3 753 2 752 -5970 0 -5970 0 0 -1345m9346 1300 l6 -15 -19 -32 -18 -32 -63 -43 -63 -43 -27 0 -26 0 -53 -52 -53 -52 -1 -16 0 -15 -30 -50 -29 -50 -129 -260 -128 -260 -63 -138 -62 -138 6 -15 5 -14 33 -1 33 0 40 -9 40 -9 -70 6 -70 5 -10 8 -10 8 -18 -12 -17 -13 0 -12 0 -11 -81 -163 -81 -162 -66 -115 -65 -115 -50 -75 -51 -75 -62 -80 -61 -80 -69 -64 -68 -64 -68 -44 -68 -44 -67 -26 -68 -26 -95 -1 -95 -1 -55 19 -54 19 -54 53 -53 54 -30 63 -29 64 -6 64 -6 64 11 74 12 74 26 66 26 66 38 65 38 66 67 72 67 73 61 43 61 44 70 34 70 35 67 22 67 22 93 20 93 20 170 6 170 5 85 -10 85 -11 22 -7 23 -6 6 18 7 19 60 135 60 135 128 260 129 260 29 50 30 50 0 18 1 17 -22 0 -23 0 -55 -21 -55 -21 -50 -14 -50 -14 -238 -50 -239 -50 -112 -29 -112 -29 -79 -31 -80 -31 -80 -46 -80 -47 -60 -61 -61 -61 -32 -50 -32 -49 -20 -64 -20 -64 0 -58 0 -59 11 -28 10 -28 -13 13 -12 12 -4 70 -4 69 20 68 21 68 33 50 32 50 66 66 65 66 80 47 80 46 80 31 79 31 112 29 112 29 239 50 238 50 50 14 50 14 55 21 55 21 30 0 29 0 53 52 53 52 0 13 0 12 33 37 32 37 45 33 45 34 23 0 23 0 5 -15m-7105 -255 l19 -11 0 -20 0 -20 -26 -47 -26 -47 -31 -33 -32 -34 -78 -65 -77 -65 -48 -18 -47 -17 -27 -49 -28 -49 -10 -23 -10 -23 0 -15 0 -16 -50 -138 -49 -139 -49 -128 -49 -128 -51 -110 -50 -110 -52 -90 -52 -90 -43 -60 -43 -60 -74 -71 -75 -71 -44 -30 -44 -30 -60 -31 -61 -30 -74 -23 -75 -24 -125 0 -125 0 -67 23 -67 23 -58 38 -59 38 -47 54 -48 54 -29 60 -29 60 -13 50 -12 50 -2 3 -2 4 -48 -22 -48 -21 -21 -17 -20 -17 18 22 18 21 50 21 49 22 0 108 0 109 25 85 24 85 28 59 27 58 54 72 54 73 61 56 62 56 90 44 90 44 60 15 60 16 80 5 80 5 75 -15 75 -15 -60 7 -60 7 -90 -1 -90 -1 -65 -16 -65 -17 -90 -44 -90 -45 -57 -50 -56 -51 -54 -73 -54 -72 -27 -58 -28 -59 -24 -85 -25 -85 0 -90 0 -90 32 7 33 7 125 68 125 68 230 122 230 123 150 85 150 84 130 78 130 78 140 98 140 98 35 12 35 12 36 74 36 73 29 60 29 60 41 55 42 55 39 36 38 37 30 15 30 16 18 1 18 0 20 -10m3646 -170 l32 -19 7 -25 6 -24 -21 -40 -21 -41 -46 -31 -45 -32 -82 -38 -82 -37 -110 -36 -110 -35 -40 -7 -40 -8 -17 -15 -18 -15 0 -13 0 -12 -35 -105 -35 -105 0 -19 0 -18 77 -13 77 -12 64 -30 63 -30 54 -54 53 -55 23 -58 22 -58 1 -90 1 -90 -22 -70 -22 -71 -42 -64 -42 -65 -62 -60 -62 -60 -56 -33 -55 -33 -74 -27 -73 -26 -130 -1 -130 0 -55 19 -55 18 -44 26 -45 25 -44 41 -44 41 -30 42 -29 43 -19 56 -19 56 -12 83 -12 83 -22 -10 -23 -10 -36 -77 -35 -76 -21 -65 -21 -65 -6 -96 -6 -97 13 -53 13 -54 24 -53 25 -54 57 -58 56 -57 62 -32 62 -31 71 -12 70 -12 73 12 72 13 40 19 40 19 -23 -19 -22 -18 -70 -16 -69 -16 -40 0 -40 0 -53 11 -53 12 -60 30 -60 30 -61 62 -61 62 -25 54 -25 54 -13 54 -13 53 6 97 5 96 27 79 27 80 34 68 34 68 8 0 8 0 18 13 18 13 13 59 14 60 19 67 19 68 34 56 34 57 68 73 68 73 48 35 48 35 78 40 79 41 90 30 91 30 64 13 65 13 9 29 10 30 32 50 32 50 47 52 47 52 67 45 67 44 60 21 60 20 50 1 50 0 32 -20m-3647 -871 l25 -21 -27 16 -27 16 -38 0 -38 0 -43 -20 -42 -19 -37 -28 -36 -28 -29 -39 -28 -39 0 -29 0 -28 13 -1 12 -1 20 2 20 2 25 18 25 18 25 3 24 4 43 53 43 53 0 -8 0 -8 -42 -49 -42 -49 -23 -56 -23 -56 0 -41 0 -41 20 -18 19 -18 53 5 53 4 65 33 65 33 99 75 100 76 24 6 24 7 24 39 24 40 9 20 9 20 28 25 29 25 -24 -27 -24 -27 -13 -23 -13 -23 -7 -14 -7 -14 19 -14 18 -13 86 84 85 84 25 4 25 3 3 -27 3 -26 -25 -51 -26 -50 0 -11 0 -10 18 0 18 0 20 15 19 15 38 10 38 11 73 -41 73 -40 52 0 52 0 48 24 48 25 34 27 34 28 -23 -26 -24 -26 -58 -31 -58 -31 -52 0 -53 0 -73 40 -73 41 -38 -11 -38 -10 -19 -15 -20 -15 -23 0 -22 0 -42 -57 -42 -58 -10 -10 -10 -10 8 15 8 15 44 58 43 57 0 10 0 11 25 49 25 49 0 25 0 24 -22 -5 -23 -6 -106 -103 -106 -104 -14 0 -14 -1 -45 -90 -45 -91 -13 -10 -12 -10 45 82 46 82 6 29 6 29 -15 0 -14 0 -110 -82 -110 -83 -59 -29 -60 -29 -53 -5 -53 -5 -24 23 -25 23 0 44 0 44 14 27 13 27 7 23 7 22 -16 0 -17 0 -26 -18 -27 -19 -21 -5 -21 -5 -17 9 -16 9 0 28 0 28 29 40 28 39 41 32 40 32 43 20 44 20 40 0 40 0 25 -21" fill="none" stroke="red" stroke-width="1mm" /><path d="M9250 2616 l-46 -33 -27 -32 -27 -33 0 -14 0 -14 19 0 19 0 61 41 62 41 14 29 15 28 0 11 0 10 -22 0 -23 0 -45 -34" fill="none" stroke="red" stroke-width="1mm" /><path d="M8060 1434 l-35 -5 -84 -15 -83 -15 -82 -26 -81 -25 -70 -35 -70 -35 -61 -44 -62 -43 -62 -68 -62 -68 -38 -65 -37 -65 -26 -66 -26 -66 -12 -74 -11 -74 6 -64 6 -64 29 -63 30 -64 49 -48 48 -49 55 -19 54 -19 95 1 95 1 68 26 67 26 68 44 67 43 64 59 63 59 62 81 62 80 51 75 50 75 65 115 66 115 81 162 81 163 0 19 0 19 -22 6 -23 7 -200 4 -200 3 -35 -4" fill="none" stroke="red" stroke-width="1mm" /><path d="M2155 2373 l-30 -15 -33 -32 -34 -31 -41 -55 -42 -55 -26 -50 -26 -50 -7 -27 -6 -28 5 0 6 0 35 15 36 15 76 64 77 64 27 29 26 28 26 47 26 47 0 19 0 20 -16 6 -16 6 -16 0 -17 -1 -30 -16" fill="none" stroke="red" stroke-width="1mm" /><path d="M1744 1867 l-49 -33 -110 -76 -110 -76 -95 -57 -95 -58 -180 -102 -180 -102 -230 -123 -230 -122 -125 -68 -125 -68 -33 -7 -34 -7 7 -36 6 -37 20 -61 20 -61 28 -44 28 -45 34 -39 34 -39 58 -37 58 -38 67 -23 67 -23 125 0 125 0 75 24 74 23 61 30 60 31 44 30 43 30 70 66 70 65 43 61 43 60 52 90 52 90 50 110 51 110 49 128 49 128 48 137 49 137 6 33 6 32 -14 0 -14 0 -48 -33" fill="none" stroke="red" stroke-width="1mm" /><path d="M5695 2209 l-60 -21 -67 -44 -67 -45 -42 -47 -42 -47 -32 -50 -32 -50 -8 -24 -7 -24 38 8 39 7 109 35 110 35 75 35 76 34 48 31 48 31 20 40 21 39 -6 24 -6 24 -30 15 -29 15 -48 0 -48 -1 -60 -20" fill="none" stroke="red" stroke-width="1mm" /><path d="M5235 1819 l-40 -9 -65 -21 -65 -22 -60 -24 -60 -25 -68 -40 -68 -39 -65 -62 -66 -61 -43 -61 -42 -60 -16 -31 -16 -32 -10 -41 -9 -42 21 7 20 6 91 80 91 79 90 44 90 43 78 17 78 17 60 2 59 1 0 17 0 18 31 92 30 93 9 33 8 32 -12 -1 -11 -1 -40 -9" fill="none" stroke="red" stroke-width="1mm" /><path d="M5120 1533 l-25 -4 -75 -15 -75 -16 -90 -43 -90 -44 -91 -79 -91 -80 -21 -6 -22 -7 -9 -17 -8 -17 -13 -68 -12 -67 11 -80 12 -80 19 -55 19 -55 30 -43 29 -43 40 -36 40 -36 43 -25 44 -25 55 -18 55 -19 130 0 130 1 73 26 74 27 55 33 55 33 58 55 57 55 42 65 42 64 22 71 22 70 -1 90 -1 90 -22 58 -23 57 -47 49 -48 49 -51 26 -52 26 -62 15 -63 15 -31 0 -32 0 -5 -15 -6 -14 -12 -108 -11 -108 6 -98 7 -97 18 -73 19 -72 -3 -3 -4 -4 -16 54 -16 53 -11 104 -12 103 12 122 12 121 6 23 6 22 -33 -1 -34 -2 -25 -4" fill="none" stroke="red" stroke-width="1mm" /><path d="M2576 1185 l-16 -24 0 -6 0 -5 14 0 14 0 21 18 22 17 -20 12 -19 12 -16 -24" fill="none" stroke="red" stroke-width="1mm" /><path d="M10918 2214 l-48 -24 -101 -98 -101 -97 -65 -80 -64 -80 -68 -100 -67 -100 -61 -100 -61 -100 -6 -27 -6 -28 25 0 25 0 142 122 143 122 126 125 126 126 56 75 56 75 30 58 30 57 7 35 6 35 -12 15 -12 15 -27 0 -26 -1 -47 -25" fill="none" stroke="red" stroke-width="1mm" /><path d="M9469 1380 l-37 -19 -26 -31 -26 -32 0 -19 0 -19 16 0 16 0 48 40 48 40 11 30 10 30 -12 0 -12 -1 -36 -19" fill="none" stroke="red" stroke-width="1mm" /><path d="M8942 1328 l-11 -14 -10 -26 -10 -26 12 -26 12 -26 12 -4 13 -5 16 24 15 23 -3 44 -3 43 -16 3 -16 3 -11 -13" fill="none" stroke="red" stroke-width="1mm" /><path d="M8861 1225 l-30 -26 -16 -44 -17 -44 6 -26 7 -26 22 7 22 6 30 23 31 23 19 37 20 38 -13 4 -13 5 -9 24 -10 24 -9 0 -9 0 -31 -25" fill="none" stroke="red" stroke-width="1mm" /></g><g transform="translate(2872.2204724409457,3999.1704724409446) scale(1,-1) translate(0,-1074.0)"><path d="M0 385 l0 -385 3670 0 3670 0 0 385 0 385 -3670 0 -3670 0 0 -385m1074 353 l-6 -23 -16 -17 -15 -18 -144 0 -144 0 3 -142 3 -143 50 5 50 5 51 0 51 0 37 -29 38 -29 14 -33 14 -33 0 -64 0 -64 -23 -43 -23 -44 -45 -24 -44 -24 -70 5 -70 4 -37 23 -38 22 0 23 0 24 8 5 8 5 -3 -27 -4 -27 33 -19 33 -19 67 -5 66 -5 46 22 45 22 21 45 22 45 -4 74 -3 74 -21 27 -20 28 -38 19 -37 20 -82 -10 -82 -10 -13 10 -13 10 3 141 3 141 150 5 150 5 14 33 15 32 3 0 4 0 -7 -22m3296 -3 l30 -16 0 -146 0 -146 34 6 35 6 28 20 28 21 55 6 55 6 30 -32 30 -31 3 -185 3 -184 20 -10 19 -11 30 -2 29 -2 -8 -8 -8 -8 -45 16 -46 15 -28 -15 -29 -15 -20 1 -20 1 35 10 35 10 13 11 13 10 -3 183 -3 182 -25 27 -25 27 -55 -6 -55 -6 -28 -21 -28 -20 -35 -6 -34 -6 0 -177 0 -178 14 -11 14 -12 30 -2 30 -2 -5 -8 -5 -8 -21 6 -22 6 -22 11 -22 11 -13 -11 -13 -10 -40 -6 -40 -6 40 13 40 12 13 8 12 8 0 328 0 329 -27 10 -28 11 -30 4 -30 4 33 2 33 1 29 -15m2790 2 l25 -13 5 -333 5 -333 20 -14 20 -15 32 3 32 4 -5 -8 -5 -8 -27 0 -28 0 -22 16 -22 15 0 30 0 29 -13 0 -13 0 -48 -30 -48 -31 -49 -10 -50 -11 -30 13 -30 12 -24 31 -24 32 -12 54 -11 53 6 66 7 65 18 41 18 40 38 33 38 34 81 -5 81 -5 28 -7 27 -7 0 120 0 121 -10 6 -10 6 -42 8 -43 9 30 1 30 1 25 -13m-5503 -25 l11 -7 -44 -2 -45 -1 -44 -22 -45 -22 -44 -43 -44 -43 -27 -56 -27 -57 -5 -40 -6 -39 24 0 24 0 42 19 42 19 56 7 55 7 39 -25 39 -26 17 -45 18 -46 -5 -77 -5 -78 -13 -27 -13 -27 -40 -28 -40 -28 -72 0 -72 0 -37 29 -38 29 -15 36 -16 36 -10 70 -10 70 17 85 17 85 21 45 22 45 24 33 24 32 51 37 50 37 46 12 46 13 10 0 10 1 12 -8m4558 -8 l29 -15 22 12 22 11 99 -4 99 -4 32 -22 32 -23 12 -22 11 -22 8 -34 8 -34 -11 -54 -11 -53 -22 -23 -22 -22 -31 -27 -32 -26 6 -19 7 -18 22 -25 22 -25 56 -101 57 -101 42 -11 42 -11 10 6 11 6 -10 -11 -11 -12 -44 13 -45 13 -61 107 -61 108 -22 23 -21 22 0 11 0 11 -16 6 -16 6 -89 0 -89 0 0 -140 0 -139 20 -11 20 -11 29 -2 29 -2 -5 -8 -4 -7 -27 6 -27 6 -23 15 -24 15 -16 -15 -17 -15 -40 -6 -40 -6 41 13 41 12 17 14 16 13 0 303 0 303 -14 11 -14 12 -43 8 -44 9 30 1 30 1 30 -16m-5825 -30 l-10 -25 0 -195 0 -195 67 3 67 3 12 23 11 22 7 7 7 7 -7 -19 -7 -20 -15 -17 -15 -18 -64 0 -63 0 0 -95 0 -94 20 -11 20 -11 30 -2 29 -2 -8 -8 -8 -8 -47 16 -47 16 -12 -9 -12 -10 -40 -6 -40 -6 40 13 40 12 13 8 12 8 0 95 0 94 -132 2 -133 2 -25 -1 -25 -1 21 10 22 10 6 27 5 26 93 140 93 140 36 17 37 17 10 31 11 30 5 0 6 0 -10 -26m2025 -24 l12 -15 43 -145 42 -145 29 -96 29 -96 0 -30 0 -29 13 -18 13 -17 54 -20 55 -19 -35 6 -35 7 -32 15 -33 15 -17 -15 -18 -16 -40 -6 -40 -6 41 13 41 12 16 13 15 13 -5 42 -5 42 -20 68 -20 67 -7 0 -7 0 -11 -11 -11 -11 -130 4 -131 3 -20 -52 -20 -52 -7 -60 -7 -61 18 -6 17 -7 28 -1 28 -1 -5 -8 -5 -8 -31 7 -32 6 -12 10 -12 9 -46 -15 -46 -16 -17 1 -17 1 35 9 35 10 26 10 26 10 10 67 10 68 27 55 26 56 0 12 0 12 51 142 51 142 29 25 29 25 1 20 1 20 5 -20 5 -20 13 -15m1615 -100 l-6 -60 101 -2 100 -2 -102 -3 -103 -4 0 -127 1 -127 9 -70 9 -70 27 -23 27 -23 41 6 41 7 29 14 28 13 -12 -14 -12 -14 -55 -11 -56 -12 -26 19 -26 20 -14 28 -14 28 -5 179 -5 178 -6 0 -6 -1 -42 -8 -42 -8 5 8 5 9 24 0 24 0 25 10 26 10 0 48 0 49 7 6 6 7 2 0 1 0 -6 -60m-1183 -62 l10 -13 7 -28 7 -28 22 6 22 7 42 24 42 24 45 6 45 7 27 -17 26 -18 14 -33 14 -34 0 -166 0 -166 36 -15 36 -15 17 6 16 6 -12 -12 -12 -12 -44 17 -44 16 -29 -15 -29 -15 -20 1 -20 1 35 10 35 10 13 10 12 10 0 165 0 164 -14 34 -14 33 -23 12 -22 12 -39 -5 -39 -5 -69 -34 -69 -33 -1 -157 0 -156 -6 -15 -6 -15 21 -12 21 -11 30 -2 29 -2 -8 -8 -8 -8 -45 16 -46 15 -28 -15 -29 -15 -20 1 -20 1 35 9 35 10 18 21 17 20 -1 177 -1 176 -7 25 -7 25 -49 6 -50 6 46 1 47 2 9 -12m844 -12 l36 -25 17 -36 17 -35 9 -54 9 -54 -10 -69 -9 -68 -28 -40 -28 -40 -34 -18 -35 -18 -56 3 -55 4 -31 22 -31 22 -24 48 -23 47 1 95 1 95 21 41 21 41 36 31 36 32 62 0 62 0 36 -24m1523 3 l26 -21 14 -27 14 -26 7 -48 7 -47 26 -20 25 -20 -8 0 -8 0 -19 17 -19 17 -19 -12 -20 -12 -141 0 -142 0 5 -65 6 -64 18 -32 19 -32 28 -21 28 -21 69 1 69 0 28 14 28 14 25 21 25 20 -20 -23 -19 -23 -35 -16 -34 -17 -68 0 -68 -1 -28 21 -28 21 -22 32 -22 32 -7 47 -7 47 11 78 12 79 20 33 21 33 32 21 32 21 56 0 56 0 27 -21m304 9 l10 -13 7 -32 7 -33 3 0 4 0 28 12 28 12 31 23 31 23 45 6 46 6 12 -22 12 -22 -13 -12 -12 -11 7 12 6 11 -6 17 -7 17 -45 -6 -45 -6 -31 -23 -31 -23 -32 -13 -33 -13 0 -153 0 -153 -5 -14 -6 -14 25 -14 25 -13 29 -1 30 -1 -5 -8 -5 -8 -31 7 -31 7 -17 10 -17 10 -35 -16 -35 -17 -19 1 -18 1 35 9 35 10 18 21 17 20 -1 177 -1 176 -7 25 -7 25 -49 6 -50 6 46 1 47 2 10 -12" fill="none" stroke="red" stroke-width="1mm" /><path d="M6926 460 l-35 -31 -18 -47 -18 -47 0 -90 0 -90 21 -40 21 -40 32 -19 32 -19 52 11 52 11 57 33 57 33 1 170 0 171 -45 12 -45 12 -65 0 -64 0 -35 -30" fill="none" stroke="red" stroke-width="1mm" /><path d="M1490 410 l-35 -7 -37 -17 -37 -16 -25 0 -25 0 -7 -36 -7 -36 7 -56 6 -57 16 -48 16 -47 36 -28 35 -27 72 0 71 0 37 25 36 25 12 25 12 25 5 78 5 77 -17 45 -17 44 -33 21 -33 20 -29 -1 -29 -1 -35 -8" fill="none" stroke="red" stroke-width="1mm" /><path d="M6263 689 l-13 -13 0 -162 0 -163 102 -3 102 -3 22 20 21 20 30 27 30 27 11 54 11 54 -8 34 -8 34 -11 21 -11 21 -28 19 -28 18 -105 4 -105 4 -12 -13" fill="none" stroke="red" stroke-width="1mm" /><path d="M331 612 l-35 -17 -93 -144 -93 -144 0 -24 0 -23 130 0 130 0 0 185 0 185 -2 0 -3 -1 -34 -17" fill="none" stroke="red" stroke-width="1mm" /><path d="M2364 632 l-22 -17 -51 -142 -51 -142 0 -26 0 -25 124 0 124 0 11 14 12 14 -11 43 -10 44 -38 125 -39 125 -14 2 -14 3 -21 -18" fill="none" stroke="red" stroke-width="1mm" /><path d="M3500 464 l-31 -27 -21 -41 -21 -41 -1 -95 -1 -95 25 -49 25 -49 35 -18 35 -19 43 0 43 0 34 14 34 14 25 39 25 38 10 68 10 69 -9 54 -9 54 -17 35 -16 35 -33 20 -32 20 -61 0 -60 0 -32 -26" fill="none" stroke="red" stroke-width="1mm" /><path d="M5046 471 l-29 -19 -18 -29 -17 -28 -10 -52 -9 -53 142 0 143 0 12 15 12 14 -7 43 -7 43 -14 27 -14 27 -22 15 -22 16 -56 0 -55 0 -29 -19" fill="none" stroke="red" stroke-width="1mm" /></g><g transform="translate(1188.7204724409457,5019.470472440945) scale(1,-1) translate(0,-1288.0)"><path d="M0 455 l0 -455 4765 0 4765 0 0 455 0 455 -4765 0 -4765 0 0 -455m8804 423 l-6 -23 -16 -17 -15 -18 -144 0 -144 0 3 -142 3 -143 50 5 50 5 51 0 51 0 37 -29 38 -29 14 -33 14 -33 0 -64 0 -64 -23 -43 -23 -44 -45 -24 -44 -24 -70 5 -70 4 -37 23 -38 22 0 23 0 24 8 5 8 5 -3 -27 -4 -27 33 -19 33 -19 67 -5 66 -5 46 22 45 22 21 45 22 45 -4 74 -3 74 -21 27 -20 28 -38 19 -37 20 -82 -10 -82 -10 -13 10 -13 10 3 141 3 141 150 5 150 5 14 33 15 32 3 0 4 0 -7 -22m-6964 -3 l30 -16 0 -214 0 -215 75 0 75 0 0 10 0 10 35 39 35 38 15 38 16 37 -12 14 -11 14 -19 0 -18 0 -5 9 -6 9 22 -5 23 -6 17 -14 17 -15 9 6 10 6 62 14 62 15 -6 -7 -7 -6 -62 -16 -62 -15 -19 -40 -18 -40 -34 -38 -34 -37 0 -26 0 -25 59 -77 59 -77 7 -22 6 -23 51 -15 50 -15 12 7 11 6 -10 -11 -11 -12 -57 17 -57 16 -20 -18 -19 -17 -13 5 -13 5 16 1 16 1 17 19 17 18 -10 24 -9 24 -56 72 -56 72 0 10 0 11 -75 0 -75 0 0 -109 0 -109 14 -11 14 -12 30 -2 30 -2 -5 -8 -4 -7 -27 6 -27 7 -12 10 -13 9 -40 -16 -40 -16 -18 0 -17 1 50 17 50 17 3 331 2 331 -27 11 -28 11 -30 4 -30 4 33 2 33 1 29 -15m1410 0 l30 -16 0 -328 0 -329 14 -11 14 -12 30 -2 30 -2 -5 -8 -4 -7 -27 6 -27 7 -12 10 -13 9 -40 -16 -40 -16 -18 0 -17 1 50 17 50 17 3 331 2 331 -27 11 -28 11 -30 4 -30 4 33 2 33 1 29 -15m290 0 l30 -16 0 -328 0 -329 14 -11 14 -12 30 -2 30 -2 -5 -8 -4 -7 -27 6 -27 7 -12 10 -13 9 -40 -16 -40 -16 -18 0 -17 1 50 17 50 17 3 331 2 331 -27 11 -28 11 -30 4 -30 4 33 2 33 1 29 -15m1966 -14 l-6 -9 -34 -6 -33 -6 -14 -18 -14 -17 3 -302 3 -303 20 -10 19 -11 30 -2 29 -2 -7 -7 -8 -8 -36 11 -37 10 -6 9 -6 10 -37 -20 -37 -20 -20 1 -20 1 20 5 20 5 33 15 32 15 0 289 0 289 -7 0 -8 0 -31 -19 -31 -19 -74 -188 -73 -187 -28 -16 -28 -16 0 -32 0 -32 -8 -5 -8 -5 4 34 4 34 -19 25 -20 24 -69 196 -69 196 -27 11 -27 11 -10 -7 -11 -6 0 -294 0 -293 35 -12 35 -11 12 7 13 7 -12 -13 -11 -12 -36 12 -35 11 -38 -10 -38 -11 -15 1 -15 1 45 12 45 12 3 294 2 294 16 17 16 17 -27 18 -27 17 -36 8 -37 7 31 1 31 1 34 -25 34 -25 29 -19 30 -20 72 -202 72 -201 11 -11 11 -11 27 10 28 9 72 185 73 185 27 22 28 22 35 35 35 35 35 10 35 9 3 1 3 1 -5 -9m-5361 -17 l29 -15 22 12 22 11 99 -4 99 -4 32 -22 32 -23 12 -22 11 -22 8 -34 8 -34 -11 -54 -11 -53 -22 -23 -22 -22 -31 -27 -32 -26 6 -19 7 -18 22 -25 22 -25 56 -101 57 -101 42 -11 42 -11 10 6 11 6 -10 -11 -11 -12 -44 13 -45 13 -61 107 -61 108 -22 23 -21 22 0 11 0 11 -16 6 -16 6 -89 0 -89 0 0 -140 0 -139 20 -11 20 -11 29 -2 29 -2 -5 -8 -4 -7 -27 6 -27 6 -23 15 -24 15 -16 -15 -17 -15 -40 -6 -40 -6 41 13 41 12 17 14 16 13 0 303 0 303 -14 11 -14 12 -43 8 -44 9 30 1 30 1 30 -16m5580 0 l29 -15 23 12 22 12 93 -5 93 -5 40 -21 40 -20 32 -34 32 -33 23 -50 22 -50 0 -120 -1 -120 -30 -66 -30 -65 -39 -32 -39 -33 -49 -14 -50 -15 -75 0 -74 0 -19 17 -18 16 -17 -16 -18 -15 -40 -6 -40 -6 41 13 41 12 17 14 16 13 0 303 0 303 -14 11 -14 12 -43 8 -44 9 30 1 30 1 30 -16m1206 -20 l30 -31 9 -39 9 -40 -13 -55 -13 -56 -29 -40 -29 -41 -93 -107 -93 -107 -8 -21 -8 -22 -8 -33 -7 -33 158 3 158 3 11 42 10 42 7 6 6 7 -10 -44 -11 -43 -9 -12 -10 -12 -166 -3 -167 -3 -20 -8 -20 -8 26 15 27 16 12 50 12 50 96 111 97 111 29 41 29 40 13 56 13 55 -9 40 -9 39 -25 26 -26 26 -73 3 -72 4 -45 -25 -45 -24 -11 -21 -11 -22 -6 -6 -6 -6 6 21 6 22 31 24 32 24 24 10 25 11 73 -3 72 -2 31 -31m576 15 l33 -21 15 -28 15 -28 17 -49 16 -48 1 -140 0 -140 -13 -55 -14 -55 -22 -35 -22 -35 -21 -18 -20 -18 -53 -6 -54 -5 -35 24 -35 24 -22 40 -23 41 -16 84 -16 84 6 80 5 80 10 55 10 54 24 46 23 45 34 23 33 22 45 0 45 0 34 -21m645 -11 l36 -28 12 -36 12 -36 -4 -49 -5 -49 -37 -46 -36 -47 0 -12 0 -11 35 -34 35 -34 0 -17 0 -18 10 -6 10 -6 0 -45 0 -44 -21 -44 -20 -43 -22 -20 -22 -20 -34 -12 -34 -11 -46 0 -47 0 -44 22 -45 23 -24 44 -24 43 0 52 0 51 16 30 15 30 22 20 22 20 10 18 9 18 -35 39 -35 39 -11 40 -11 41 12 42 11 42 20 26 20 25 31 18 32 17 76 -2 76 -3 35 -27m1155 11 l33 -21 15 -28 15 -28 17 -49 16 -48 1 -140 0 -140 -13 -55 -14 -55 -22 -35 -22 -35 -21 -18 -20 -18 -53 -6 -54 -5 -35 24 -35 24 -22 40 -23 41 -16 84 -16 84 6 80 5 80 10 55 10 54 24 46 23 45 34 23 33 22 45 0 45 0 34 -21m-6310 -26 l-7 -6 -7 6 -6 7 13 0 13 0 -6 -7m-492 -173 l-6 -10 -20 0 -20 0 -20 -10 -19 -11 0 -31 0 -32 51 -145 51 -146 13 -14 14 -14 24 16 24 15 57 134 58 133 5 47 6 47 -24 5 -24 5 -20 4 -20 5 28 1 28 1 20 -10 19 -11 52 16 52 15 -9 -8 -10 -9 -41 -11 -41 -12 -6 -43 -6 -44 -57 -132 -57 -133 -29 -21 -28 -21 0 -17 0 -18 -9 -5 -8 -5 5 25 4 25 -15 17 -15 17 -51 146 -51 145 0 27 0 26 -22 12 -23 13 -35 7 -35 7 28 1 28 1 30 -16 30 -15 15 12 14 12 33 7 32 8 3 1 3 1 -6 -10m-1454 -24 l36 -25 17 -36 17 -35 9 -54 9 -54 -10 -69 -9 -68 -28 -40 -28 -40 -34 -18 -35 -18 -56 3 -55 4 -31 22 -31 22 -24 48 -23 47 1 95 1 95 21 41 21 41 36 31 36 32 62 0 62 0 36 -24m573 3 l26 -20 0 -14 0 -14 -9 -5 -9 -6 5 19 5 19 -23 16 -23 16 -59 0 -58 0 -27 -14 -27 -14 -21 -24 -22 -23 -13 -40 -13 -40 0 -90 0 -91 19 -33 20 -34 28 -21 29 -21 62 2 63 1 41 20 42 20 -6 -9 -5 -9 -37 -16 -37 -16 -62 -1 -61 -2 -29 21 -28 21 -22 31 -21 32 -7 60 -7 59 7 43 6 43 11 35 10 35 22 24 21 24 30 18 30 19 61 0 61 0 27 -21m1347 4 l14 -16 2 -206 2 -206 33 -12 33 -12 15 5 15 5 -11 -11 -11 -11 -45 16 -46 15 -28 -15 -29 -15 -20 1 -20 1 35 9 35 10 18 21 17 20 -1 177 -1 176 -7 25 -7 25 -49 6 -50 6 46 1 47 2 13 -17m1103 -4 l26 -21 14 -27 14 -26 7 -48 7 -47 26 -20 25 -20 -8 0 -8 0 -19 17 -19 17 -19 -12 -20 -12 -141 0 -142 0 5 -65 6 -64 18 -32 19 -32 28 -21 28 -21 69 1 69 0 28 14 28 14 25 21 25 20 -20 -23 -19 -23 -35 -16 -34 -17 -68 0 -68 -1 -28 21 -28 21 -22 32 -22 32 -7 47 -7 47 11 78 12 79 20 33 21 33 32 21 32 21 56 0 56 0 27 -21m282 -451 l-12 -63 -11 -20 -11 -20 -24 -20 -23 -20 21 25 22 25 10 20 10 20 7 50 8 50 4 8 4 7 3 0 4 0 -12 -62" fill="none" stroke="red" stroke-width="1mm" /><path d="M193 829 l-13 -13 0 -162 0 -163 102 -3 102 -3 22 20 21 20 30 27 30 27 11 54 11 54 -8 34 -8 34 -11 21 -11 21 -28 19 -28 18 -105 4 -105 4 -12 -13" fill="none" stroke="red" stroke-width="1mm" /><path d="M5773 829 l-13 -13 0 -306 0 -306 12 -12 12 -12 76 0 77 0 47 14 47 14 36 28 36 27 30 66 30 66 1 120 0 120 -22 50 -23 50 -27 28 -27 29 -40 21 -40 20 -100 5 -100 4 -12 -13" fill="none" stroke="red" stroke-width="1mm" /><path d="M7354 831 l-31 -19 -22 -45 -22 -45 -10 -54 -10 -53 -5 -80 -6 -80 16 -82 16 -83 20 -40 21 -41 32 -20 32 -20 53 5 53 5 16 13 16 13 22 35 22 35 14 55 13 55 0 140 -1 140 -15 45 -16 45 -13 28 -12 27 -32 20 -32 20 -44 0 -44 0 -31 -19" fill="none" stroke="red" stroke-width="1mm" /><path d="M7935 833 l-29 -16 -17 -21 -18 -21 -11 -43 -11 -43 11 -40 11 -40 34 -38 34 -37 88 -3 88 -2 39 52 40 51 3 57 4 56 -18 34 -18 34 -35 19 -35 18 -65 0 -65 -1 -30 -16" fill="none" stroke="red" stroke-width="1mm" /><path d="M7911 487 l-36 -39 -14 -26 -14 -26 0 -51 0 -50 22 -43 22 -44 42 -19 42 -19 46 0 46 0 34 11 34 12 17 14 17 15 20 44 21 44 0 44 0 45 -10 6 -10 6 0 18 0 17 -37 36 -38 36 -84 4 -85 3 -35 -38" fill="none" stroke="red" stroke-width="1mm" /><path d="M9154 831 l-31 -19 -22 -45 -22 -45 -10 -54 -10 -53 -5 -80 -6 -80 16 -82 16 -83 20 -40 21 -41 32 -20 32 -20 53 5 53 5 16 13 16 13 22 35 22 35 14 55 13 55 0 140 -1 140 -15 45 -16 45 -13 28 -12 27 -32 20 -32 20 -44 0 -44 0 -31 -19" fill="none" stroke="red" stroke-width="1mm" /><path d="M860 604 l-31 -27 -21 -41 -21 -41 -1 -95 -1 -95 25 -49 25 -49 35 -18 35 -19 43 0 43 0 34 14 34 14 25 39 25 38 10 68 10 69 -9 54 -9 54 -17 35 -16 35 -33 20 -32 20 -61 0 -60 0 -32 -26" fill="none" stroke="red" stroke-width="1mm" /><path d="M3906 611 l-29 -19 -18 -29 -17 -28 -10 -52 -9 -53 142 0 143 0 12 15 12 14 -7 43 -7 43 -14 27 -14 27 -22 15 -22 16 -56 0 -55 0 -29 -19" fill="none" stroke="red" stroke-width="1mm" /></g></svg>