<?xml version="1.0" encoding="utf-8" ?>
<svg baseProfile="full" height="6279.6409448818895px" version="1.1" viewBox="0 0 12015.44094488189 6279.6409448818895" width="12015.44094488189px" xmlns="http://www.w3.org/2000/svg" xmlns:ev="http://www.w3.org/2001/xml-events" xmlns:xlink="http://www.w3.org/1999/xlink"><defs /><g transform="translate(2023.7204724409448,236.2204724409449) scale(1,-1) translate(0,-2876.0)"><path d="M2335 2041 c-6 -5 -21 -11 -35 -14 l-25 -4 26 -2 c15 0 32 6 39 14 14 16 10 21 -5 6z" fill="none" stroke="red" stroke-width="1mm" /><path d="M5135 2015 c-66 -7 -250 -32 -408 -54 -331 -47 -382 -50 -396 -22 -10 18 -78 51 -104 51 -6 -1 10 -10 37 -20 46 -18 65 -34 66 -52 0 -12 -199 -9 -221 2 -27 15 -24 37 9 54 15 8 22 15 17 16 -18 0 -55 -30 -55 -45 0 -37 45 -48 180 -43 108 5 130 3 130 -9 0 -7 10 -33 22 -56 12 -23 27 -64 35 -92 l13 -50 -5 43 c-3 24 -17 66 -30 92 -14 27 -25 55 -25 62 0 14 448 81 757 115 173 18 401 14 456 -10 20 -9 37 -14 37 -11 0 38 -295 54 -515 29z" fill="none" stroke="red" stroke-width="1mm" /><path d="M2215 1995 c-16 -8 -23 -14 -14 -15 8 0 24 7 35 15 23 18 18 18 -21 0z" fill="none" stroke="red" stroke-width="1mm" /><path d="M4168 1993 c6 -2 18 -2 25 0 6 3 1 5 -13 5 -14 0 -19 -2 -12 -5z" fill="none" stroke="red" stroke-width="1mm" /><path d="M2096 1920 c-189 -124 -646 -518 -646 -558 0 -18 -29 -14 -185 23 -304 73 -611 29 -799 -115 -180 -138 -278 -340 -231 -480 17 -52 82 -130 107 -130 7 0 -4 11 -24 25 -122 83 -111 283 27 453 204 254 512 328 948 231 53 -12 97 -27 97 -33 0 -17 -734 -742 -845 -835 -210 -175 -367 -274 -473 -298 l-57 -13 50 5 c165 17 414 214 965 762 372 370 414 406 434 374 5 -8 95 -24 208 -36 67 -7 67 1 -6 -162 -116 -260 -125 -436 -26 -536 36 -36 54 -47 76 -46 28 1 28 1 -6 9 -58 14 -105 74 -120 153 -21 114 5 241 90 431 28 61 50 116 50 123 0 20 38 35 94 37 62 3 124 20 151 41 19 15 19 16 -5 4 -37 -18 -121 -39 -158 -39 -30 0 -33 2 -26 23 15 49 268 391 397 535 28 31 36 44 18 27 -76 -69 -421 -523 -421 -554 0 -34 -35 -48 -101 -38 -204 29 -214 31 -217 53 -6 42 422 416 635 555 81 53 90 59 81 59 -3 0 -40 -22 -82 -50z" fill="none" stroke="red" stroke-width="1mm" /><path d="M4767 1798 c-91 -120 -126 -170 -202 -293 -82 -132 -78 -127 -97 -120 -12 5 -15 18 -12 53 l3 47 -8 -45 c-7 -35 -6 -48 6 -57 13 -10 11 -20 -15 -75 -16 -35 -34 -79 -41 -99 -6 -20 -20 -44 -31 -54 -37 -34 -269 -559 -295 -670 -14 -57 -19 -114 -8 -87 2 6 11 12 18 12 8 0 16 4 19 9 4 5 -3 7 -14 4 -18 -5 -19 -2 -14 28 16 87 95 282 236 580 53 111 72 139 86 125 14 -15 -71 -269 -157 -465 -22 -52 -39 -96 -37 -98 4 -4 84 181 130 303 52 138 78 234 72 260 -7 28 43 162 78 209 12 16 56 84 97 150 41 66 115 175 166 242 51 68 90 123 88 123 -2 0 -33 -37 -68 -82z" fill="none" stroke="red" stroke-width="1mm" /><path d="M5262 1835 c-99 -46 -263 -236 -423 -490 -84 -133 -199 -346 -199 -368 0 -8 -14 -43 -31 -77 -17 -34 -29 -64 -26 -66 2 -2 16 23 31 56 15 33 33 60 39 60 5 0 36 25 68 55 70 67 67 67 141 5 58 -49 61 -50 121 -48 l62 1 -66 6 c-59 5 -70 10 -121 54 -69 59 -67 59 -137 -8 -32 -30 -61 -55 -64 -55 -29 0 34 127 68 140 14 5 25 12 25 14 0 3 -7 3 -16 -1 -25 -9 -10 28 59 142 196 326 373 535 493 581 57 22 74 14 76 -33 l1 -38 4 33 c8 65 -22 76 -105 37z" fill="none" stroke="red" stroke-width="1mm" /><path d="M6438 1831 c-132 -84 -416 -444 -506 -641 -14 -30 -37 -73 -52 -95 -83 -125 -96 -346 -21 -345 10 0 7 5 -8 13 -29 14 -44 58 -36 107 22 136 85 269 128 271 17 1 18 2 5 6 -33 8 -11 55 123 255 190 283 354 448 446 448 31 0 33 -2 33 -35 0 -20 -7 -50 -16 -66 -8 -17 -14 -33 -11 -35 10 -10 38 76 35 107 -4 48 -53 52 -120 10z" fill="none" stroke="red" stroke-width="1mm" /><path d="M2603 1815 c-65 -36 -116 -82 -192 -170 -127 -149 -315 -425 -343 -506 -6 -18 -21 -47 -33 -65 -32 -47 -76 -190 -78 -251 -1 -64 28 -103 77 -103 29 0 136 43 136 54 0 3 -24 -6 -52 -19 -103 -48 -153 -25 -151 68 2 61 46 204 78 251 12 18 27 47 33 66 15 43 105 187 194 312 217 307 410 456 429 333 l6 -40 2 36 c2 63 -35 75 -106 34z" fill="none" stroke="red" stroke-width="1mm" /><path d="M5323 1713 c4 -3 10 -3 14 0 3 4 0 7 -7 7 -7 0 -10 -3 -7 -7z" fill="none" stroke="red" stroke-width="1mm" /><path d="M2660 1680 c0 -7 3 -10 7 -7 3 4 3 10 0 14 -4 3 -7 0 -7 -7z" fill="none" stroke="red" stroke-width="1mm" /><path d="M6493 1683 c4 -3 10 -3 14 0 3 4 0 7 -7 7 -7 0 -10 -3 -7 -7z" fill="none" stroke="red" stroke-width="1mm" /><path d="M4463 1590 c0 -41 2 -58 4 -37 2 20 2 54 0 75 -2 20 -4 3 -4 -38z" fill="none" stroke="red" stroke-width="1mm" /><path d="M6474 1648 c-4 -7 -3 -8 4 -4 12 7 16 16 8 16 -3 0 -8 -5 -12 -12z" fill="none" stroke="red" stroke-width="1mm" /><path d="M2634 1638 c-4 -7 -3 -8 4 -4 7 4 12 9 12 12 0 8 -9 4 -16 -8z" fill="none" stroke="red" stroke-width="1mm" /><path d="M5264 1618 c-4 -7 -3 -8 4 -4 12 7 16 16 8 16 -3 0 -8 -5 -12 -12z" fill="none" stroke="red" stroke-width="1mm" /><path d="M2604 1598 c-4 -7 -3 -8 4 -4 7 4 12 9 12 12 0 8 -9 4 -16 -8z" fill="none" stroke="red" stroke-width="1mm" /><path d="M6434 1598 c-4 -7 -3 -8 4 -4 12 7 16 16 8 16 -3 0 -8 -5 -12 -12z" fill="none" stroke="red" stroke-width="1mm" /><path d="M5214 1558 c-4 -7 -3 -8 4 -4 12 7 16 16 8 16 -3 0 -8 -5 -12 -12z" fill="none" stroke="red" stroke-width="1mm" /><path d="M2549 1533 c-13 -16 -12 -17 4 -4 9 7 17 15 17 17 0 8 -8 3 -21 -13z" fill="none" stroke="red" stroke-width="1mm" /><path d="M6315 1468 l-70 -73 73 70 c67 64 77 75 69 75 -1 0 -34 -33 -72 -72z" fill="none" stroke="red" stroke-width="1mm" /><path d="M5070 1403 l-65 -68 68 65 c62 60 72 70 64 70 -1 0 -32 -30 -67 -67z" fill="none" stroke="red" stroke-width="1mm" /><path d="M2003 1373 c4 -3 10 -3 14 0 3 4 0 7 -7 7 -7 0 -10 -3 -7 -7z" fill="none" stroke="red" stroke-width="1mm" /><path d="M2359 1343 c-13 -16 -12 -17 4 -4 9 7 17 15 17 17 0 8 -8 3 -21 -13z" fill="none" stroke="red" stroke-width="1mm" /><path d="M6149 1313 c-13 -16 -12 -17 4 -4 16 13 21 21 13 21 -2 0 -10 -8 -17 -17z" fill="none" stroke="red" stroke-width="1mm" /><path d="M2264 1258 c-4 -7 -3 -8 4 -4 12 7 16 16 8 16 -3 0 -8 -5 -12 -12z" fill="none" stroke="red" stroke-width="1mm" /><path d="M6074 1248 c-4 -7 -3 -8 4 -4 12 7 16 16 8 16 -3 0 -8 -5 -12 -12z" fill="none" stroke="red" stroke-width="1mm" /><path d="M4889 1233 c-13 -16 -12 -17 4 -4 16 13 21 21 13 21 -2 0 -10 -8 -17 -17z" fill="none" stroke="red" stroke-width="1mm" /><path d="M2194 1198 c-4 -7 -3 -8 4 -4 12 7 16 16 8 16 -3 0 -8 -5 -12 -12z" fill="none" stroke="red" stroke-width="1mm" /><path d="M6014 1198 c-4 -7 -3 -8 4 -4 12 7 16 16 8 16 -3 0 -8 -5 -12 -12z" fill="none" stroke="red" stroke-width="1mm" /><path d="M4804 1158 c-4 -7 -3 -8 4 -4 7 4 12 9 12 12 0 8 -9 4 -16 -8z" fill="none" stroke="red" stroke-width="1mm" /><path d="M2134 1148 c-4 -7 -3 -8 4 -4 12 7 16 16 8 16 -3 0 -8 -5 -12 -12z" fill="none" stroke="red" stroke-width="1mm" /><path d="M5784 1146 c-16 -7 -58 -39 -93 -71 -59 -55 -62 -60 -59 -99 3 -35 7 -41 26 -42 18 -1 19 -1 2 3 -39 9 -27 72 23 119 71 67 85 77 134 90 30 8 39 13 23 13 -14 0 -39 -6 -56 -13z" fill="none" stroke="red" stroke-width="1mm" /><path d="M2585 1138 c-84 -48 -155 -143 -155 -207 0 -49 13 -71 40 -70 9 0 6 4 -7 9 -34 14 -32 92 2 143 28 40 35 43 52 26 27 -27 137 44 131 85 -3 24 -33 31 -63 14z m55 -18 c0 -23 -73 -80 -102 -80 -31 0 -33 28 -2 53 63 51 104 61 104 27z" fill="none" stroke="red" stroke-width="1mm" /><path d="M6425 1138 c-34 -19 -73 -54 -115 -103 -57 -66 -57 -177 0 -174 9 0 6 4 -7 9 -37 15 -33 108 6 152 25 28 31 30 45 19 21 -18 53 -8 99 30 58 48 35 103 -28 67z m55 -18 c0 -23 -73 -80 -102 -80 -31 0 -33 28 -2 53 63 51 104 61 104 27z" fill="none" stroke="red" stroke-width="1mm" /><path d="M3040 1109 l-35 -30 38 26 c33 24 43 35 34 35 -1 0 -18 -14 -37 -31z" fill="none" stroke="red" stroke-width="1mm" /><path d="M5344 1088 c-2 -77 -48 -91 -48 -13 0 28 -2 32 -10 18 -5 -9 -22 -27 -37 -40 -31 -26 -65 -104 -56 -128 7 -16 52 -21 61 -7 3 5 -8 6 -25 4 -34 -5 -37 9 -14 65 25 59 75 99 75 61 1 -31 77 -79 123 -77 12 0 1 6 -26 13 -56 15 -64 21 -48 39 14 18 26 103 15 110 -5 3 -9 -17 -10 -45z" fill="none" stroke="red" stroke-width="1mm" /><path d="M2875 1064 c-51 -66 -60 -180 -19 -213 28 -22 106 -29 132 -12 7 4 -12 6 -42 3 -78 -6 -106 13 -106 73 0 33 4 45 14 45 8 0 18 4 21 10 3 6 -1 7 -9 4 -28 -11 -19 39 15 84 38 51 32 56 -6 6z" fill="none" stroke="red" stroke-width="1mm" /><path d="M6712 1078 c-5 -7 -17 -28 -26 -45 -12 -24 -24 -33 -44 -34 -17 -1 -20 -3 -9 -6 32 -8 14 -87 -27 -115 -8 -5 -7 -8 0 -8 7 0 20 12 30 28 9 15 25 33 33 40 9 8 10 10 3 7 -10 -5 -13 0 -10 21 3 25 7 29 31 26 22 -3 39 6 77 42 63 59 92 61 119 9 24 -47 65 -87 83 -80 9 4 8 6 -4 6 -18 1 -53 41 -80 90 -25 45 -58 41 -117 -14 -27 -26 -58 -45 -70 -45 l-23 0 25 45 c25 45 29 57 9 33z" fill="none" stroke="red" stroke-width="1mm" /><path d="M2969 1053 c-13 -16 -12 -17 4 -4 16 13 21 21 13 21 -2 0 -10 -8 -17 -17z" fill="none" stroke="red" stroke-width="1mm" /><path d="M3274 1028 l-19 -23 23 19 c21 18 27 26 19 26 -2 0 -12 -10 -23 -22z" fill="none" stroke="red" stroke-width="1mm" /><path d="M5155 1015 c-16 -8 -23 -14 -14 -15 8 0 24 7 35 15 23 18 18 18 -21 0z" fill="none" stroke="red" stroke-width="1mm" /><path d="M5573 1013 c4 -3 10 -3 14 0 3 4 0 7 -7 7 -7 0 -10 -3 -7 -7z" fill="none" stroke="red" stroke-width="1mm" /><path d="M7123 1003 c4 -3 10 -3 14 0 3 4 0 7 -7 7 -7 0 -10 -3 -7 -7z" fill="none" stroke="red" stroke-width="1mm" /><path d="M2783 993 c4 -3 10 -3 14 0 3 4 0 7 -7 7 -7 0 -10 -3 -7 -7z" fill="none" stroke="red" stroke-width="1mm" /><path d="M5753 993 c4 -3 10 -3 14 0 3 4 0 7 -7 7 -7 0 -10 -3 -7 -7z" fill="none" stroke="red" stroke-width="1mm" /><path d="M5478 983 c7 -3 16 -2 19 1 4 3 -2 6 -13 5 -11 0 -14 -3 -6 -6z" fill="none" stroke="red" stroke-width="1mm" /><path d="M3203 973 c4 -3 10 -3 14 0 3 4 0 7 -7 7 -7 0 -10 -3 -7 -7z" fill="none" stroke="red" stroke-width="1mm" /><path d="M7053 973 c4 -3 10 -3 14 0 3 4 0 7 -7 7 -7 0 -10 -3 -7 -7z" fill="none" stroke="red" stroke-width="1mm" /><path d="M7013 963 c4 -3 10 -3 14 0 3 4 0 7 -7 7 -7 0 -10 -3 -7 -7z" fill="none" stroke="red" stroke-width="1mm" /><path d="M5703 953 c4 -3 10 -3 14 0 3 4 0 7 -7 7 -7 0 -10 -3 -7 -7z" fill="none" stroke="red" stroke-width="1mm" /><path d="M3163 943 c4 -3 10 -3 14 0 3 4 0 7 -7 7 -7 0 -10 -3 -7 -7z" fill="none" stroke="red" stroke-width="1mm" /><path d="M3133 923 c4 -3 10 -3 14 0 3 4 0 7 -7 7 -7 0 -10 -3 -7 -7z" fill="none" stroke="red" stroke-width="1mm" /><path d="M2323 903 c4 -3 10 -3 14 0 3 4 0 7 -7 7 -7 0 -10 -3 -7 -7z" fill="none" stroke="red" stroke-width="1mm" /><path d="M3103 903 c4 -3 10 -3 14 0 3 4 0 7 -7 7 -7 0 -10 -3 -7 -7z" fill="none" stroke="red" stroke-width="1mm" /><path d="M2603 883 c4 -3 10 -3 14 0 3 4 0 7 -7 7 -7 0 -10 -3 -7 -7z" fill="none" stroke="red" stroke-width="1mm" /><path d="M6443 883 c4 -3 10 -3 14 0 3 4 0 7 -7 7 -7 0 -10 -3 -7 -7z" fill="none" stroke="red" stroke-width="1mm" /><path d="M2543 863 c4 -3 10 -3 14 0 3 4 0 7 -7 7 -7 0 -10 -3 -7 -7z" fill="none" stroke="red" stroke-width="1mm" /><path d="M2725 818 l-50 -53 53 50 c28 27 52 51 52 52 0 8 -9 -1 -55 -49z" fill="none" stroke="red" stroke-width="1mm" /><path d="M6383 863 c4 -3 10 -3 14 0 3 4 0 7 -7 7 -7 0 -10 -3 -7 -7z" fill="none" stroke="red" stroke-width="1mm" /><path d="M2263 853 c4 -3 10 -3 14 0 3 4 0 7 -7 7 -7 0 -10 -3 -7 -7z" fill="none" stroke="red" stroke-width="1mm" /><path d="M2224 818 c-4 -7 -3 -8 4 -4 12 7 16 16 8 16 -3 0 -8 -5 -12 -12z" fill="none" stroke="red" stroke-width="1mm" /><path d="M6033 813 c4 -3 10 -3 14 0 3 4 0 7 -7 7 -7 0 -10 -3 -7 -7z" fill="none" stroke="red" stroke-width="1mm" /><path d="M2183 793 c4 -3 10 -3 14 0 3 4 0 7 -7 7 -7 0 -10 -3 -7 -7z" fill="none" stroke="red" stroke-width="1mm" /><path d="M5970 775 c-14 -8 -36 -15 -50 -16 -23 -2 -23 -2 -3 -6 20 -4 83 21 83 32 0 7 -2 6 -30 -10z" fill="none" stroke="red" stroke-width="1mm" /><path d="M1884 580 c-5 -5 -27 -14 -49 -20 l-40 -10 37 5 c34 3 98 35 72 35 -5 0 -14 -4 -20 -10z" fill="none" stroke="red" stroke-width="1mm" /><path d="M4130 460 c0 -7 3 -10 7 -7 3 4 3 10 0 14 -4 3 -7 0 -7 -7z" fill="none" stroke="red" stroke-width="1mm" /></g><g transform="translate(1786.2204724409448,2537.020472440945) scale(1,-1) translate(0,-1494.0)"><path d="M4874 890 c69 -18 66 -2 66 -336 0 -167 -1 -304 -2 -304 -17 -1 -78 -29 -63 -29 11 0 31 6 44 13 20 11 28 11 50 0 14 -8 35 -14 46 -13 11 0 2 6 -20 13 l-40 12 -3 305 c-3 344 -1 335 -78 344 l-39 5 39 -10z" fill="none" stroke="red" stroke-width="1mm" /><path d="M780 871 c-67 -14 -118 -51 -134 -96 -9 -24 3 -13 18 17 19 38 89 70 156 71 56 2 62 0 97 -35 74 -74 47 -174 -91 -337 -117 -137 -136 -164 -142 -202 -4 -23 -14 -41 -28 -48 -17 -9 -17 -10 -1 -4 11 4 86 9 166 11 163 3 171 6 183 72 4 25 3 31 -4 20 -5 -8 -10 -24 -10 -36 0 -39 -18 -44 -163 -44 l-139 0 6 31 c7 35 34 73 142 200 39 46 84 106 99 134 77 140 -9 277 -155 246z" fill="none" stroke="red" stroke-width="1mm" /><path d="M1355 875 c-5 -2 -27 -6 -48 -10 -42 -7 -102 -54 -110 -86 -7 -24 1 -19 17 12 42 83 200 100 261 28 71 -85 -21 -259 -135 -259 -27 0 -51 -3 -53 -7 -3 -5 20 -7 51 -5 103 6 174 -59 174 -158 0 -106 -54 -160 -159 -160 -88 0 -168 45 -147 83 5 9 4 9 -6 0 -41 -38 71 -98 170 -91 101 7 152 63 152 167 0 70 -16 98 -79 141 l-46 30 36 34 c83 78 102 165 50 227 -36 42 -92 66 -128 54z" fill="none" stroke="red" stroke-width="1mm" /><path d="M1945 869 c4 -5 12 -9 20 -9 8 0 26 -5 40 -12 l25 -11 0 -287 c0 -313 2 -300 -60 -318 -20 -6 -27 -11 -15 -11 11 0 33 6 49 14 20 11 33 12 40 5 13 -13 261 -13 286 0 11 6 21 26 25 52 4 24 12 52 17 63 9 19 8 19 -5 2 -8 -10 -18 -38 -22 -62 -8 -56 -11 -57 -175 -53 l-125 3 -3 158 -3 159 106 -4 c115 -3 130 -11 120 -58 -4 -19 -3 -21 5 -10 5 8 7 29 4 46 -3 17 -1 48 4 68 6 20 7 34 2 31 -4 -3 -11 -21 -15 -41 -5 -31 -9 -35 -28 -30 -12 3 -61 6 -109 6 l-88 0 0 133 c0 90 4 137 12 145 13 13 213 15 258 3 20 -6 27 -17 37 -61 l13 -55 -5 50 c-8 75 -17 79 -156 84 -84 2 -128 -1 -144 -9 -13 -7 -32 -9 -42 -5 -41 16 -73 23 -68 14z" fill="none" stroke="red" stroke-width="1mm" /><path d="M6035 876 c-5 -3 -22 -7 -37 -10 -73 -16 -124 -114 -98 -190 14 -43 46 -71 143 -124 130 -71 168 -150 123 -256 -37 -90 -286 -89 -286 2 0 15 -5 34 -10 42 -6 10 -8 2 -3 -25 10 -69 55 -94 168 -95 101 0 155 56 155 162 0 72 -38 119 -139 175 -140 77 -166 115 -139 209 22 78 112 120 205 95 55 -16 63 -23 72 -72 5 -26 9 -34 10 -19 1 44 -11 70 -40 86 -29 14 -105 27 -124 20z" fill="none" stroke="red" stroke-width="1mm" /><path d="M306 841 c-12 -22 -24 -30 -57 -35 -40 -6 -144 -55 -136 -63 2 -2 24 8 48 21 24 14 63 28 87 32 l42 7 0 -271 c0 -307 4 -291 -82 -293 -24 -1 -54 -5 -68 -9 -15 -5 4 -6 45 -3 39 3 77 10 87 14 9 5 29 5 45 0 39 -13 132 -21 137 -13 2 4 -17 8 -43 9 -25 2 -61 5 -78 8 l-33 6 0 280 c0 231 3 285 15 309 9 17 13 30 11 30 -3 0 -12 -13 -20 -29z" fill="none" stroke="red" stroke-width="1mm" /><path d="M6427 773 c-4 -3 -7 -20 -7 -37 0 -60 -9 -72 -58 -84 l-47 -10 48 5 47 5 0 -140 c0 -239 23 -290 123 -278 39 5 61 14 73 29 19 22 19 22 -1 5 -32 -26 -121 -35 -145 -13 -28 26 -40 100 -40 255 l0 140 83 0 c45 0 87 4 94 8 6 4 -31 5 -83 4 l-94 -4 6 49 c3 26 7 54 10 61 4 13 1 15 -9 5z" fill="none" stroke="red" stroke-width="1mm" /><path d="M8157 773 c-4 -3 -7 -20 -7 -37 0 -60 -9 -72 -58 -84 l-47 -10 48 5 47 5 0 -140 c0 -239 23 -290 123 -278 39 5 61 14 73 29 19 22 19 22 -1 5 -32 -26 -121 -35 -145 -13 -28 26 -40 100 -40 255 l0 140 83 0 c45 0 87 4 94 8 6 4 -31 5 -83 4 l-94 -4 6 49 c3 26 7 54 10 61 4 13 1 15 -9 5z" fill="none" stroke="red" stroke-width="1mm" /><path d="M2484 671 c3 -5 20 -11 37 -15 38 -7 59 -23 59 -44 0 -8 23 -46 50 -84 61 -83 61 -67 -5 -148 -30 -37 -57 -79 -61 -93 -8 -32 -19 -42 -64 -55 -19 -6 -27 -11 -18 -11 9 -1 29 4 44 9 18 7 30 7 40 -1 7 -6 21 -9 31 -6 14 4 14 5 -4 6 -47 2 -34 56 36 143 57 71 61 71 111 2 69 -92 74 -142 16 -145 -18 -1 -18 -2 -3 -6 10 -3 26 2 36 11 15 14 21 14 60 0 34 -12 47 -12 55 -3 8 9 8 10 0 6 -27 -15 -85 14 -101 51 -16 38 -51 89 -92 134 l-24 28 52 55 c29 30 61 75 72 99 15 34 26 46 49 51 16 4 32 11 35 15 3 5 -12 3 -34 -5 -25 -8 -43 -10 -46 -4 -4 5 -18 8 -33 8 -27 -1 -27 -1 3 -8 46 -10 28 -65 -47 -147 -51 -55 -48 -56 -102 19 -58 82 -64 127 -16 127 10 0 21 4 24 9 7 11 -34 2 -51 -11 -7 -6 -31 -4 -63 6 -28 8 -48 11 -46 7z" fill="none" stroke="red" stroke-width="1mm" /><path d="M3142 669 c-46 -9 -100 -38 -123 -66 -8 -9 6 -2 31 15 58 41 133 56 176 36 41 -20 54 -51 54 -129 l0 -64 -57 -6 c-146 -16 -213 -58 -213 -131 0 -102 105 -129 215 -56 58 38 65 39 65 8 0 -30 18 -44 61 -51 32 -5 32 -4 -6 8 -50 16 -52 25 -54 215 -1 162 -9 190 -65 216 -19 9 -36 16 -38 15 -1 -1 -22 -5 -46 -10z m138 -287 l0 -69 -52 -33 c-112 -73 -208 -53 -208 44 0 65 49 99 164 116 102 15 96 19 96 -58z" fill="none" stroke="red" stroke-width="1mm" /><path d="M3476 669 c3 -5 15 -9 27 -9 47 0 48 -5 45 -216 l-3 -199 -35 -13 c-30 -11 -31 -12 -5 -6 41 8 73 8 115 0 24 -4 21 -2 -12 9 l-48 16 0 164 0 163 30 7 c17 4 44 18 61 33 22 18 46 27 84 30 85 7 95 -16 95 -230 0 -178 1 -175 -54 -189 -29 -8 -29 -8 4 -3 44 7 76 7 120 0 19 -3 26 -3 15 0 -11 3 -32 10 -47 16 l-28 10 0 159 0 159 51 27 c29 16 61 34 73 41 12 7 41 11 66 10 70 -4 80 -32 80 -235 0 -177 -1 -181 -62 -184 -18 -1 -19 -2 -5 -6 10 -3 32 1 48 7 23 10 35 10 60 0 24 -10 32 -10 42 0 9 10 9 11 -1 6 -7 -5 -26 -3 -42 4 l-29 12 -3 173 c-3 158 -5 176 -24 202 -24 32 -93 43 -130 21 -12 -7 -44 -25 -71 -40 l-50 -27 -24 37 c-21 33 -29 37 -69 40 -43 2 -60 -4 -111 -40 -49 -34 -79 -34 -79 0 0 17 -5 34 -11 38 -19 12 -79 22 -73 13z" fill="none" stroke="red" stroke-width="1mm" /><path d="M5302 670 c-82 -20 -126 -98 -126 -230 -1 -154 51 -216 176 -207 60 4 148 40 133 55 -2 2 -17 -6 -33 -18 -22 -17 -49 -24 -99 -27 -112 -7 -158 37 -170 162 l-6 64 143 3 c168 3 173 6 152 85 -23 86 -92 132 -170 113z m120 -38 c29 -29 55 -108 45 -135 -6 -15 -25 -17 -145 -17 l-139 0 7 38 c24 132 150 194 232 114z" fill="none" stroke="red" stroke-width="1mm" /><path d="M6686 669 c3 -5 15 -9 27 -9 47 0 48 -5 45 -216 l-3 -199 -35 -13 c-30 -11 -31 -12 -5 -6 41 8 73 8 115 0 24 -4 21 -2 -12 9 l-48 16 0 158 0 159 24 6 c14 3 38 17 53 30 30 25 119 54 130 42 4 -3 6 -20 6 -37 0 -22 3 -26 9 -16 4 9 4 27 -2 42 -15 39 -81 26 -159 -30 -47 -34 -61 -32 -61 9 0 19 -5 38 -11 42 -19 12 -79 22 -73 13z" fill="none" stroke="red" stroke-width="1mm" /><path d="M7262 670 c-82 -20 -126 -98 -126 -230 -1 -154 51 -216 176 -207 60 4 148 40 133 55 -2 2 -17 -6 -33 -18 -22 -17 -49 -24 -99 -27 -112 -7 -158 37 -170 162 l-6 64 143 3 c168 3 173 6 152 85 -23 86 -92 132 -170 113z m120 -38 c29 -29 55 -108 45 -135 -6 -15 -25 -17 -145 -17 l-139 0 7 38 c24 132 150 194 232 114z" fill="none" stroke="red" stroke-width="1mm" /><path d="M7752 670 c-82 -20 -126 -98 -126 -230 -1 -154 51 -216 176 -207 60 4 148 40 133 55 -2 2 -17 -6 -33 -18 -22 -17 -49 -24 -99 -27 -112 -7 -158 37 -170 162 l-6 64 143 3 c168 3 173 6 152 85 -23 86 -92 132 -170 113z m120 -38 c29 -29 55 -108 45 -135 -6 -15 -25 -17 -145 -17 l-139 0 7 38 c24 132 150 194 232 114z" fill="none" stroke="red" stroke-width="1mm" /><path d="M4323 660 c21 -4 42 -11 48 -17 11 -11 13 -593 2 -604 -4 -4 -24 -12 -43 -18 l-35 -11 35 6 c43 8 63 8 115 0 40 -6 40 -6 -5 6 l-45 13 -3 108 c-1 59 1 107 6 107 5 0 29 -7 52 -15 108 -38 189 -14 233 68 29 55 32 232 4 284 -42 79 -127 97 -208 44 -70 -46 -89 -48 -89 -12 0 18 7 34 18 40 9 6 12 11 7 11 -6 0 -16 -5 -22 -11 -8 -8 -17 -8 -31 0 -11 6 -33 10 -49 10 -24 -1 -22 -2 10 -9z m315 -26 c87 -61 78 -330 -13 -390 -31 -20 -142 -15 -197 9 l-38 16 0 155 0 154 28 10 c15 5 45 21 66 36 45 30 118 36 154 10z" fill="none" stroke="red" stroke-width="1mm" /></g><g transform="translate(4700.220472440945,3732.220472440945) scale(1,-1) translate(0,-1474.0)"><path d="M2365 870 c3 -6 12 -10 20 -10 8 0 26 -5 40 -12 l25 -11 0 -287 c0 -313 2 -300 -60 -318 -20 -6 -27 -11 -15 -11 11 0 33 6 49 14 21 11 32 12 42 4 26 -21 213 -7 255 19 91 55 95 200 9 264 -36 27 -38 54 -5 80 78 61 77 175 0 234 -43 32 -205 48 -250 24 -18 -10 -31 -10 -52 -2 -53 20 -64 22 -58 12z m359 -44 c52 -40 64 -97 33 -166 -15 -35 -88 -102 -105 -95 -7 3 -54 5 -103 5 l-89 0 0 133 c0 166 -5 160 127 155 91 -4 105 -7 137 -32z m-5 -305 c65 -61 81 -130 47 -203 -28 -59 -65 -73 -191 -73 l-110 0 -3 158 -3 158 111 -2 111 -2 38 -36z" fill="none" stroke="red" stroke-width="1mm" /><path d="M2093 840 c-3 -12 -19 -28 -35 -36 -30 -15 -208 -275 -223 -325 -4 -13 -17 -32 -29 -42 -12 -11 -14 -15 -4 -10 9 4 75 7 147 5 l131 -3 0 -89 c0 -94 -2 -97 -54 -111 -29 -8 -29 -8 4 -3 51 8 80 8 120 0 24 -4 21 -2 -12 9 l-48 16 0 89 0 90 65 0 c69 0 87 15 84 68 -1 9 -6 0 -11 -20 l-10 -38 -65 0 -66 0 6 200 c3 110 8 204 12 210 3 5 3 10 0 10 -4 0 -9 -9 -12 -20z m-10 -217 l-6 -183 -123 0 -123 0 11 33 c31 89 223 350 245 333 1 0 -1 -83 -4 -183z" fill="none" stroke="red" stroke-width="1mm" /><path d="M320 841 c0 -7 -11 -22 -24 -34 -30 -28 -167 -404 -184 -507 -7 -43 -9 -46 -57 -62 -28 -9 -41 -17 -30 -17 11 0 33 6 50 13 24 10 34 10 55 -1 14 -7 36 -13 50 -12 17 0 10 4 -20 12 -53 14 -54 21 -18 145 25 87 11 80 175 84 l132 3 15 -60 c35 -145 32 -159 -37 -175 -28 -7 -29 -8 -7 -9 14 -1 36 6 48 15 21 14 26 14 63 0 22 -9 47 -16 57 -16 9 1 -5 9 -33 18 l-50 17 -18 90 c-10 50 -25 103 -33 119 -8 16 -14 36 -14 44 0 32 -85 298 -102 321 -10 13 -18 18 -18 12z m67 -171 c61 -205 66 -194 -84 -198 -148 -3 -141 -18 -72 172 48 131 78 181 102 173 5 -1 30 -68 54 -147z" fill="none" stroke="red" stroke-width="1mm" /><path d="M1317 773 c-4 -3 -7 -20 -7 -37 0 -60 -9 -72 -58 -84 l-47 -10 48 5 47 5 0 -140 c0 -239 23 -290 123 -278 39 5 61 14 73 29 19 22 19 22 -1 5 -32 -26 -121 -35 -145 -13 -28 26 -40 100 -40 255 l0 140 83 0 c45 0 87 4 94 8 6 4 -31 5 -83 4 l-94 -4 6 49 c3 26 7 54 10 61 4 13 1 15 -9 5z" fill="none" stroke="red" stroke-width="1mm" /><path d="M693 660 c21 -4 42 -11 48 -17 11 -11 13 -593 2 -604 -4 -4 -24 -12 -43 -18 l-35 -11 35 6 c43 8 63 8 115 0 40 -6 40 -6 -5 6 l-45 13 -3 108 c-1 59 1 107 6 107 5 0 29 -7 52 -15 108 -38 189 -14 233 68 29 55 32 232 4 284 -42 79 -127 97 -208 44 -70 -46 -89 -48 -89 -12 0 18 7 34 18 40 9 6 12 11 6 11 -5 0 -15 -5 -21 -11 -8 -8 -17 -8 -31 0 -11 6 -33 10 -49 10 -24 -1 -22 -2 10 -9z m315 -26 c87 -61 78 -330 -13 -390 -31 -20 -142 -15 -197 9 l-38 16 0 155 0 154 28 10 c15 5 45 21 66 36 45 30 118 36 154 10z" fill="none" stroke="red" stroke-width="1mm" /></g><g transform="translate(236.22047244094483,4911.420472440945) scale(1,-1) translate(0,-1415.0)"><path d="M2024 820 c69 -18 66 -2 66 -336 0 -167 -1 -304 -2 -304 -17 -1 -78 -29 -63 -29 11 0 31 6 44 13 20 11 28 11 50 0 14 -8 35 -14 46 -13 11 0 2 6 -20 13 l-40 12 -3 171 -2 171 29 7 c17 3 42 16 56 27 29 22 90 34 130 24 45 -11 55 -55 55 -235 0 -175 -2 -179 -62 -182 -18 -1 -19 -2 -5 -6 10 -3 32 1 48 7 23 10 35 10 60 0 24 -10 32 -10 42 0 9 10 9 11 -1 6 -7 -5 -26 -2 -43 4 l-29 12 0 160 c0 171 -10 216 -51 238 -31 17 -110 7 -145 -18 -16 -12 -41 -24 -56 -28 l-28 -6 0 129 c0 147 -6 160 -76 168 l-39 5 39 -10z" fill="none" stroke="red" stroke-width="1mm" /><path d="M4234 820 c69 -18 66 -2 66 -336 0 -167 -1 -304 -2 -304 -17 -1 -78 -29 -63 -29 11 0 31 6 44 13 20 11 28 11 50 0 14 -8 35 -14 46 -13 11 0 2 6 -20 13 l-40 12 -3 171 -2 171 29 7 c17 3 42 16 56 27 29 22 90 34 130 24 45 -11 55 -55 55 -235 0 -175 -2 -179 -62 -182 -18 -1 -19 -2 -5 -6 10 -3 32 1 48 7 23 10 35 10 60 0 24 -10 32 -10 42 0 9 10 9 11 -1 6 -7 -5 -26 -2 -43 4 l-29 12 0 160 c0 171 -10 216 -51 238 -31 17 -110 7 -145 -18 -16 -12 -41 -24 -56 -28 l-28 -6 0 129 c0 147 -6 160 -76 168 l-39 5 39 -10z" fill="none" stroke="red" stroke-width="1mm" /><path d="M6003 814 l47 -15 0 -115 c0 -107 -1 -116 -17 -109 -174 74 -286 4 -300 -188 -6 -86 21 -173 65 -208 39 -31 128 -21 185 21 50 36 67 38 67 5 0 -28 43 -56 82 -54 20 1 20 2 3 6 -11 2 -32 9 -47 15 l-28 10 0 310 0 309 -35 15 c-19 7 -42 14 -52 13 -10 0 3 -7 30 -15z m10 -241 l37 -15 0 -159 c0 -124 -3 -159 -13 -159 -7 0 -31 -13 -53 -30 -52 -38 -141 -51 -178 -27 -41 27 -69 119 -63 204 13 181 111 249 270 186z" fill="none" stroke="red" stroke-width="1mm" /><path d="M10882 805 c-11 -24 -13 -24 -149 -27 l-138 -3 -3 -129 c-3 -159 -4 -158 97 -150 131 10 186 -37 186 -159 0 -127 -42 -172 -158 -172 -86 0 -143 23 -150 61 -4 22 -4 22 -3 -2 2 -48 112 -86 201 -70 138 26 171 241 51 330 -23 18 -42 21 -119 21 l-92 0 -3 133 -3 132 135 0 c134 0 136 0 152 25 9 14 15 28 12 30 -3 3 -10 -6 -16 -20z" fill="none" stroke="red" stroke-width="1mm" /><path d="M75 801 c2 -5 17 -11 32 -14 48 -11 59 -22 45 -49 -8 -16 -13 -106 -15 -293 l-2 -270 -35 -13 c-31 -11 -32 -12 -5 -7 40 8 54 8 95 1 l35 -6 -37 11 -38 11 0 279 c0 263 1 279 18 279 32 0 47 -21 172 -233 80 -136 131 -213 147 -220 21 -9 43 -58 43 -96 0 -8 3 -12 6 -8 4 3 1 27 -5 53 -8 33 -9 50 -2 57 7 7 11 97 11 254 l0 244 30 6 c17 3 33 9 35 14 3 4 -9 3 -27 -3 -18 -5 -37 -9 -43 -9 -5 1 -28 3 -50 6 -37 4 -31 1 23 -11 l22 -4 0 -245 c0 -335 -5 -335 -186 -29 -83 140 -136 220 -151 227 -13 5 -23 16 -23 23 0 7 -10 18 -21 25 -31 16 -80 29 -74 20z" fill="none" stroke="red" stroke-width="1mm" /><path d="M2805 800 c3 -6 12 -10 20 -10 8 0 26 -5 40 -12 l25 -11 0 -287 c0 -313 2 -300 -60 -318 -20 -6 -27 -11 -15 -11 11 0 33 6 49 14 21 11 32 12 42 4 26 -21 213 -7 255 19 91 55 95 200 9 264 -36 27 -38 54 -5 80 78 61 77 175 0 234 -43 32 -205 48 -250 24 -18 -10 -31 -10 -52 -2 -53 20 -64 22 -58 12z m359 -44 c52 -40 64 -97 33 -166 -15 -35 -88 -102 -105 -95 -7 3 -54 5 -103 5 l-89 0 0 133 c0 166 -5 160 127 155 91 -4 105 -7 137 -32z m-5 -305 c65 -61 81 -130 47 -203 -28 -59 -65 -73 -191 -73 l-110 0 -3 158 -3 158 111 -2 111 -2 38 -36z" fill="none" stroke="red" stroke-width="1mm" /><path d="M7185 801 c2 -5 17 -11 32 -14 44 -10 59 -23 45 -40 -8 -9 -12 -98 -14 -293 l-3 -279 -35 -13 c-31 -11 -32 -12 -5 -7 40 8 54 8 95 1 l35 -6 -37 11 -38 11 0 283 c0 187 4 286 10 290 29 18 54 -26 124 -216 39 -108 77 -204 85 -213 7 -9 11 -29 9 -45 -2 -17 -1 -28 4 -25 4 3 8 17 8 31 0 14 10 33 23 43 14 11 49 86 97 208 75 191 75 192 133 220 4 2 7 -122 7 -276 0 -307 2 -297 -63 -312 -28 -7 -29 -8 -7 -9 14 -1 35 6 47 14 19 13 24 13 50 0 31 -16 49 -19 56 -7 3 4 -8 7 -25 8 -16 1 -33 5 -38 10 -5 5 -10 139 -10 299 -1 311 -1 315 51 315 10 0 20 4 24 9 11 19 -51 -7 -105 -44 l-55 -37 -72 -181 c-114 -288 -108 -287 -207 -17 -39 107 -74 200 -78 206 -20 30 -162 104 -143 75z" fill="none" stroke="red" stroke-width="1mm" /><path d="M8005 799 c4 -5 12 -9 20 -9 8 0 26 -5 40 -12 l25 -11 0 -287 c0 -313 2 -300 -60 -318 -20 -6 -27 -11 -15 -11 11 0 33 6 49 14 22 12 32 12 43 4 19 -16 188 -6 233 14 73 32 120 108 140 229 28 166 -34 313 -153 363 -53 22 -192 32 -212 15 -8 -7 -23 -10 -32 -7 -10 3 -33 10 -51 16 -19 6 -30 6 -27 0z m321 -34 c114 -47 171 -189 144 -353 -30 -181 -94 -237 -270 -237 l-95 0 -3 294 c-2 223 1 297 10 309 16 19 158 11 214 -13z" fill="none" stroke="red" stroke-width="1mm" /><path d="M9040 801 c-67 -14 -118 -51 -134 -96 -9 -24 3 -13 18 17 19 38 89 70 156 71 56 2 62 0 97 -35 74 -74 47 -174 -91 -337 -117 -137 -136 -164 -142 -202 -4 -23 -14 -41 -28 -48 -17 -9 -17 -10 -1 -4 11 4 86 9 166 11 163 3 171 6 183 72 4 25 3 31 -4 20 -5 -8 -10 -24 -10 -36 0 -39 -18 -44 -163 -44 l-139 0 6 31 c7 35 34 73 142 200 39 46 84 106 99 134 77 140 -9 277 -155 246z" fill="none" stroke="red" stroke-width="1mm" /><path d="M9606 800 c-41 -13 -85 -57 -109 -110 -46 -100 -33 -395 20 -476 41 -63 144 -85 198 -42 115 91 122 499 9 598 -19 16 -41 30 -49 30 -7 0 -19 2 -27 4 -7 2 -26 0 -42 -4z m104 -29 c113 -77 112 -516 -1 -595 -56 -39 -162 -8 -192 57 -46 96 -52 366 -10 457 44 98 129 132 203 81z" fill="none" stroke="red" stroke-width="1mm" /><path d="M10145 801 c-127 -31 -175 -180 -85 -266 38 -36 38 -44 -4 -94 -105 -126 -28 -291 135 -291 158 0 231 191 115 299 -34 32 -33 51 3 85 36 35 54 104 41 161 -18 81 -111 128 -205 106z m97 -12 c110 -30 139 -168 55 -259 -48 -52 -169 -52 -223 1 -57 55 -66 138 -22 202 38 54 116 77 190 56z m48 -334 c65 -61 79 -147 39 -223 -61 -114 -276 -89 -303 36 -14 65 0 125 41 175 l36 45 78 -2 c72 -1 80 -3 109 -31z" fill="none" stroke="red" stroke-width="1mm" /><path d="M11240 801 c-67 -14 -118 -51 -134 -96 -9 -24 3 -13 18 17 19 38 89 70 156 71 56 2 62 0 97 -35 74 -74 47 -174 -91 -337 -117 -137 -136 -164 -142 -202 -4 -23 -14 -41 -28 -48 -17 -9 -17 -10 -1 -4 11 4 86 9 166 11 163 3 171 6 183 72 4 25 3 31 -4 20 -5 -8 -10 -24 -10 -36 0 -39 -18 -44 -163 -44 l-139 0 6 31 c7 35 34 73 142 200 39 46 84 106 99 134 77 140 -9 277 -155 246z" fill="none" stroke="red" stroke-width="1mm" /><path d="M1757 703 c-4 -3 -7 -20 -7 -37 0 -60 -9 -72 -58 -84 l-47 -10 48 5 47 5 0 -140 c0 -239 23 -290 123 -278 39 5 61 14 73 29 19 22 19 22 -1 5 -32 -26 -121 -35 -145 -13 -28 26 -40 100 -40 255 l0 140 83 0 c45 0 87 4 94 8 6 4 -31 5 -83 4 l-94 -4 6 49 c3 26 7 54 10 61 4 13 1 15 -9 5z" fill="none" stroke="red" stroke-width="1mm" /><path d="M3967 703 c-4 -3 -7 -20 -7 -37 0 -60 -9 -72 -58 -84 l-47 -10 48 5 47 5 0 -140 c0 -239 23 -290 123 -278 39 5 61 14 73 29 19 22 19 22 -1 5 -32 -26 -121 -35 -145 -13 -28 26 -40 100 -40 255 l0 140 83 0 c45 0 87 4 94 8 6 4 -31 5 -83 4 l-94 -4 6 49 c3 26 7 54 10 61 4 13 1 15 -9 5z" fill="none" stroke="red" stroke-width="1mm" /><path d="M902 600 c-140 -33 -179 -312 -59 -416 54 -46 155 -48 203 -4 114 106 78 383 -55 420 -40 11 -43 11 -89 0z m128 -29 c91 -63 98 -308 11 -386 -41 -36 -147 -34 -193 5 -87 73 -87 296 0 374 43 38 133 42 182 7z" fill="none" stroke="red" stroke-width="1mm" /><path d="M1266 599 c3 -5 15 -9 27 -9 47 0 48 -5 45 -216 l-3 -199 -35 -13 c-30 -11 -31 -12 -5 -6 41 8 73 8 115 0 24 -4 21 -2 -12 9 l-48 16 0 158 0 159 24 6 c14 3 38 17 53 30 30 25 119 54 130 42 4 -3 6 -20 6 -37 0 -22 3 -26 9 -16 4 9 4 27 -2 42 -15 39 -81 26 -159 -30 -47 -34 -61 -32 -61 9 0 19 -5 38 -11 42 -19 12 -79 22 -73 13z" fill="none" stroke="red" stroke-width="1mm" /><path d="M3562 600 c-82 -20 -126 -98 -126 -230 -1 -154 51 -216 176 -207 60 4 148 40 133 55 -2 2 -17 -6 -33 -18 -22 -17 -49 -24 -99 -27 -112 -7 -158 37 -170 162 l-6 64 143 3 c168 3 173 6 152 85 -23 86 -92 132 -170 113z m120 -38 c29 -29 55 -108 45 -135 -6 -15 -25 -17 -145 -17 l-139 0 7 38 c24 132 150 194 232 114z" fill="none" stroke="red" stroke-width="1mm" /><path d="M4942 600 c-82 -20 -126 -98 -126 -230 -1 -154 51 -216 176 -207 60 4 148 40 133 55 -2 2 -17 -6 -33 -18 -22 -17 -49 -24 -99 -27 -112 -7 -158 37 -170 162 l-6 64 143 3 c168 3 173 6 152 85 -23 86 -92 132 -170 113z m120 -38 c29 -29 55 -108 45 -135 -6 -15 -25 -17 -145 -17 l-139 0 7 38 c24 132 150 194 232 114z" fill="none" stroke="red" stroke-width="1mm" /><path d="M5391 600 c-48 -11 -72 -40 -78 -94 -7 -59 8 -77 105 -124 123 -59 157 -137 86 -200 -56 -50 -205 -23 -218 39 -3 18 -8 30 -10 28 -2 -2 -2 -17 1 -32 13 -69 171 -96 233 -40 76 70 41 151 -92 215 -93 45 -102 56 -95 115 6 57 28 78 91 87 70 11 124 -8 135 -47 5 -18 10 -24 10 -14 3 60 -72 90 -168 67z" fill="none" stroke="red" stroke-width="1mm" /><path d="M6402 599 c-46 -9 -100 -38 -123 -66 -8 -9 6 -2 31 15 58 41 133 56 176 36 41 -20 54 -51 54 -129 l0 -64 -57 -6 c-146 -16 -213 -58 -213 -131 0 -102 105 -129 215 -56 58 38 65 39 65 8 0 -30 18 -44 61 -51 32 -5 32 -4 -6 8 -50 16 -52 25 -54 215 -1 162 -9 190 -65 216 -19 9 -36 16 -38 15 -1 -1 -22 -5 -46 -10z m138 -287 l0 -69 -52 -33 c-112 -73 -208 -53 -208 44 0 65 49 99 164 116 102 15 96 19 96 -58z" fill="none" stroke="red" stroke-width="1mm" /><path d="M6786 208 c-3 -7 -7 -35 -10 -63 -4 -35 -16 -61 -38 -90 -18 -22 -24 -34 -15 -26 36 29 57 71 65 130 8 56 7 79 -2 49z" fill="none" stroke="red" stroke-width="1mm" /></g></svg>