<?xml version="1.0" encoding="utf-8" ?>
<svg baseProfile="full" height="7732.340944881889px" version="1.1" viewBox="0 0 22717.44094488189 7732.340944881889" width="22717.44094488189px" xmlns="http://www.w3.org/2000/svg" xmlns:ev="http://www.w3.org/2001/xml-events" xmlns:xlink="http://www.w3.org/1999/xlink"><defs /><g transform="translate(5097.220472440946,236.2204724409449) scale(1,-1) translate(0,-3780.0)"><path d="M0 1320 l0 -1320 4455 0 4455 0 0 624 0 623 -41 -20 -41 -20 -55 -13 -55 -13 -27 10 -26 10 -19 17 -18 17 -23 46 -23 45 -15 13 -15 12 -25 -7 -26 -6 -60 -58 -60 -59 -35 -7 -36 -6 0 -15 0 -15 -27 -49 -26 -49 -4 4 -3 3 25 44 25 44 0 18 0 17 -21 0 -20 0 -32 -24 -32 -24 -56 -31 -55 -31 -59 -20 -58 -20 -47 0 -48 0 -22 18 -23 18 -5 52 -5 52 -7 0 -7 0 -36 -28 -35 -27 -84 -68 -83 -68 -89 -44 -88 -45 -35 0 -35 0 -34 34 -34 34 0 49 0 49 21 75 21 74 5 28 5 27 -19 0 -19 0 -30 -31 -29 -31 -46 -34 -47 -34 -30 -6 -30 -6 -12 22 -12 21 7 40 7 39 -15 0 -15 0 -65 -25 -65 -24 -63 -11 -64 -11 -55 15 -54 14 -41 -43 -40 -44 -30 -11 -29 -11 -14 18 -13 18 5 30 5 30 7 24 7 24 -29 -6 -29 -5 -62 -26 -62 -27 -54 -10 -53 -11 -42 11 -42 12 -59 54 -59 55 -23 0 -24 0 -26 -18 -26 -17 -33 -38 -33 -38 -28 -15 -29 -14 -31 -65 -31 -65 -9 -6 -9 -5 40 77 40 78 0 23 0 24 19 37 19 37 36 54 36 53 0 15 0 15 86 142 87 141 65 95 66 94 77 96 78 96 83 80 84 79 46 23 45 22 30 0 30 0 16 -18 17 -19 0 -19 0 -20 -33 -69 -34 -70 -64 -85 -64 -85 -180 -181 -180 -181 -94 -81 -95 -82 -40 -13 -40 -13 -33 -48 -33 -48 0 -14 0 -13 22 -12 22 -12 21 28 22 27 29 19 29 19 24 0 23 0 59 -55 59 -54 42 -12 42 -11 53 11 54 10 62 27 62 26 30 5 29 6 41 29 40 29 20 36 20 36 17 11 16 10 16 -13 16 -13 0 -43 0 -42 -21 -27 -21 -27 5 -13 6 -14 52 -11 52 -11 60 11 61 11 64 24 64 24 22 0 22 0 49 51 50 51 27 19 28 20 49 8 50 8 -5 -9 -5 -8 -29 0 -29 0 -27 -10 -26 -10 -68 -66 -68 -65 -7 -35 -6 -35 6 -20 7 -21 31 6 30 6 36 27 36 26 40 38 40 37 24 4 23 3 22 36 21 37 27 33 26 34 10 35 9 35 89 143 89 143 79 107 78 107 127 126 126 126 52 27 52 26 24 0 24 0 18 -20 17 -19 -6 -35 -7 -36 -30 -57 -30 -58 -56 -75 -56 -75 -131 -131 -131 -130 -143 -122 -142 -122 -28 0 -27 0 -32 -40 -33 -39 0 -6 0 -7 -19 -26 -18 -27 -6 -30 -5 -30 -21 -74 -21 -75 0 -49 0 -49 29 -29 29 -29 34 0 34 0 80 39 79 38 60 45 60 44 59 53 60 52 23 5 23 6 0 7 0 8 83 86 82 85 34 17 34 17 23 -11 24 -11 0 -13 0 -14 -20 -26 -20 -26 -55 -27 -55 -26 -31 6 -30 6 -30 -33 -30 -32 -6 -23 -5 -23 5 -42 6 -41 17 -13 18 -13 46 0 47 0 58 20 59 20 55 31 56 31 32 24 32 24 28 0 28 0 29 60 30 60 20 18 21 17 -16 -20 -17 -20 -27 -53 -28 -53 5 -5 5 -5 27 10 26 10 55 55 55 54 27 7 26 6 20 -20 20 -20 26 -48 26 -48 35 -17 35 -17 56 13 55 12 40 20 39 19 3 693 2 692 -4455 0 -4455 0 0 -1320m2898 1197 l-36 -32 -4 -11 -3 -12 -130 -142 -130 -142 -86 -113 -86 -113 -91 -135 -91 -135 -7 -27 -7 -28 71 5 70 5 69 32 68 32 25 22 25 22 -23 -26 -23 -27 -71 -32 -71 -33 -71 -4 -71 -4 -27 -11 -28 -10 0 -14 0 -14 -44 -88 -44 -87 -32 -90 -31 -90 -20 -82 -20 -83 0 -62 0 -63 10 -52 10 -53 15 -29 15 -28 35 -30 34 -31 38 -12 37 -13 63 6 63 5 46 25 45 26 -5 -10 -6 -9 -42 -21 -41 -22 -62 -5 -61 -5 -38 13 -38 12 -39 36 -39 35 -15 29 -15 28 -10 53 -10 52 0 63 0 62 20 83 20 82 31 90 32 90 44 87 44 88 0 19 0 19 -77 6 -78 7 -90 16 -90 15 -10 9 -9 9 -32 0 -33 0 -7 -22 -7 -23 -226 -234 -226 -234 -200 -187 -200 -187 -95 -84 -95 -83 -125 -100 -125 -100 -105 -68 -104 -68 -51 -19 -50 -19 -43 -7 -43 -7 -14 12 -15 12 0 12 1 11 10 -18 11 -19 46 7 46 7 51 19 51 19 104 68 105 68 125 100 125 100 95 84 95 83 195 182 195 182 227 235 227 234 6 26 7 26 -89 20 -88 20 -90 18 -90 18 -170 1 -170 0 -105 -27 -106 -27 -76 -34 -76 -35 -64 -43 -63 -43 -65 -67 -65 -66 -38 -64 -38 -64 -22 -70 -22 -70 0 -76 1 -75 28 -57 27 -57 45 -32 44 -31 0 -4 0 -4 -13 7 -12 7 -37 29 -37 29 -28 56 -27 57 -1 75 0 76 22 70 22 70 38 64 38 64 70 71 70 72 63 43 64 43 76 35 76 34 100 25 101 26 116 5 116 6 99 -12 99 -12 135 -31 135 -31 43 -4 42 -5 0 11 0 10 33 37 32 37 220 196 220 197 95 75 95 76 65 44 65 43 89 53 90 53 30 0 31 0 25 20 25 20 5 0 5 0 -37 -33m4052 -3 l65 -15 22 -2 22 -2 -8 -8 -9 -9 -48 18 -49 17 -143 5 -143 5 -142 -12 -142 -12 -150 -20 -150 -19 -270 -40 -270 -39 -28 -3 -27 -3 35 -73 35 -73 15 -58 15 -59 0 -128 0 -127 -11 -64 -11 -63 6 -16 6 -15 18 10 19 10 43 73 43 73 80 120 80 120 73 96 73 95 22 20 22 19 -64 -80 -65 -80 -70 -100 -71 -100 -69 -114 -69 -114 -31 -34 -32 -34 -10 -27 -10 -27 -36 -94 -36 -95 10 -10 10 -10 0 -18 0 -17 -51 -153 -52 -153 -54 -130 -55 -130 -64 -132 -64 -132 -26 -20 -27 -21 -13 0 -13 0 -4 8 -5 7 8 51 8 51 61 151 60 150 72 159 71 158 44 88 45 88 14 5 14 6 36 96 36 97 15 34 15 33 -12 14 -12 14 12 70 11 69 0 126 0 127 -15 58 -15 58 -37 77 -36 77 -46 -8 -46 -8 -100 0 -100 0 -40 15 -40 14 -3 16 -3 16 19 24 20 24 73 3 74 4 58 -22 58 -22 11 -24 11 -24 64 0 64 0 262 39 262 40 165 21 165 21 90 8 90 8 155 1 155 2 65 -16m-3575 -244 l18 -19 -6 -31 -7 -30 -26 -55 -26 -56 -57 -77 -57 -77 -83 -87 -83 -88 -126 -113 -127 -113 -68 -57 -68 -57 -27 0 -27 0 -32 -39 -32 -38 -26 -64 -26 -64 -19 -80 -20 -80 0 -37 0 -37 11 -24 11 -25 25 -11 24 -11 22 0 23 0 80 38 79 39 100 75 100 76 34 36 35 36 21 0 22 0 14 28 14 27 65 68 65 68 39 21 39 20 23 -11 24 -11 0 -13 0 -14 -20 -26 -20 -26 -55 -27 -55 -26 -27 5 -28 5 -17 -9 -17 -9 -22 -44 -22 -45 6 -42 6 -43 17 -13 18 -13 46 0 47 0 58 20 59 20 55 31 56 31 52 39 52 39 16 0 17 0 19 23 18 22 1 10 0 11 31 34 30 35 -25 -36 -26 -36 0 -7 0 -8 -20 -25 -20 -26 0 -18 0 -19 26 0 25 0 57 53 57 53 65 53 65 53 -36 -33 -36 -34 -87 -77 -87 -78 -23 0 -24 0 -6 -16 -6 -16 0 -38 0 -38 32 -27 32 -27 61 4 61 4 77 36 77 37 47 32 48 32 80 64 80 64 -45 -41 -45 -42 -65 -49 -65 -50 -93 -46 -93 -47 -63 -4 -62 -4 -33 28 -33 27 -8 21 -8 21 -91 -93 -91 -92 -7 0 -6 0 101 101 102 101 6 49 7 49 -17 0 -17 0 -52 -39 -52 -39 -56 -31 -55 -31 -59 -20 -58 -20 -47 0 -48 0 -22 18 -22 18 -5 47 -6 47 -16 0 -17 0 -35 -36 -34 -36 -100 -76 -100 -75 -79 -39 -80 -38 -23 0 -24 0 -28 14 -27 15 -12 26 -12 26 0 37 0 37 20 80 19 80 26 64 26 64 31 37 31 37 12 39 12 40 89 142 89 143 79 107 79 107 121 121 121 121 55 32 55 31 26 0 26 0 18 -20" fill="none" stroke="red" stroke-width="1mm" /><path d="M2724 2447 l-89 -53 -65 -43 -65 -44 -95 -76 -95 -75 -221 -197 -221 -197 -26 -32 -27 -32 0 -17 0 -18 71 -12 71 -13 111 -13 112 -13 16 9 17 8 6 27 7 26 91 135 91 135 86 113 86 113 130 142 130 142 7 19 7 19 -22 0 -23 0 -90 -53" fill="none" stroke="red" stroke-width="1mm" /><path d="M5133 2460 l-21 -9 -7 -22 -7 -21 12 -8 13 -8 57 -12 58 -12 75 4 76 3 6 7 7 6 -7 21 -6 20 -55 20 -55 21 -62 -1 -62 0 -22 -9" fill="none" stroke="red" stroke-width="1mm" /><path d="M5462 1423 l-13 -5 -43 -86 -44 -87 -71 -158 -72 -159 -60 -150 -61 -151 -8 -51 -8 -51 5 -5 4 -4 27 15 27 15 56 110 55 110 66 155 65 154 52 153 51 153 0 19 0 19 -7 4 -8 4 -13 -4" fill="none" stroke="red" stroke-width="1mm" /><path d="M3251 2249 l-54 -31 -95 -92 -94 -91 -65 -80 -64 -80 -68 -100 -68 -100 -61 -100 -61 -100 -6 -27 -7 -28 25 0 26 0 68 57 68 57 127 113 127 114 77 82 77 82 58 77 57 77 26 56 26 55 6 30 6 30 -12 15 -12 15 -27 0 -26 0 -54 -31" fill="none" stroke="red" stroke-width="1mm" /><path d="M3229 1400 l-36 -19 -31 -36 -32 -36 0 -11 0 -11 36 6 36 6 44 26 45 26 11 25 12 25 -15 10 -14 9 -10 -1 -10 0 -36 -19" fill="none" stroke="red" stroke-width="1mm" /><path d="M8068 2284 l-48 -24 -101 -98 -101 -97 -65 -80 -64 -80 -68 -100 -67 -100 -61 -100 -61 -100 -6 -27 -6 -28 25 0 25 0 142 122 143 122 126 125 126 126 56 75 56 75 30 58 30 57 7 35 6 35 -12 15 -12 15 -27 0 -26 -1 -47 -25" fill="none" stroke="red" stroke-width="1mm" /><path d="M6571 2277 l-44 -22 -79 -74 -79 -74 -78 -96 -77 -97 -66 -94 -65 -95 -85 -140 -85 -140 -7 -28 -7 -29 23 7 23 7 31 21 32 22 115 103 116 103 134 139 135 139 62 83 63 83 34 70 33 69 0 21 0 21 -12 12 -12 12 -30 0 -31 0 -44 -23" fill="none" stroke="red" stroke-width="1mm" /><path d="M8019 1400 l-36 -19 -31 -36 -32 -36 0 -11 0 -11 36 6 36 6 44 26 45 26 11 25 12 25 -15 10 -14 9 -10 -1 -10 0 -36 -19" fill="none" stroke="red" stroke-width="1mm" /><path d="M6632 1398 l-11 -14 -10 -26 -10 -26 12 -26 12 -26 12 -4 13 -5 16 24 15 23 -3 44 -3 43 -16 3 -16 3 -11 -13" fill="none" stroke="red" stroke-width="1mm" /><path d="M6549 1296 l-35 -24 -13 -50 -13 -51 7 -21 7 -21 21 7 22 6 30 23 31 23 19 37 20 38 -13 4 -13 5 -9 24 -10 24 -7 0 -8 0 -36 -24" fill="none" stroke="red" stroke-width="1mm" /><path d="M5806 1243 l-6 -6 0 -24 0 -23 6 0 5 0 20 10 19 11 0 7 0 7 -19 12 -19 12 -6 -6" fill="none" stroke="red" stroke-width="1mm" /></g><g transform="translate(4686.220472440946,3827.220472440945) scale(1,-1) translate(0,-1186.0)"><path d="M0 495 l0 -495 4530 0 4530 0 0 495 0 495 -4530 0 -4530 0 0 -495m5330 460 l30 -16 0 -328 0 -329 14 -11 14 -12 30 -2 30 -2 -5 -8 -4 -7 -27 6 -27 7 -12 10 -13 9 -40 -16 -40 -16 -18 0 -17 1 50 17 50 17 3 331 2 331 -27 11 -28 11 -30 4 -30 4 33 2 33 1 29 -15m-4989 -44 l-21 -40 0 -295 0 -294 18 -7 17 -8 75 -7 75 -7 -63 -1 -63 -2 -33 14 -33 14 -19 -11 -19 -11 -72 -6 -71 -5 4 7 5 8 53 0 53 0 32 11 31 11 0 294 0 294 -7 0 -8 0 -51 -14 -51 -13 -29 -19 -29 -19 -13 -15 -12 -15 6 17 6 17 41 24 42 25 57 12 56 13 18 38 17 39 4 -4 4 -4 -20 -41m660 -7 l30 -31 9 -39 9 -40 -13 -55 -13 -56 -29 -40 -29 -41 -93 -107 -93 -107 -8 -21 -8 -22 -8 -33 -7 -33 158 3 158 3 11 42 10 42 7 6 6 7 -10 -44 -11 -43 -9 -12 -10 -12 -166 -3 -167 -3 -20 -8 -20 -8 26 15 27 16 12 50 12 50 96 111 97 111 29 41 29 40 13 56 13 55 -9 40 -9 39 -25 26 -26 26 -73 3 -72 4 -45 -25 -45 -24 -11 -21 -11 -22 -6 -6 -6 -6 6 21 6 22 31 24 32 24 24 10 25 11 73 -3 72 -2 31 -31m580 13 l34 -23 12 -24 13 -25 0 -43 0 -44 -16 -34 -16 -34 -28 -23 -27 -24 -11 -20 -11 -20 11 -11 12 -12 11 0 11 0 30 -32 30 -33 12 -28 12 -28 0 -32 0 -32 -13 -35 -13 -35 -12 -22 -12 -21 -46 -22 -46 -23 -66 5 -67 5 -37 22 -37 22 -6 20 -7 21 5 4 5 5 6 -23 5 -23 33 -19 33 -19 67 -5 66 -5 45 22 44 21 10 23 11 22 11 28 11 28 0 34 0 34 -12 28 -12 28 -25 28 -25 27 -12 0 -12 0 -13 16 -13 16 -66 -5 -65 -5 20 9 20 8 48 0 47 1 0 10 0 9 40 40 40 39 10 27 10 26 0 39 0 39 -10 25 -10 26 -32 20 -33 20 -66 0 -65 0 -47 -30 -47 -30 0 -14 0 -15 -10 -6 -10 -6 8 23 9 23 47 33 48 32 68 0 67 0 34 -23m604 7 l29 -15 21 11 22 12 141 -4 141 -3 11 -11 12 -12 5 -39 5 -40 -8 -6 -9 -5 0 43 0 44 -9 8 -8 8 -144 3 -145 3 -15 -11 -14 -12 0 -144 0 -144 119 0 118 0 7 39 6 40 8 5 9 5 -12 -46 -12 -47 8 -35 8 -35 -9 -15 -10 -16 2 20 1 20 -1 28 -2 27 -120 0 -120 0 0 -159 0 -159 15 -12 14 -12 140 4 140 3 11 11 11 11 8 52 8 52 11 11 12 12 -10 -30 -10 -29 -5 -36 -6 -37 -16 -13 -16 -14 -139 -3 -139 -4 -20 18 -19 17 -17 -16 -18 -15 -40 -6 -40 -6 41 13 41 12 17 14 16 13 0 303 0 303 -14 11 -14 12 -43 8 -44 9 30 1 30 1 30 -16m4499 -13 l26 -24 0 -33 0 -33 -8 -5 -7 -4 3 37 4 36 -22 20 -22 20 -82 3 -81 4 -35 -24 -35 -23 -18 -35 -18 -35 4 -48 4 -48 20 -26 19 -26 97 -56 97 -56 32 -33 33 -32 0 -78 0 -77 -18 -27 -18 -27 -27 -17 -27 -18 -75 -4 -75 -3 -45 23 -44 23 -9 34 -8 34 12 11 12 11 -6 -11 -7 -12 7 -32 6 -32 45 -20 45 -20 72 4 71 5 25 16 26 17 14 27 14 26 0 73 0 73 -27 28 -27 28 -97 55 -96 54 -24 28 -23 29 -7 34 -6 35 6 34 7 34 21 27 21 27 31 20 31 19 82 -3 81 -3 26 -24m276 -141 l-6 -60 101 -2 100 -2 -102 -3 -103 -4 0 -127 1 -127 9 -70 9 -70 27 -23 27 -23 41 6 41 7 29 14 28 13 -12 -14 -12 -14 -55 -11 -56 -12 -26 19 -26 20 -14 28 -14 28 -5 179 -5 178 -6 0 -6 -1 -42 -8 -42 -8 5 8 5 9 24 0 24 0 25 10 26 10 0 48 0 49 7 6 6 7 2 0 1 0 -6 -60m1880 0 l-6 -60 101 -2 100 -2 -102 -3 -103 -4 0 -127 1 -127 9 -70 9 -70 27 -23 27 -23 41 6 41 7 29 14 28 13 -12 -14 -12 -14 -55 -11 -56 -12 -26 19 -26 20 -14 28 -14 28 -5 179 -5 178 -6 0 -6 -1 -42 -8 -42 -8 5 8 5 9 24 0 24 0 25 10 26 10 0 48 0 49 7 6 6 7 2 0 1 0 -6 -60m-4058 -53 l-22 -23 0 -32 0 -32 8 0 7 1 31 17 31 17 25 17 24 18 60 6 60 6 31 -26 31 -26 17 -42 16 -42 0 -80 1 -81 -13 -48 -12 -49 -35 -34 -35 -34 -35 -6 -36 -7 -65 11 -66 11 -22 7 -23 6 0 -110 0 -111 20 -11 20 -11 30 -2 29 -2 -8 -8 -8 -8 -47 16 -47 16 -12 -9 -12 -9 -40 -6 -40 -6 35 10 35 11 15 7 15 8 3 326 2 327 -22 5 -23 5 -25 4 -25 4 56 -4 57 -3 12 14 12 15 6 0 5 0 -21 -23m-1907 3 l-6 -10 -18 0 -19 0 -12 -15 -12 -14 6 -28 7 -29 44 -57 45 -57 9 0 8 0 42 42 41 42 21 43 21 43 -6 15 -5 15 -28 1 -28 2 23 4 23 5 13 -11 12 -10 52 13 52 14 -5 -8 -5 -8 -40 -7 -40 -7 -25 -53 -25 -52 -52 -52 -52 -52 9 -13 10 -13 48 -59 47 -59 11 -32 11 -33 54 -16 55 -16 -4 -4 -4 -4 -53 16 -54 16 -27 -16 -27 -16 -19 1 -18 1 31 9 31 9 13 15 12 14 -21 43 -21 43 -39 45 -39 45 -19 -11 -18 -11 -47 -62 -48 -62 -6 -26 -7 -25 14 -9 14 -9 19 4 19 5 -11 -11 -11 -11 -28 12 -28 11 -35 -10 -35 -10 -15 1 -15 1 10 3 10 4 40 10 41 11 12 33 12 34 60 72 60 71 0 10 0 10 -50 61 -49 62 -6 28 -7 29 -8 5 -8 5 -53 14 -54 15 21 0 21 1 43 -15 43 -15 16 14 16 14 20 5 20 5 3 1 3 1 -6 -10m657 -29 l33 -29 6 -194 7 -193 1 -2 1 -2 37 -10 36 -10 11 6 11 6 -11 -12 -11 -12 -39 13 -39 13 -3 28 -4 29 -26 -7 -27 -6 -38 -26 -38 -26 -52 -5 -53 -4 -32 27 -32 27 0 34 0 35 14 33 14 33 48 24 49 24 84 3 83 4 -4 86 -5 85 -27 24 -27 23 -55 0 -55 0 -37 -19 -37 -19 -19 -21 -19 -21 -9 0 -9 0 33 29 33 28 30 16 30 16 57 1 58 0 32 -29m315 17 l10 -13 7 -28 7 -28 22 6 22 7 42 24 42 24 44 6 44 6 22 -12 23 -12 14 -34 14 -34 33 16 32 17 35 23 36 24 45 6 46 6 22 -12 22 -11 20 -46 19 -45 0 -158 0 -158 14 -11 14 -12 30 -2 30 -2 -5 -8 -4 -7 -27 6 -27 7 -12 10 -13 9 -40 -16 -40 -16 -18 0 -17 1 50 17 50 17 3 161 2 161 -19 46 -20 46 -26 7 -25 6 -37 -7 -37 -7 -64 -38 -64 -39 1 -163 2 -163 13 -13 12 -13 31 -2 31 -2 -5 -8 -4 -7 -27 6 -27 7 -12 10 -13 9 -40 -16 -40 -16 -18 0 -17 1 50 17 50 17 3 154 3 154 -17 49 -16 48 -20 11 -21 11 -39 -5 -39 -5 -69 -34 -69 -33 -1 -157 0 -156 -6 -15 -6 -15 21 -12 21 -11 30 -2 29 -2 -8 -8 -8 -8 -45 16 -46 15 -28 -15 -29 -15 -20 1 -20 1 35 9 35 10 18 21 17 20 -1 177 -1 176 -7 25 -7 25 -49 6 -50 6 46 1 47 2 9 -12m2017 -9 l26 -21 14 -27 14 -26 7 -48 7 -47 26 -20 25 -20 -8 0 -8 0 -19 17 -19 17 -19 -12 -20 -12 -141 0 -142 0 5 -65 6 -64 18 -32 19 -32 28 -21 28 -21 69 1 69 0 28 14 28 14 25 21 25 20 -20 -23 -19 -23 -35 -16 -34 -17 -68 0 -68 -1 -28 21 -28 21 -22 32 -22 32 -7 47 -7 47 11 78 12 79 20 33 21 33 32 21 32 21 56 0 56 0 27 -21m1454 9 l10 -13 7 -32 7 -33 3 0 4 0 28 12 28 12 31 23 31 23 45 6 46 6 12 -22 12 -22 -13 -12 -12 -11 7 12 6 11 -6 17 -7 17 -45 -6 -45 -6 -31 -23 -31 -23 -32 -13 -33 -13 0 -153 0 -153 -5 -14 -6 -14 25 -14 25 -13 29 -1 30 -1 -5 -8 -5 -8 -31 7 -31 7 -17 10 -17 10 -35 -16 -35 -17 -19 1 -18 1 35 9 35 10 18 21 17 20 -1 177 -1 176 -7 25 -7 25 -49 6 -50 6 46 1 47 2 10 -12m676 -9 l26 -21 14 -27 14 -26 7 -48 7 -47 26 -20 25 -20 -8 0 -8 0 -19 17 -19 17 -19 -12 -20 -12 -141 0 -142 0 5 -65 6 -64 18 -32 19 -32 28 -21 28 -21 69 1 69 0 28 14 28 14 25 21 25 20 -20 -23 -19 -23 -35 -16 -34 -17 -68 0 -68 -1 -28 21 -28 21 -22 32 -22 32 -7 47 -7 47 11 78 12 79 20 33 21 33 32 21 32 21 56 0 56 0 27 -21m530 0 l26 -21 14 -27 14 -26 7 -48 7 -47 26 -20 25 -20 -8 0 -8 0 -19 17 -19 17 -19 -12 -20 -12 -141 0 -142 0 5 -65 6 -64 18 -32 19 -32 28 -21 28 -21 69 1 69 0 28 14 28 14 25 21 25 20 -20 -23 -19 -23 -35 -16 -34 -17 -68 0 -68 -1 -28 21 -28 21 -22 32 -22 32 -7 47 -7 47 11 78 12 79 20 33 21 33 32 21 32 21 56 0 56 0 27 -21" fill="none" stroke="red" stroke-width="1mm" /><path d="M4902 690 l-33 -8 -22 -19 -22 -20 -32 -13 -33 -12 0 -168 0 -167 38 -11 37 -11 52 -7 52 -6 34 6 33 6 31 30 31 30 12 48 12 47 -1 81 0 80 -17 42 -16 42 -26 20 -25 20 -36 -1 -36 -1 -33 -8" fill="none" stroke="red" stroke-width="1mm" /><path d="M3400 473 l-15 -5 -42 -20 -41 -19 -11 -31 -11 -31 0 -33 0 -33 26 -20 27 -21 41 0 41 0 35 20 35 19 38 17 37 17 0 74 0 73 -72 -1 -73 -1 -15 -5" fill="none" stroke="red" stroke-width="1mm" /><path d="M5696 691 l-29 -19 -18 -29 -17 -28 -10 -52 -9 -53 142 0 143 0 12 15 12 14 -7 43 -7 43 -14 27 -14 27 -22 15 -22 16 -56 0 -55 0 -29 -19" fill="none" stroke="red" stroke-width="1mm" /><path d="M7826 691 l-29 -19 -18 -29 -17 -28 -10 -52 -9 -53 142 0 143 0 12 15 12 14 -7 43 -7 43 -14 27 -14 27 -22 15 -22 16 -56 0 -55 0 -29 -19" fill="none" stroke="red" stroke-width="1mm" /><path d="M8356 691 l-29 -19 -18 -29 -17 -28 -10 -52 -9 -53 142 0 143 0 12 15 12 14 -7 43 -7 43 -14 27 -14 27 -22 15 -22 16 -56 0 -55 0 -29 -19" fill="none" stroke="red" stroke-width="1mm" /></g><g transform="translate(9024.720472440946,4953.920472440945) scale(1,-1) translate(0,-1388.0)"><path d="M0 480 l0 -480 1570 0 1570 0 0 480 0 480 -1570 0 -1570 0 0 -480m2627 444 l34 -17 12 12 11 11 106 0 105 0 42 -19 42 -19 15 -31 16 -30 0 -41 0 -41 -14 -32 -14 -32 -31 -29 -31 -30 0 -17 0 -17 36 -27 36 -28 14 -33 14 -33 0 -46 0 -46 -20 -38 -19 -39 -38 -23 -38 -24 -108 -4 -108 -3 -19 17 -20 18 -17 -16 -18 -15 -40 -6 -40 -6 41 13 41 12 17 14 16 13 0 303 0 303 -14 11 -14 12 -43 8 -44 9 28 1 29 1 35 -16m-357 -30 l-10 -25 0 -195 0 -195 67 3 67 3 12 23 11 22 7 7 7 7 -7 -19 -7 -20 -15 -17 -15 -18 -64 0 -63 0 0 -95 0 -94 20 -11 20 -11 30 -2 29 -2 -8 -8 -8 -8 -47 16 -47 16 -12 -9 -12 -10 -40 -6 -40 -6 40 13 40 12 13 8 12 8 0 95 0 94 -132 2 -133 2 -25 -1 -25 -1 21 10 22 10 6 27 5 26 93 140 93 140 36 17 37 17 10 31 11 30 5 0 6 0 -10 -26m-1905 5 l-7 -10 15 -17 14 -17 43 -145 42 -145 29 -96 29 -96 0 -30 0 -29 13 -18 13 -17 54 -20 55 -19 -35 6 -35 7 -32 15 -33 15 -17 -15 -18 -16 -40 -6 -40 -6 41 13 41 12 16 13 15 13 -5 42 -5 42 -20 68 -20 67 -7 0 -7 0 -11 -11 -11 -11 -130 4 -131 3 -20 -52 -20 -52 -7 -60 -7 -61 18 -6 17 -7 28 -1 28 -1 -5 -8 -5 -8 -31 7 -32 6 -12 10 -11 9 -52 -17 -51 -17 -5 5 -5 5 43 12 43 11 11 7 11 8 10 66 11 66 26 55 26 55 0 12 0 12 52 142 51 142 36 37 36 36 3 1 3 1 -6 -11m1055 -129 l-6 -60 101 -2 100 -2 -102 -3 -103 -4 0 -127 1 -127 9 -70 9 -70 27 -23 27 -23 41 6 41 7 29 14 28 13 -12 -14 -12 -14 -55 -11 -56 -12 -26 19 -26 20 -14 28 -14 28 -5 179 -5 178 -6 0 -6 -1 -42 -8 -42 -8 5 8 5 9 24 0 24 0 25 10 26 10 0 48 0 49 7 6 6 7 2 0 1 0 -6 -60m-578 -53 l-22 -23 0 -32 0 -32 8 0 7 1 31 17 31 17 25 17 24 18 60 6 60 6 31 -26 31 -26 17 -42 16 -42 0 -80 1 -81 -13 -48 -12 -49 -35 -34 -35 -34 -35 -6 -36 -7 -65 11 -66 11 -22 7 -23 6 0 -110 0 -111 20 -11 20 -11 30 -2 29 -2 -8 -8 -8 -8 -47 16 -47 16 -12 -9 -12 -9 -40 -6 -40 -6 35 10 35 11 15 7 15 8 3 326 2 327 -22 5 -23 5 -25 4 -25 4 56 -4 57 -3 12 14 12 15 6 0 5 0 -21 -23" fill="none" stroke="red" stroke-width="1mm" /><path d="M2672 908 l-12 -12 0 -144 0 -143 121 2 122 2 36 40 36 39 12 26 12 27 1 43 0 43 -15 28 -14 29 -41 16 -40 16 -103 0 -103 0 -12 -12" fill="none" stroke="red" stroke-width="1mm" /><path d="M2763 602 l-103 -3 0 -158 0 -159 15 -12 15 -12 107 4 108 3 33 20 34 20 19 37 19 37 0 44 0 44 -11 31 -11 31 -41 34 -42 34 -20 4 -20 4 -102 -3" fill="none" stroke="red" stroke-width="1mm" /><path d="M2211 832 l-35 -17 -93 -144 -93 -144 0 -24 0 -23 130 0 130 0 0 185 0 185 -2 0 -3 -1 -34 -17" fill="none" stroke="red" stroke-width="1mm" /><path d="M324 852 l-22 -17 -51 -142 -51 -142 0 -26 0 -25 124 0 124 0 11 14 12 14 -11 43 -10 44 -38 125 -39 125 -14 2 -14 3 -21 -18" fill="none" stroke="red" stroke-width="1mm" /><path d="M962 690 l-33 -8 -22 -19 -22 -20 -32 -13 -33 -12 0 -168 0 -167 38 -11 37 -11 52 -7 52 -6 34 6 33 6 31 30 31 30 12 48 12 47 -1 81 0 80 -17 42 -16 42 -26 20 -25 20 -36 -1 -36 -1 -33 -8" fill="none" stroke="red" stroke-width="1mm" /></g><g transform="translate(236.22047244094574,6272.520472440945) scale(1,-1) translate(0,-1288.0)"><path d="M0 455 l0 -455 6270 0 6270 0 0 455 0 455 -6270 0 -6270 0 0 -455m11814 423 l-6 -23 -16 -17 -15 -18 -144 0 -144 0 3 -142 3 -143 50 5 50 5 51 0 51 0 37 -29 38 -29 14 -33 14 -33 0 -64 0 -64 -23 -43 -23 -44 -45 -24 -44 -24 -70 5 -70 4 -37 23 -38 22 0 23 0 24 8 5 8 5 -3 -27 -4 -27 33 -19 33 -19 67 -5 66 -5 46 22 45 22 21 45 22 45 -4 74 -3 74 -21 27 -20 28 -38 19 -37 20 -82 -10 -82 -10 -13 10 -13 10 3 141 3 141 150 5 150 5 14 33 15 32 3 0 4 0 -7 -22m-9564 -3 l30 -16 0 -146 0 -146 34 6 35 6 28 20 28 21 55 6 55 6 30 -32 30 -31 3 -185 3 -184 20 -10 19 -11 30 -2 29 -2 -8 -8 -8 -8 -45 16 -46 15 -28 -15 -29 -15 -20 1 -20 1 35 10 35 10 13 11 13 10 -3 183 -3 182 -25 27 -25 27 -55 -6 -55 -6 -28 -21 -28 -20 -35 -6 -34 -6 0 -177 0 -178 14 -11 14 -12 30 -2 30 -2 -5 -8 -5 -8 -21 6 -22 6 -22 11 -22 11 -13 -11 -13 -10 -40 -6 -40 -6 40 13 40 12 13 8 12 8 0 328 0 329 -27 10 -28 11 -30 4 -30 4 33 2 33 1 29 -15m2400 0 l30 -16 0 -146 0 -146 34 6 35 6 28 20 28 21 55 6 55 6 30 -32 30 -31 3 -185 3 -184 20 -10 19 -11 30 -2 29 -2 -8 -8 -8 -8 -45 16 -46 15 -28 -15 -29 -15 -20 1 -20 1 35 10 35 10 13 11 13 10 -3 183 -3 182 -25 27 -25 27 -55 -6 -55 -6 -28 -21 -28 -20 -35 -6 -34 -6 0 -177 0 -178 14 -11 14 -12 30 -2 30 -2 -5 -8 -5 -8 -21 6 -22 6 -22 11 -22 11 -13 -11 -13 -10 -40 -6 -40 -6 40 13 40 12 13 8 12 8 0 328 0 329 -27 10 -28 11 -30 4 -30 4 33 2 33 1 29 -15m1890 2 l25 -13 5 -333 5 -333 20 -14 20 -15 32 3 32 4 -5 -8 -5 -8 -27 0 -28 0 -22 16 -22 15 0 30 0 29 -13 0 -13 0 -48 -30 -48 -31 -49 -10 -50 -11 -30 13 -30 12 -24 31 -24 32 -12 54 -11 53 6 66 7 65 18 41 18 40 38 33 38 34 81 -5 81 -5 28 -7 27 -7 0 120 0 121 -10 6 -10 6 -42 8 -43 9 30 1 30 1 25 -13m-5874 -14 l-8 -8 -36 -10 -37 -11 0 -250 0 -251 -13 -15 -12 -15 11 -53 11 -52 -8 -8 -9 -9 -1 32 0 32 -7 25 -6 25 -29 16 -28 16 -128 215 -128 214 -31 12 -30 11 -8 -5 -9 -5 0 -289 0 -288 35 -12 35 -11 12 7 13 7 -12 -13 -11 -12 -36 12 -35 11 -38 -10 -38 -11 -15 1 -15 1 45 12 45 12 3 289 2 289 10 10 10 10 0 18 0 17 -22 12 -23 13 -35 7 -35 7 28 1 28 1 30 -15 30 -16 9 -24 9 -24 26 -7 26 -6 131 -220 131 -220 23 -10 23 -11 16 13 15 12 -7 252 -6 251 -4 4 -3 5 -43 7 -42 6 33 2 33 1 18 -9 18 -10 44 14 44 14 4 0 4 1 -7 -7m7850 -2 l-6 -9 -34 -6 -33 -6 -14 -18 -14 -17 3 -302 3 -303 20 -10 19 -11 30 -2 29 -2 -7 -7 -8 -8 -36 11 -37 10 -6 9 -6 10 -37 -20 -37 -20 -20 1 -20 1 20 5 20 5 33 15 32 15 0 289 0 289 -7 0 -8 0 -31 -19 -31 -19 -74 -188 -73 -187 -28 -16 -28 -16 0 -32 0 -32 -8 -5 -8 -5 4 34 4 34 -19 25 -20 24 -69 196 -69 196 -27 11 -27 11 -10 -7 -11 -6 0 -294 0 -293 35 -12 35 -11 12 7 13 7 -12 -13 -11 -12 -36 12 -35 11 -38 -10 -38 -11 -15 1 -15 1 45 12 45 12 3 294 2 294 16 17 16 17 -27 18 -27 17 -36 8 -37 7 31 1 31 1 34 -25 34 -25 29 -19 30 -20 72 -202 72 -201 11 -11 11 -11 27 10 28 9 72 185 73 185 27 22 28 22 35 35 35 35 35 10 35 9 3 1 3 1 -5 -9m-5399 -17 l34 -17 12 12 11 11 106 0 105 0 42 -19 42 -19 15 -31 16 -30 0 -41 0 -41 -14 -32 -14 -32 -31 -29 -31 -30 0 -17 0 -17 36 -27 36 -28 14 -33 14 -33 0 -46 0 -46 -20 -38 -19 -39 -38 -23 -38 -24 -108 -4 -108 -3 -19 17 -20 18 -17 -16 -18 -15 -40 -6 -40 -6 41 13 41 12 17 14 16 13 0 303 0 303 -14 11 -14 12 -43 8 -44 9 28 1 29 1 35 -16m5618 0 l29 -15 23 12 22 12 93 -5 93 -5 40 -21 40 -20 32 -34 32 -33 23 -50 22 -50 0 -120 -1 -120 -30 -66 -30 -65 -39 -32 -39 -33 -49 -14 -50 -15 -75 0 -74 0 -19 17 -18 16 -17 -16 -18 -15 -40 -6 -40 -6 41 13 41 12 17 14 16 13 0 303 0 303 -14 11 -14 12 -43 8 -44 9 30 1 30 1 30 -16m1206 -20 l30 -31 9 -39 9 -40 -13 -55 -13 -56 -29 -40 -29 -41 -93 -107 -93 -107 -8 -21 -8 -22 -8 -33 -7 -33 158 3 158 3 11 42 10 42 7 6 6 7 -10 -44 -11 -43 -9 -12 -10 -12 -166 -3 -167 -3 -20 -8 -20 -8 26 15 27 16 12 50 12 50 96 111 97 111 29 41 29 40 13 56 13 55 -9 40 -9 39 -25 26 -26 26 -73 3 -72 4 -45 -25 -45 -24 -11 -21 -11 -22 -6 -6 -6 -6 6 21 6 22 31 24 32 24 24 10 25 11 73 -3 72 -2 31 -31m576 15 l33 -21 15 -28 15 -28 17 -49 16 -48 1 -140 0 -140 -13 -55 -14 -55 -22 -35 -22 -35 -21 -18 -20 -18 -53 -6 -54 -5 -35 24 -35 24 -22 40 -23 41 -16 84 -16 84 6 80 5 80 10 55 10 54 24 46 23 45 34 23 33 22 45 0 45 0 34 -21m645 -11 l36 -28 12 -36 12 -36 -4 -49 -5 -49 -37 -46 -36 -47 0 -12 0 -11 35 -34 35 -34 0 -17 0 -18 10 -6 10 -6 0 -45 0 -44 -21 -44 -20 -43 -22 -20 -22 -20 -34 -12 -34 -11 -46 0 -47 0 -44 22 -45 23 -24 44 -24 43 0 52 0 51 16 30 15 30 22 20 22 20 10 18 9 18 -35 39 -35 39 -11 40 -11 41 12 42 11 42 20 26 20 25 31 18 32 17 76 -2 76 -3 35 -27m1179 -4 l30 -31 9 -39 9 -40 -13 -55 -13 -56 -29 -40 -29 -41 -93 -107 -93 -107 -8 -21 -8 -22 -8 -33 -7 -33 158 3 158 3 11 42 10 42 7 6 6 7 -10 -44 -11 -43 -9 -12 -10 -12 -166 -3 -167 -3 -20 -8 -20 -8 26 15 27 16 12 50 12 50 96 111 97 111 29 41 29 40 13 56 13 55 -9 40 -9 39 -25 26 -26 26 -73 3 -72 4 -45 -25 -45 -24 -11 -21 -11 -22 -6 -6 -6 -6 6 21 6 22 31 24 32 24 24 10 25 11 73 -3 72 -2 31 -31m-10431 -134 l-6 -60 101 -2 100 -2 -102 -3 -103 -4 0 -127 1 -127 9 -70 9 -70 27 -23 27 -23 41 6 41 7 29 14 28 13 -12 -14 -12 -14 -55 -11 -56 -12 -26 19 -26 20 -14 28 -14 28 -5 179 -5 178 -6 0 -6 -1 -42 -8 -42 -8 5 8 5 9 24 0 24 0 25 10 26 10 0 48 0 49 7 6 6 7 2 0 1 0 -6 -60m2400 0 l-6 -60 101 -2 100 -2 -102 -3 -103 -4 0 -127 1 -127 9 -70 9 -70 27 -23 27 -23 41 6 41 7 29 14 28 13 -12 -14 -12 -14 -55 -11 -56 -12 -26 19 -26 20 -14 28 -14 28 -5 179 -5 178 -6 0 -6 -1 -42 -8 -42 -8 5 8 5 9 24 0 24 0 25 10 26 10 0 48 0 49 7 6 6 7 2 0 1 0 -6 -60m-3189 -74 l36 -25 17 -36 17 -35 9 -54 9 -54 -10 -69 -9 -68 -28 -40 -28 -40 -34 -18 -35 -18 -56 3 -55 4 -31 22 -31 22 -24 48 -23 47 1 95 1 95 21 41 21 41 36 31 36 32 62 0 62 0 36 -24m327 12 l10 -13 7 -32 7 -33 3 0 4 0 28 12 28 12 31 23 31 23 45 6 46 6 12 -22 12 -22 -13 -12 -12 -11 7 12 6 11 -6 17 -7 17 -45 -6 -45 -6 -31 -23 -31 -23 -32 -13 -33 -13 0 -153 0 -153 -5 -14 -6 -14 25 -14 25 -13 29 -1 30 -1 -5 -8 -5 -8 -31 7 -31 7 -17 10 -17 10 -35 -16 -35 -17 -19 1 -18 1 35 9 35 10 18 21 17 20 -1 177 -1 176 -7 25 -7 25 -49 6 -50 6 46 1 47 2 10 -12m2546 -9 l26 -21 14 -27 14 -26 7 -48 7 -47 26 -20 25 -20 -8 0 -8 0 -19 17 -19 17 -19 -12 -20 -12 -141 0 -142 0 5 -65 6 -64 18 -32 19 -32 28 -21 28 -21 69 1 69 0 28 14 28 14 25 21 25 20 -20 -23 -19 -23 -35 -16 -34 -17 -68 0 -68 -1 -28 21 -28 21 -22 32 -22 32 -7 47 -7 47 11 78 12 79 20 33 21 33 32 21 32 21 56 0 56 0 27 -21m1500 0 l26 -21 14 -27 14 -26 7 -48 7 -47 26 -20 25 -20 -8 0 -8 0 -19 17 -19 17 -19 -12 -20 -12 -141 0 -142 0 5 -65 6 -64 18 -32 19 -32 28 -21 28 -21 69 1 69 0 28 14 28 14 25 21 25 20 -20 -23 -19 -23 -35 -16 -34 -17 -68 0 -68 -1 -28 21 -28 21 -22 32 -22 32 -7 47 -7 47 11 78 12 79 20 33 21 33 32 21 32 21 56 0 56 0 27 -21m520 0 l26 -20 -1 -17 0 -17 -9 22 -9 22 -20 10 -20 11 -70 0 -69 0 -30 -25 -30 -25 -6 -36 -7 -36 16 -24 15 -24 88 -44 87 -44 21 -23 21 -24 6 -23 5 -22 -9 -33 -9 -33 -25 -24 -25 -23 -77 -4 -78 -4 -33 20 -33 21 -6 16 -6 15 11 11 11 11 -6 -21 -5 -21 33 -20 34 -21 60 1 60 1 24 7 24 6 20 27 20 26 0 41 0 41 -19 21 -19 21 -86 44 -87 43 -22 28 -21 27 6 36 6 35 34 33 35 32 74 0 73 0 27 -21m1058 -8 l33 -29 6 -194 7 -193 1 -2 1 -2 37 -10 36 -10 11 6 11 6 -11 -12 -11 -12 -39 13 -39 13 -3 28 -4 29 -26 -7 -27 -6 -38 -26 -38 -26 -52 -5 -53 -4 -32 27 -32 27 0 34 0 35 14 33 14 33 48 24 49 24 84 3 83 4 -4 86 -5 85 -27 24 -27 23 -55 0 -55 0 -37 -19 -37 -19 -19 -21 -19 -21 -9 0 -9 0 33 29 33 28 30 16 30 16 57 1 58 0 32 -29m294 -443 l-12 -63 -11 -20 -11 -20 -24 -20 -23 -20 21 25 22 25 10 20 10 20 7 50 8 50 4 8 4 7 3 0 4 0 -12 -62" fill="none" stroke="red" stroke-width="1mm" /><path d="M6306 600 l-35 -31 -18 -47 -18 -47 0 -90 0 -90 21 -40 21 -40 32 -19 32 -19 52 11 52 11 57 33 57 33 1 170 0 171 -45 12 -45 12 -65 0 -64 0 -35 -30" fill="none" stroke="red" stroke-width="1mm" /><path d="M3162 828 l-12 -12 0 -144 0 -143 121 2 122 2 36 40 36 39 12 26 12 27 1 43 0 43 -15 28 -14 29 -41 16 -40 16 -103 0 -103 0 -12 -12" fill="none" stroke="red" stroke-width="1mm" /><path d="M3253 522 l-103 -3 0 -158 0 -159 15 -12 15 -12 107 4 108 3 33 20 34 20 19 37 19 37 0 44 0 44 -11 31 -11 31 -41 34 -42 34 -20 4 -20 4 -102 -3" fill="none" stroke="red" stroke-width="1mm" /><path d="M8783 829 l-13 -13 0 -306 0 -306 12 -12 12 -12 76 0 77 0 47 14 47 14 36 28 36 27 30 66 30 66 1 120 0 120 -22 50 -23 50 -27 28 -27 29 -40 21 -40 20 -100 5 -100 4 -12 -13" fill="none" stroke="red" stroke-width="1mm" /><path d="M10364 831 l-31 -19 -22 -45 -22 -45 -10 -54 -10 -53 -5 -80 -6 -80 16 -82 16 -83 20 -40 21 -41 32 -20 32 -20 53 5 53 5 16 13 16 13 22 35 22 35 14 55 13 55 0 140 -1 140 -15 45 -16 45 -13 28 -12 27 -32 20 -32 20 -44 0 -44 0 -31 -19" fill="none" stroke="red" stroke-width="1mm" /><path d="M10945 833 l-29 -16 -17 -21 -18 -21 -11 -43 -11 -43 11 -40 11 -40 34 -38 34 -37 88 -3 88 -2 39 52 40 51 3 57 4 56 -18 34 -18 34 -35 19 -35 18 -65 0 -65 -1 -30 -16" fill="none" stroke="red" stroke-width="1mm" /><path d="M10921 487 l-36 -39 -14 -26 -14 -26 0 -51 0 -50 22 -43 22 -44 42 -19 42 -19 46 0 46 0 34 11 34 12 17 14 17 15 20 44 21 44 0 44 0 45 -10 6 -10 6 0 18 0 17 -37 36 -38 36 -84 4 -85 3 -35 -38" fill="none" stroke="red" stroke-width="1mm" /><path d="M930 604 l-31 -27 -21 -41 -21 -41 -1 -95 -1 -95 25 -49 25 -49 35 -18 35 -19 43 0 43 0 34 14 34 14 25 39 25 38 10 68 10 69 -9 54 -9 54 -17 35 -16 35 -33 20 -32 20 -61 0 -60 0 -32 -26" fill="none" stroke="red" stroke-width="1mm" /><path d="M3826 611 l-29 -19 -18 -29 -17 -28 -10 -52 -9 -53 142 0 143 0 12 15 12 14 -7 43 -7 43 -14 27 -14 27 -22 15 -22 16 -56 0 -55 0 -29 -19" fill="none" stroke="red" stroke-width="1mm" /><path d="M5326 611 l-29 -19 -18 -29 -17 -28 -10 -52 -9 -53 142 0 143 0 12 15 12 14 -7 43 -7 43 -14 27 -14 27 -22 15 -22 16 -56 0 -55 0 -29 -19" fill="none" stroke="red" stroke-width="1mm" /><path d="M6940 393 l-15 -5 -42 -20 -41 -19 -11 -31 -11 -31 0 -33 0 -33 26 -20 27 -21 41 0 41 0 35 20 35 19 38 17 37 17 0 74 0 73 -72 -1 -73 -1 -15 -5" fill="none" stroke="red" stroke-width="1mm" /></g></svg>