<?xml version="1.0" encoding="utf-8" ?>
<svg baseProfile="full" height="5127.64094488189px" version="1.1" viewBox="0 0 10833.44094488189 5127.64094488189" width="10833.44094488189px" xmlns="http://www.w3.org/2000/svg" xmlns:ev="http://www.w3.org/2001/xml-events" xmlns:xlink="http://www.w3.org/1999/xlink"><defs /><g transform="translate(236.22047244094483,236.2204724409449) scale(1,-1) translate(0,-3209.0)"><path d="M7425 2116 c-22 -13 -73 -63 -113 -110 -40 -47 -80 -86 -90 -86 -9 0 -49 -11 -88 -24 -38 -13 -193 -52 -343 -85 -418 -94 -504 -128 -643 -259 -89 -85 -131 -167 -136 -267 -3 -54 0 -75 13 -90 16 -19 16 -19 4 4 -40 83 19 249 125 349 134 125 223 160 632 252 148 33 306 72 351 87 46 14 86 24 89 20 4 -3 -14 -41 -39 -84 -58 -101 -121 -228 -238 -478 -334 -717 -512 -979 -744 -1093 -246 -121 -465 -4 -465 248 0 329 258 578 667 645 82 14 84 14 22 10 -321 -24 -612 -244 -684 -515 -73 -275 98 -491 347 -439 293 62 496 341 929 1274 41 88 96 201 123 250 27 50 61 113 76 141 43 80 158 212 215 245 28 16 46 29 40 29 -5 0 -28 -11 -50 -24z" fill="none" stroke="red" stroke-width="1mm" /><path d="M7363 2003 c4 -3 10 -3 14 0 3 4 0 7 -7 7 -7 0 -10 -3 -7 -7z" fill="none" stroke="red" stroke-width="1mm" /><path d="M1661 1854 c-64 -59 -78 -81 -134 -195 -51 -107 -65 -129 -84 -129 -12 0 -24 -4 -27 -9 -4 -5 3 -7 14 -4 31 8 26 -17 -39 -198 -185 -514 -329 -742 -539 -852 -280 -147 -574 -79 -687 159 -45 95 -56 154 -28 154 11 0 42 12 69 26 27 15 159 85 294 156 435 231 890 505 890 535 0 3 -28 -15 -62 -40 -165 -117 -446 -282 -828 -485 -135 -71 -267 -141 -294 -156 -84 -45 -89 -41 -84 62 19 342 330 617 649 572 39 -6 76 -13 83 -17 8 -4 8 -2 1 5 -6 6 -43 16 -83 22 -330 46 -645 -240 -660 -600 l-4 -105 -45 -20 c-25 -11 -47 -23 -49 -27 -7 -10 25 2 53 20 26 16 53 10 53 -13 0 -9 16 -48 35 -88 116 -246 414 -319 697 -170 224 118 395 400 584 963 59 178 158 362 230 429 71 66 118 82 127 41 4 -17 4 -16 3 2 -1 18 -8 24 -33 26 -27 3 -41 -6 -102 -64z" fill="none" stroke="red" stroke-width="1mm" /><path d="M1754 1798 c-4 -7 -3 -8 4 -4 12 7 16 16 8 16 -3 0 -8 -5 -12 -12z" fill="none" stroke="red" stroke-width="1mm" /><path d="M4623 1793 c9 -2 25 -2 35 0 9 3 1 5 -18 5 -19 0 -27 -2 -17 -5z" fill="none" stroke="red" stroke-width="1mm" /><path d="M8708 1771 c-132 -84 -416 -444 -506 -641 -14 -30 -37 -73 -52 -95 -83 -125 -96 -346 -21 -345 10 0 7 5 -8 13 -29 14 -44 58 -36 107 22 136 85 269 128 271 17 1 18 2 5 6 -33 8 -11 55 123 255 190 283 354 448 446 448 31 0 33 -2 33 -35 0 -20 -7 -50 -16 -66 -8 -17 -14 -33 -11 -35 10 -10 38 76 35 107 -4 48 -53 52 -120 10z" fill="none" stroke="red" stroke-width="1mm" /><path d="M4510 1758 c-90 -45 -240 -202 -240 -252 0 -19 -16 -29 -55 -33 -135 -14 -354 -130 -457 -242 -84 -90 -116 -155 -158 -318 -6 -26 -17 -43 -25 -43 -19 0 -91 -144 -112 -223 -21 -85 -14 -224 16 -292 43 -98 194 -217 271 -214 19 1 16 3 -13 10 -254 60 -350 336 -215 622 45 95 64 108 73 50 24 -145 53 -210 127 -279 223 -208 640 -105 770 190 108 247 7 453 -244 498 -68 12 -68 10 -32 127 34 113 46 131 87 131 35 0 223 55 231 68 2 4 -39 -7 -92 -25 -99 -33 -162 -41 -162 -22 0 48 148 198 242 243 40 20 68 36 62 36 -6 0 -39 -14 -74 -32z m-270 -290 c0 -2 -14 -46 -30 -98 -17 -51 -30 -101 -30 -111 0 -13 -15 -17 -77 -22 -43 -3 -103 -15 -134 -26 -61 -21 -161 -71 -142 -71 7 0 27 9 46 20 56 33 148 60 225 67 l73 6 -8 -44 c-13 -73 -9 -319 6 -377 20 -78 23 -58 5 29 -12 55 -15 108 -11 209 7 184 7 183 71 175 252 -35 357 -242 248 -490 -145 -329 -650 -396 -818 -109 -68 116 -79 308 -20 357 15 12 16 16 4 11 -15 -5 -16 -2 -8 27 45 157 196 304 393 385 89 36 208 71 207 62z" fill="none" stroke="red" stroke-width="1mm" /><path d="M3793 1123 c4 -3 10 -3 14 0 3 4 0 7 -7 7 -7 0 -10 -3 -7 -7z" fill="none" stroke="red" stroke-width="1mm" /><path d="M3759 1093 c-13 -16 -12 -17 4 -4 16 13 21 21 13 21 -2 0 -10 -8 -17 -17z" fill="none" stroke="red" stroke-width="1mm" /><path d="M1684 1728 c-4 -7 -3 -8 4 -4 12 7 16 16 8 16 -3 0 -8 -5 -12 -12z" fill="none" stroke="red" stroke-width="1mm" /><path d="M1613 1673 c4 -3 10 -3 14 0 3 4 0 7 -7 7 -7 0 -10 -3 -7 -7z" fill="none" stroke="red" stroke-width="1mm" /><path d="M4673 1643 c4 -3 10 -3 14 0 3 4 0 7 -7 7 -7 0 -10 -3 -7 -7z" fill="none" stroke="red" stroke-width="1mm" /><path d="M1563 1633 c4 -3 10 -3 14 0 3 4 0 7 -7 7 -7 0 -10 -3 -7 -7z" fill="none" stroke="red" stroke-width="1mm" /><path d="M8763 1623 c4 -3 10 -3 14 0 3 4 0 7 -7 7 -7 0 -10 -3 -7 -7z" fill="none" stroke="red" stroke-width="1mm" /><path d="M4585 1590 c-16 -7 -17 -9 -3 -9 9 -1 20 4 23 9 7 11 7 11 -20 0z" fill="none" stroke="red" stroke-width="1mm" /><path d="M8744 1588 c-4 -7 -3 -8 4 -4 12 7 16 16 8 16 -3 0 -8 -5 -12 -12z" fill="none" stroke="red" stroke-width="1mm" /><path d="M8704 1538 c-4 -7 -3 -8 4 -4 12 7 16 16 8 16 -3 0 -8 -5 -12 -12z" fill="none" stroke="red" stroke-width="1mm" /><path d="M8585 1408 l-70 -73 73 70 c39 38 72 71 72 72 0 8 -11 -2 -75 -69z" fill="none" stroke="red" stroke-width="1mm" /><path d="M8419 1253 c-13 -16 -12 -17 4 -4 9 7 17 15 17 17 0 8 -8 3 -21 -13z" fill="none" stroke="red" stroke-width="1mm" /><path d="M8344 1188 c-4 -7 -3 -8 4 -4 12 7 16 16 8 16 -3 0 -8 -5 -12 -12z" fill="none" stroke="red" stroke-width="1mm" /><path d="M6553 1163 c26 -2 68 -2 95 0 26 2 4 3 -48 3 -52 0 -74 -1 -47 -3z" fill="none" stroke="red" stroke-width="1mm" /><path d="M6758 1153 c12 -2 30 -2 40 0 9 3 -1 5 -23 4 -22 0 -30 -2 -17 -4z" fill="none" stroke="red" stroke-width="1mm" /><path d="M8284 1138 c-4 -7 -3 -8 4 -4 12 7 16 16 8 16 -3 0 -8 -5 -12 -12z" fill="none" stroke="red" stroke-width="1mm" /><path d="M6933 1133 c9 -2 23 -2 30 0 6 3 -1 5 -18 5 -16 0 -22 -2 -12 -5z" fill="none" stroke="red" stroke-width="1mm" /><path d="M7585 1121 c-16 -10 -45 -35 -64 -54 l-34 -36 27 -31 c35 -42 33 -58 -14 -147 -45 -86 -49 -112 -20 -138 20 -18 83 -16 102 3 6 6 -9 5 -32 -1 -87 -24 -99 21 -39 139 40 77 43 86 32 115 -10 26 -10 36 0 48 11 14 10 14 -6 2 -13 -11 -21 -11 -29 -3 -16 16 43 78 97 103 22 10 33 19 25 19 -8 0 -28 -9 -45 -19z" fill="none" stroke="red" stroke-width="1mm" /><path d="M1662 1078 c-81 -42 -167 -152 -133 -172 4 -3 6 5 4 19 -7 32 69 113 139 148 29 14 49 26 43 26 -5 1 -29 -9 -53 -21z" fill="none" stroke="red" stroke-width="1mm" /><path d="M2263 1093 c9 -2 17 -10 17 -18 0 -21 -61 -148 -85 -175 -24 -27 -41 -65 -25 -55 6 3 10 11 10 18 0 6 11 22 24 36 31 35 90 166 83 186 -4 8 -14 14 -24 14 -17 -1 -17 -2 0 -6z" fill="none" stroke="red" stroke-width="1mm" /><path d="M8053 1085 c-18 -8 -60 -40 -93 -73 -57 -55 -61 -62 -58 -98 2 -32 7 -39 26 -40 18 -1 19 -1 2 3 -78 17 44 178 159 209 29 8 37 13 21 13 -14 0 -40 -6 -57 -14z" fill="none" stroke="red" stroke-width="1mm" /><path d="M8702 1078 c-81 -42 -167 -152 -133 -172 4 -3 6 5 4 19 -7 32 69 113 139 148 29 14 49 26 43 26 -5 1 -29 -9 -53 -21z" fill="none" stroke="red" stroke-width="1mm" /><path d="M1785 1080 c3 -5 8 -10 11 -10 3 0 2 5 -1 10 -3 6 -8 10 -11 10 -3 0 -2 -4 1 -10z" fill="none" stroke="red" stroke-width="1mm" /><path d="M8825 1080 c3 -5 8 -10 11 -10 3 0 2 5 -1 10 -3 6 -8 10 -11 10 -3 0 -2 -4 1 -10z" fill="none" stroke="red" stroke-width="1mm" /><path d="M7184 1028 c-2 -77 -48 -91 -48 -13 0 20 -3 30 -7 22 -4 -7 -23 -29 -42 -50 -37 -39 -63 -98 -53 -122 6 -16 51 -21 60 -7 3 5 -9 6 -26 4 -30 -5 -31 -4 -24 29 12 64 85 145 86 97 1 -31 77 -79 123 -77 12 0 1 6 -26 13 -56 15 -64 21 -48 39 14 18 26 103 15 110 -5 3 -9 -17 -10 -45z" fill="none" stroke="red" stroke-width="1mm" /><path d="M2083 1008 c-22 -35 -46 -81 -52 -103 -6 -22 -24 -64 -40 -93 -16 -28 -25 -50 -20 -46 14 8 65 114 73 150 4 17 18 47 32 65 26 34 57 89 51 89 -1 0 -21 -28 -44 -62z" fill="none" stroke="red" stroke-width="1mm" /><path d="M9123 1018 c-19 -25 -62 -113 -67 -138 -3 -14 -15 -35 -26 -48 -11 -12 -17 -22 -12 -22 6 0 18 12 28 28 9 15 25 33 33 40 9 8 10 11 4 7 -8 -4 -13 0 -13 9 0 31 11 43 36 38 19 -3 36 6 74 42 63 59 92 61 119 9 24 -47 65 -87 83 -80 9 4 8 6 -4 6 -18 1 -53 41 -80 90 -25 45 -58 41 -117 -14 -27 -26 -58 -45 -70 -45 l-23 0 25 45 c25 44 29 57 10 33z" fill="none" stroke="red" stroke-width="1mm" /><path d="M1694 978 c-81 -87 -95 -229 -23 -228 8 0 3 6 -11 13 -49 24 -25 141 44 215 16 17 28 32 25 32 -3 0 -19 -15 -35 -32z" fill="none" stroke="red" stroke-width="1mm" /><path d="M8734 978 c-81 -87 -95 -229 -23 -228 8 0 3 6 -11 13 -49 24 -25 141 44 215 16 17 28 32 25 32 -3 0 -19 -15 -35 -32z" fill="none" stroke="red" stroke-width="1mm" /><path d="M2350 981 c25 -4 66 -19 91 -34 53 -31 123 -36 155 -11 18 15 18 15 -3 5 -41 -20 -105 -13 -158 19 -35 21 -62 29 -90 28 l-40 -1 45 -6z" fill="none" stroke="red" stroke-width="1mm" /><path d="M2283 963 c4 -3 10 -3 14 0 3 4 0 7 -7 7 -7 0 -10 -3 -7 -7z" fill="none" stroke="red" stroke-width="1mm" /><path d="M7413 953 c4 -3 10 -3 14 0 3 4 0 7 -7 7 -7 0 -10 -3 -7 -7z" fill="none" stroke="red" stroke-width="1mm" /><path d="M9533 943 c4 -3 10 -3 14 0 3 4 0 7 -7 7 -7 0 -10 -3 -7 -7z" fill="none" stroke="red" stroke-width="1mm" /><path d="M8023 933 c4 -3 10 -3 14 0 3 4 0 7 -7 7 -7 0 -10 -3 -7 -7z" fill="none" stroke="red" stroke-width="1mm" /><path d="M7318 923 c7 -3 16 -2 19 1 4 3 -2 6 -13 5 -11 0 -14 -3 -6 -6z" fill="none" stroke="red" stroke-width="1mm" /><path d="M1974 908 c-4 -7 -3 -8 4 -4 12 7 16 16 8 16 -3 0 -8 -5 -12 -12z" fill="none" stroke="red" stroke-width="1mm" /><path d="M9014 908 c-4 -7 -3 -8 4 -4 12 7 16 16 8 16 -3 0 -8 -5 -12 -12z" fill="none" stroke="red" stroke-width="1mm" /><path d="M9463 913 c4 -3 10 -3 14 0 3 4 0 7 -7 7 -7 0 -10 -3 -7 -7z" fill="none" stroke="red" stroke-width="1mm" /><path d="M9423 903 c4 -3 10 -3 14 0 3 4 0 7 -7 7 -7 0 -10 -3 -7 -7z" fill="none" stroke="red" stroke-width="1mm" /><path d="M7973 893 c4 -3 10 -3 14 0 3 4 0 7 -7 7 -7 0 -10 -3 -7 -7z" fill="none" stroke="red" stroke-width="1mm" /><path d="M1913 863 c4 -3 10 -3 14 0 3 4 0 7 -7 7 -7 0 -10 -3 -7 -7z" fill="none" stroke="red" stroke-width="1mm" /><path d="M8953 863 c4 -3 10 -3 14 0 3 4 0 7 -7 7 -7 0 -10 -3 -7 -7z" fill="none" stroke="red" stroke-width="1mm" /><path d="M1873 833 c4 -3 10 -3 14 0 3 4 0 7 -7 7 -7 0 -10 -3 -7 -7z" fill="none" stroke="red" stroke-width="1mm" /><path d="M8913 833 c4 -3 10 -3 14 0 3 4 0 7 -7 7 -7 0 -10 -3 -7 -7z" fill="none" stroke="red" stroke-width="1mm" /><path d="M1843 813 c4 -3 10 -3 14 0 3 4 0 7 -7 7 -7 0 -10 -3 -7 -7z" fill="none" stroke="red" stroke-width="1mm" /><path d="M8883 813 c4 -3 10 -3 14 0 3 4 0 7 -7 7 -7 0 -10 -3 -7 -7z" fill="none" stroke="red" stroke-width="1mm" /><path d="M7693 803 c4 -3 10 -3 14 0 3 4 0 7 -7 7 -7 0 -10 -3 -7 -7z" fill="none" stroke="red" stroke-width="1mm" /><path d="M1780 775 c-14 -8 -36 -15 -50 -16 -23 -2 -23 -2 -3 -6 20 -4 83 21 83 32 0 7 -2 6 -30 -10z" fill="none" stroke="red" stroke-width="1mm" /><path d="M8820 775 c-14 -8 -36 -15 -50 -16 -23 -2 -23 -2 -3 -6 20 -4 83 21 83 32 0 7 -2 6 -30 -10z" fill="none" stroke="red" stroke-width="1mm" /><path d="M7623 753 c4 -3 10 -3 14 0 3 4 0 7 -7 7 -7 0 -10 -3 -7 -7z" fill="none" stroke="red" stroke-width="1mm" /><path d="M8303 753 c4 -3 10 -3 14 0 3 4 0 7 -7 7 -7 0 -10 -3 -7 -7z" fill="none" stroke="red" stroke-width="1mm" /><path d="M8240 715 c-14 -8 -36 -15 -50 -16 -23 -2 -23 -2 -3 -6 20 -4 83 21 83 32 0 7 -2 6 -30 -10z" fill="none" stroke="red" stroke-width="1mm" /><path d="M3965 170 c-16 -7 -17 -9 -3 -9 9 -1 20 4 23 9 7 11 7 11 -20 0z" fill="none" stroke="red" stroke-width="1mm" /></g><g transform="translate(1980.2204724409448,2803.420472440945) scale(1,-1) translate(0,-1195.0)"><path d="M972 675 c-11 -24 -13 -24 -149 -27 l-138 -3 -3 -129 c-3 -159 -4 -158 97 -150 131 10 186 -37 186 -159 0 -127 -42 -172 -158 -172 -86 0 -143 23 -150 61 -4 22 -4 22 -3 -2 2 -48 112 -86 201 -70 138 26 171 241 51 330 -23 18 -42 21 -119 21 l-92 0 -3 133 -3 132 135 0 c134 0 136 0 152 25 9 14 15 28 12 30 -3 3 -10 -6 -16 -20z" fill="none" stroke="red" stroke-width="1mm" /><path d="M3984 690 c69 -18 66 -2 66 -336 0 -167 -1 -304 -2 -304 -17 -1 -78 -29 -63 -29 11 0 31 6 44 13 20 11 28 11 50 0 14 -8 35 -14 46 -13 11 0 2 6 -20 13 l-40 12 -3 171 -2 171 29 7 c17 3 42 16 56 27 29 22 90 34 130 24 45 -11 55 -55 55 -235 0 -175 -2 -179 -62 -182 -18 -1 -19 -2 -5 -6 10 -3 32 1 48 7 23 10 35 10 60 0 24 -10 32 -10 42 0 9 10 9 11 -1 6 -7 -5 -26 -2 -43 4 l-29 12 0 160 c0 171 -10 216 -51 238 -31 17 -110 7 -145 -18 -16 -12 -41 -24 -56 -28 l-28 -6 0 129 c0 147 -6 160 -76 168 l-39 5 39 -10z" fill="none" stroke="red" stroke-width="1mm" /><path d="M6573 684 l47 -15 0 -115 c0 -107 -1 -116 -17 -109 -174 74 -286 4 -300 -188 -6 -86 21 -173 65 -208 39 -31 128 -21 185 21 50 36 67 38 67 5 0 -28 43 -56 82 -54 20 1 20 2 3 6 -11 2 -32 9 -47 15 l-28 10 0 310 0 309 -35 15 c-19 7 -42 14 -52 13 -10 0 3 -7 30 -15z m10 -241 l37 -15 0 -159 c0 -124 -3 -159 -13 -159 -7 0 -31 -13 -53 -30 -52 -38 -141 -51 -178 -27 -41 27 -69 119 -63 204 13 181 111 249 270 186z" fill="none" stroke="red" stroke-width="1mm" /><path d="M5665 669 c4 -5 12 -9 20 -9 8 0 26 -5 40 -12 l25 -11 0 -287 c0 -313 2 -300 -60 -318 -20 -6 -27 -11 -15 -11 11 0 32 6 48 13 23 13 31 13 55 0 15 -7 36 -14 47 -13 11 0 2 6 -20 13 l-40 12 -3 137 -3 137 73 0 c40 0 82 -3 94 -6 19 -5 98 -121 142 -209 27 -54 52 -75 98 -80 l39 -5 -39 10 c-52 14 -62 23 -96 89 -16 31 -49 88 -74 126 l-46 70 44 40 c100 91 99 224 -2 287 -43 27 -179 38 -217 18 -13 -7 -32 -9 -42 -5 -41 16 -73 23 -68 14z m326 -37 c90 -55 88 -200 -5 -275 -41 -33 -41 -33 -133 -29 l-93 4 0 152 c0 108 4 156 13 165 21 22 175 10 218 -17z" fill="none" stroke="red" stroke-width="1mm" /><path d="M1434 654 c-153 -54 -259 -276 -224 -466 24 -124 78 -172 185 -166 111 7 158 66 159 199 0 148 -95 217 -222 159 -23 -10 -57 -22 -76 -25 l-34 -7 9 47 c25 133 188 286 280 262 10 -3 17 -1 13 4 -7 13 -42 10 -90 -7z m42 -280 c50 -24 67 -64 68 -155 0 -128 -51 -189 -157 -189 -95 0 -138 37 -162 137 -28 115 -18 168 31 177 18 4 53 16 76 26 53 24 99 25 144 4z" fill="none" stroke="red" stroke-width="1mm" /><path d="M353 640 c-3 -12 -19 -28 -35 -36 -30 -15 -208 -275 -223 -325 -4 -13 -17 -32 -29 -42 -12 -11 -14 -15 -4 -10 9 4 75 7 147 5 l131 -3 0 -89 c0 -94 -2 -97 -54 -111 -29 -8 -29 -8 4 -3 51 8 80 8 120 0 24 -4 21 -2 -12 9 l-48 16 0 89 0 90 65 0 c69 0 87 15 84 68 -1 9 -6 0 -11 -20 l-10 -38 -65 0 -66 0 6 200 c3 110 8 204 12 210 3 5 3 10 0 10 -4 0 -9 -9 -12 -20z m-10 -217 l-6 -183 -123 0 -123 0 11 32 c31 90 223 351 245 334 1 0 -1 -83 -4 -183z" fill="none" stroke="red" stroke-width="1mm" /><path d="M2193 643 c-4 -9 -17 -26 -29 -38 -28 -26 -166 -407 -182 -505 -7 -43 -9 -46 -57 -62 -28 -9 -41 -17 -30 -17 11 0 33 6 50 13 24 10 34 10 55 -1 14 -7 36 -13 50 -12 17 0 10 4 -20 12 -53 14 -54 21 -18 145 25 87 11 80 175 84 l132 3 15 -60 c35 -145 32 -159 -37 -175 -28 -7 -29 -8 -7 -9 14 -1 36 6 48 15 21 14 26 14 63 0 22 -9 47 -16 57 -16 9 1 -5 9 -33 18 l-50 17 -18 90 c-10 50 -25 103 -33 119 -8 16 -14 36 -14 44 0 29 -83 297 -98 314 -8 9 -11 22 -7 27 3 6 4 11 0 11 -3 0 -9 -8 -12 -17z m64 -173 c61 -205 66 -194 -84 -198 -148 -3 -141 -18 -72 172 48 131 78 181 102 173 5 -1 30 -68 54 -147z" fill="none" stroke="red" stroke-width="1mm" /><path d="M3717 573 c-4 -3 -7 -20 -7 -37 0 -60 -9 -72 -58 -84 l-47 -10 48 5 47 5 0 -140 c0 -239 23 -290 123 -278 39 5 61 14 73 29 19 22 19 22 -1 5 -32 -26 -121 -35 -145 -13 -28 26 -40 100 -40 255 l0 140 83 0 c45 0 87 4 94 8 6 4 -31 5 -83 4 l-94 -4 6 49 c3 26 7 54 10 61 4 13 1 15 -9 5z" fill="none" stroke="red" stroke-width="1mm" /><path d="M2546 469 c3 -5 15 -9 27 -9 47 0 48 -5 45 -216 l-3 -199 -35 -13 c-30 -11 -31 -12 -5 -6 41 8 73 8 115 0 24 -4 21 -2 -12 9 l-48 16 0 164 0 163 30 7 c17 4 45 19 62 33 25 22 42 27 86 27 88 0 96 -16 100 -225 3 -94 3 -170 1 -170 -17 -1 -79 -29 -64 -29 11 0 31 6 44 13 20 11 28 11 50 0 14 -8 35 -14 46 -13 11 0 2 6 -20 13 l-40 12 -6 164 c-8 204 -4 183 -35 219 -40 47 -98 44 -175 -11 -49 -34 -79 -34 -79 0 0 17 -5 34 -11 38 -19 12 -79 22 -73 13z" fill="none" stroke="red" stroke-width="1mm" /><path d="M3272 470 c-140 -33 -179 -312 -59 -416 54 -46 155 -48 203 -4 114 106 78 383 -55 420 -40 11 -43 11 -89 0z m128 -29 c91 -63 98 -308 11 -386 -41 -36 -147 -34 -193 5 -87 73 -87 296 0 374 43 38 133 42 182 7z" fill="none" stroke="red" stroke-width="1mm" /><path d="M4692 470 c-82 -20 -126 -98 -126 -230 -1 -154 51 -216 176 -207 60 4 148 40 133 55 -2 2 -17 -6 -33 -18 -22 -17 -49 -24 -99 -27 -112 -7 -158 37 -170 162 l-6 64 143 3 c168 3 173 6 152 85 -23 86 -92 132 -170 113z m120 -38 c29 -29 55 -108 45 -135 -6 -15 -25 -17 -145 -17 l-139 0 7 38 c24 132 150 194 232 114z" fill="none" stroke="red" stroke-width="1mm" /><path d="M5016 469 c3 -5 15 -9 27 -9 47 0 48 -5 45 -216 l-3 -199 -35 -13 c-30 -11 -31 -12 -5 -6 41 8 73 8 115 0 24 -4 21 -2 -12 9 l-48 16 0 158 0 159 24 6 c14 3 38 17 53 30 30 25 119 54 130 42 4 -3 6 -20 6 -37 0 -22 3 -26 9 -16 4 9 4 27 -2 42 -15 39 -81 26 -159 -30 -47 -34 -61 -32 -61 9 0 19 -5 38 -11 42 -19 12 -79 22 -73 13z" fill="none" stroke="red" stroke-width="1mm" /></g><g transform="translate(1017.2204724409448,3759.420472440945) scale(1,-1) translate(0,-1415.0)"><path d="M1654 820 c69 -18 66 -2 66 -336 0 -167 -1 -304 -2 -304 -17 -1 -78 -29 -63 -29 11 0 31 6 44 13 20 11 28 11 50 0 14 -8 35 -14 46 -13 11 0 2 6 -20 13 l-40 12 -3 107 -3 107 64 0 65 0 56 -75 c87 -115 95 -153 32 -156 -12 0 -15 -3 -8 -6 8 -3 24 0 37 7 18 10 34 10 75 0 28 -7 53 -10 56 -8 2 3 -20 10 -50 17 -42 9 -55 17 -60 34 -3 12 -33 59 -66 104 -68 91 -69 115 -7 172 15 13 31 38 37 56 10 31 55 55 103 55 9 0 19 4 22 10 3 5 0 8 -7 6 -79 -24 -109 -28 -122 -17 -8 7 -25 11 -38 8 -20 -4 -20 -4 5 -6 51 -2 43 -54 -18 -123 -19 -21 -35 -45 -35 -53 0 -12 -15 -15 -70 -15 l-70 0 0 193 c0 219 -2 224 -76 232 l-39 5 39 -10z" fill="none" stroke="red" stroke-width="1mm" /><path d="M2954 820 c69 -18 66 -2 66 -336 0 -167 -1 -304 -2 -304 -17 -1 -78 -29 -63 -29 11 0 31 6 44 13 20 11 28 11 50 0 14 -8 35 -14 46 -13 11 0 2 6 -20 13 l-40 12 -3 305 c-3 344 -1 335 -78 344 l-39 5 39 -10z" fill="none" stroke="red" stroke-width="1mm" /><path d="M3224 820 c69 -18 66 -2 66 -336 0 -167 -1 -304 -2 -304 -17 -1 -78 -29 -63 -29 11 0 31 6 44 13 20 11 28 11 50 0 14 -8 35 -14 46 -13 11 0 2 6 -20 13 l-40 12 -3 305 c-3 344 -1 335 -78 344 l-39 5 39 -10z" fill="none" stroke="red" stroke-width="1mm" /><path d="M8122 805 c-11 -24 -13 -24 -149 -27 l-138 -3 -3 -129 c-3 -159 -4 -158 97 -150 131 10 186 -37 186 -159 0 -127 -42 -172 -158 -172 -86 0 -143 23 -150 61 -4 22 -4 22 -3 -2 2 -48 112 -86 201 -70 138 26 171 241 51 330 -23 18 -42 21 -119 21 l-92 0 -3 133 -3 132 135 0 c134 0 136 0 152 25 9 14 15 28 12 30 -3 3 -10 -6 -16 -20z" fill="none" stroke="red" stroke-width="1mm" /><path d="M75 799 c4 -5 12 -9 20 -9 8 0 26 -5 40 -12 l25 -11 0 -287 c0 -313 2 -300 -60 -318 -20 -6 -27 -11 -15 -11 11 0 32 6 47 13 24 13 32 13 55 0 16 -7 37 -14 48 -13 11 0 2 6 -20 13 l-40 12 -3 137 -3 137 73 0 c40 0 82 -3 94 -6 19 -5 98 -121 142 -209 27 -54 52 -75 98 -80 l39 -5 -39 10 c-52 14 -62 23 -96 89 -16 31 -49 88 -74 126 l-46 70 44 40 c100 91 99 224 -2 287 -43 27 -179 38 -217 18 -13 -7 -32 -9 -42 -5 -41 16 -73 23 -68 14z m326 -37 c90 -55 88 -200 -5 -275 -41 -33 -41 -33 -133 -29 l-93 4 0 152 c0 108 4 156 13 165 21 22 175 10 218 -17z" fill="none" stroke="red" stroke-width="1mm" /><path d="M4425 801 c2 -5 17 -11 32 -14 44 -10 59 -23 45 -40 -8 -9 -12 -98 -14 -293 l-3 -279 -35 -13 c-31 -11 -32 -12 -5 -7 40 8 54 8 95 1 l35 -6 -37 11 -38 11 0 283 c0 187 4 286 10 290 29 18 54 -26 124 -216 39 -108 77 -204 85 -213 7 -9 11 -29 9 -45 -2 -17 -1 -28 4 -25 4 3 8 17 8 31 0 14 10 33 23 43 14 11 49 86 97 208 75 191 75 192 133 220 4 2 7 -122 7 -276 0 -307 2 -297 -63 -312 -28 -7 -29 -8 -7 -9 14 -1 35 6 47 14 19 13 24 13 50 0 31 -16 49 -19 56 -7 3 4 -8 7 -25 8 -16 1 -33 5 -38 10 -5 5 -10 139 -10 299 -1 311 -1 315 51 315 10 0 20 4 24 9 11 19 -51 -7 -105 -44 l-55 -37 -72 -181 c-114 -288 -108 -287 -207 -17 -39 107 -74 200 -78 206 -20 30 -162 104 -143 75z" fill="none" stroke="red" stroke-width="1mm" /><path d="M5245 799 c4 -5 12 -9 20 -9 8 0 26 -5 40 -12 l25 -11 0 -287 c0 -313 2 -300 -60 -318 -20 -6 -27 -11 -15 -11 11 0 33 6 49 14 22 12 32 12 43 4 19 -16 188 -6 233 14 73 32 120 108 140 229 28 166 -34 313 -153 363 -53 22 -192 32 -212 15 -8 -7 -23 -10 -32 -7 -10 3 -33 10 -51 16 -19 6 -30 6 -27 0z m321 -34 c114 -47 171 -189 144 -353 -30 -181 -94 -237 -270 -237 l-95 0 -3 294 c-2 223 1 297 10 309 16 19 158 11 214 -13z" fill="none" stroke="red" stroke-width="1mm" /><path d="M6280 801 c-67 -14 -118 -51 -134 -96 -9 -24 3 -13 18 17 19 38 89 70 156 71 56 2 62 0 97 -35 74 -74 47 -174 -91 -337 -117 -137 -136 -164 -142 -202 -4 -23 -14 -41 -28 -48 -17 -9 -17 -10 -1 -4 11 4 86 9 166 11 163 3 171 6 183 72 4 25 3 31 -4 20 -5 -8 -10 -24 -10 -36 0 -39 -18 -44 -163 -44 l-139 0 6 31 c7 35 34 73 142 200 39 46 84 106 99 134 77 140 -9 277 -155 246z" fill="none" stroke="red" stroke-width="1mm" /><path d="M6846 800 c-41 -13 -85 -57 -109 -110 -46 -100 -33 -395 20 -476 41 -63 144 -85 198 -42 115 91 122 499 9 598 -19 16 -41 30 -49 30 -7 0 -19 2 -27 4 -7 2 -26 0 -42 -4z m104 -29 c113 -77 112 -516 -1 -595 -56 -39 -162 -8 -192 57 -46 96 -52 366 -10 457 44 98 129 132 203 81z" fill="none" stroke="red" stroke-width="1mm" /><path d="M7385 801 c-127 -31 -175 -180 -85 -266 38 -36 38 -44 -4 -94 -105 -126 -28 -291 135 -291 158 0 231 191 115 299 -34 32 -33 51 3 85 36 35 54 104 41 161 -18 81 -111 128 -205 106z m97 -12 c110 -30 139 -168 55 -259 -48 -52 -169 -52 -223 1 -57 55 -66 138 -22 202 38 54 116 77 190 56z m48 -334 c65 -61 79 -147 39 -223 -61 -114 -276 -89 -303 36 -14 65 0 125 41 175 l36 45 78 -2 c72 -1 80 -3 109 -31z" fill="none" stroke="red" stroke-width="1mm" /><path d="M8496 800 c-41 -13 -85 -57 -109 -110 -46 -100 -33 -395 20 -476 41 -63 144 -85 198 -42 115 91 122 499 9 598 -19 16 -41 30 -49 30 -7 0 -19 2 -27 4 -7 2 -26 0 -42 -4z m104 -29 c113 -77 112 -516 -1 -595 -56 -39 -162 -8 -192 57 -46 96 -52 366 -10 457 44 98 129 132 203 81z" fill="none" stroke="red" stroke-width="1mm" /><path d="M2739 753 c-13 -16 -12 -17 4 -4 16 13 21 21 13 21 -2 0 -10 -8 -17 -17z" fill="none" stroke="red" stroke-width="1mm" /><path d="M842 600 c-140 -33 -179 -312 -59 -416 54 -46 155 -48 203 -4 114 106 78 383 -55 420 -40 11 -43 11 -89 0z m128 -29 c91 -63 98 -308 11 -386 -41 -36 -147 -34 -193 5 -87 73 -87 296 0 374 43 38 133 42 182 7z" fill="none" stroke="red" stroke-width="1mm" /><path d="M1370 600 c-134 -33 -177 -314 -62 -410 62 -52 211 -29 237 37 3 8 -8 2 -25 -14 -54 -51 -152 -59 -206 -18 -83 63 -84 260 -2 358 53 64 222 53 205 -13 -3 -11 -1 -18 4 -14 17 10 9 42 -15 58 -31 20 -91 27 -136 16z" fill="none" stroke="red" stroke-width="1mm" /><path d="M2280 603 c-14 -3 -31 -10 -38 -15 -9 -8 -24 -7 -51 2 -21 6 -46 10 -57 7 -14 -3 -12 -5 8 -6 53 -2 76 -20 83 -67 8 -53 90 -301 106 -320 6 -8 9 -23 6 -34 -3 -11 -1 -18 4 -14 5 3 9 12 9 21 0 8 13 27 28 41 26 25 130 262 146 334 4 19 14 28 36 33 16 4 32 11 35 15 3 5 -12 3 -34 -5 -21 -7 -41 -11 -44 -8 -10 9 -77 21 -71 12 3 -5 14 -9 24 -9 62 0 61 -8 -18 -205 -90 -223 -104 -226 -166 -37 -68 206 -69 242 -10 242 12 0 26 5 29 10 3 6 5 9 3 9 -2 -1 -14 -4 -28 -6z" fill="none" stroke="red" stroke-width="1mm" /><path d="M2666 599 c3 -5 15 -9 27 -9 47 0 48 -5 45 -216 l-3 -199 -35 -13 c-30 -11 -31 -12 -5 -6 41 8 73 8 115 0 24 -4 21 -2 -12 9 l-48 16 0 199 c0 136 -4 201 -11 206 -19 12 -79 22 -73 13z" fill="none" stroke="red" stroke-width="1mm" /><path d="M3652 600 c-82 -20 -126 -98 -126 -230 -1 -154 51 -216 176 -207 60 4 148 40 133 55 -2 2 -17 -6 -33 -18 -22 -17 -49 -24 -99 -27 -112 -7 -158 37 -170 162 l-6 64 143 3 c168 3 173 6 152 85 -23 86 -92 132 -170 113z m120 -38 c29 -29 55 -108 45 -135 -6 -15 -25 -17 -145 -17 l-139 0 7 38 c24 132 150 194 232 114z" fill="none" stroke="red" stroke-width="1mm" /><path d="M4026 208 c-3 -7 -7 -35 -10 -63 -4 -35 -16 -61 -38 -90 -18 -22 -24 -34 -15 -26 36 29 57 71 65 130 8 56 7 79 -2 49z" fill="none" stroke="red" stroke-width="1mm" /></g></svg>