<?xml version="1.0" encoding="utf-8" ?>
<svg baseProfile="full" height="6312.090944881889px" version="1.1" viewBox="0 0 12898.44094488189 6312.090944881889" width="12898.44094488189px" xmlns="http://www.w3.org/2000/svg" xmlns:ev="http://www.w3.org/2001/xml-events" xmlns:xlink="http://www.w3.org/1999/xlink"><defs /><g transform="translate(236.22047244094483,236.2204724409449) scale(1,-1) translate(0,-3842.0)"><path d="M9250 2626 l-45 -33 -32 -37 -33 -37 0 -12 0 -13 -53 -52 -53 -52 -29 0 -30 0 -55 -21 -55 -21 -50 -14 -50 -14 -238 -50 -239 -50 -112 -29 -112 -29 -79 -31 -80 -31 -80 -46 -80 -47 -65 -66 -66 -66 -32 -50 -33 -50 -21 -68 -20 -68 4 -69 4 -70 12 -12 13 -13 -10 28 -11 28 0 59 0 58 20 64 20 64 32 49 32 50 61 61 60 61 80 47 80 46 80 31 79 31 112 29 112 29 239 50 238 50 50 14 50 14 55 21 55 21 23 0 22 0 -1 -17 0 -18 -30 -50 -29 -50 -129 -260 -128 -260 -60 -135 -60 -135 -7 -19 -6 -18 -23 6 -22 7 -85 11 -85 10 -170 -5 -170 -6 -93 -20 -93 -20 -67 -22 -67 -22 -70 -35 -70 -34 -61 -44 -61 -43 -67 -73 -67 -72 -38 -66 -38 -65 -26 -66 -26 -66 -12 -74 -11 -74 6 -64 6 -64 29 -64 30 -63 53 -54 54 -53 54 -19 55 -19 95 1 95 1 68 26 67 26 68 44 68 44 68 64 69 64 61 80 62 80 51 75 50 75 65 115 66 115 81 162 81 163 0 11 0 12 17 13 18 12 10 -8 10 -8 70 -5 70 -6 -40 9 -40 9 -33 0 -33 1 -5 14 -6 15 62 138 63 138 128 260 129 260 29 50 30 50 0 15 1 16 53 52 53 52 26 0 27 0 63 43 63 43 18 32 19 32 -6 15 -5 15 -23 0 -23 0 -45 -34z m90 14 l0 -11 -15 -28 -14 -29 -62 -41 -61 -41 -19 0 -19 0 0 14 0 14 27 33 27 32 46 33 45 34 23 0 22 0 0 -10z m-822 -1216 l22 -6 0 -19 0 -19 -81 -163 -81 -162 -66 -115 -65 -115 -50 -75 -51 -75 -62 -80 -62 -81 -63 -59 -64 -59 -67 -43 -68 -44 -67 -26 -68 -26 -95 -1 -95 -1 -54 19 -55 19 -48 49 -49 48 -30 64 -29 63 -6 64 -6 64 11 74 12 74 26 66 26 66 37 65 38 65 62 68 62 68 62 43 61 44 70 35 70 35 81 25 82 26 83 15 84 15 35 5 35 4 200 -3 200 -4 23 -7z" fill="none" stroke="red" stroke-width="1mm" /><path d="M2155 2383 l-30 -15 -38 -37 -39 -36 -42 -55 -41 -55 -29 -60 -29 -60 -36 -73 -36 -74 -35 -12 -35 -12 -140 -98 -140 -98 -130 -78 -130 -78 -150 -84 -150 -85 -230 -123 -230 -122 -125 -68 -125 -68 -33 -7 -32 -7 0 90 0 90 25 85 24 85 28 59 27 58 54 72 54 73 56 51 57 50 90 45 90 44 65 17 65 16 90 1 90 1 60 -7 60 -7 -75 15 -75 15 -80 -5 -80 -5 -60 -16 -60 -15 -90 -44 -90 -44 -62 -56 -61 -56 -54 -73 -54 -72 -27 -58 -28 -59 -24 -85 -25 -85 0 -109 0 -108 -49 -22 -50 -21 -18 -21 -18 -22 20 17 21 17 48 21 48 22 2 -4 2 -3 12 -50 13 -50 29 -60 29 -60 48 -54 47 -54 59 -38 58 -38 67 -23 67 -23 125 0 125 0 75 24 74 23 61 30 60 31 44 30 44 30 75 71 74 71 43 60 43 60 52 90 52 90 50 110 51 110 49 128 49 128 49 139 50 138 0 16 0 15 10 23 10 23 28 49 27 49 47 17 48 18 77 65 78 65 32 34 31 33 26 47 26 47 0 20 0 20 -19 11 -20 10 -18 0 -18 -1 -30 -16z m79 1 l16 -6 0 -20 0 -19 -26 -47 -26 -47 -26 -28 -27 -29 -77 -64 -76 -64 -36 -15 -35 -15 -6 0 -5 0 6 28 7 27 26 50 26 50 42 55 41 55 34 31 33 32 30 15 30 16 17 1 16 0 16 -6z m-420 -516 l-6 -33 -49 -137 -48 -137 -49 -128 -49 -128 -51 -110 -50 -110 -52 -90 -52 -90 -43 -60 -43 -61 -70 -65 -70 -66 -43 -30 -44 -30 -60 -31 -61 -30 -74 -23 -75 -24 -125 0 -125 0 -67 23 -67 23 -58 38 -58 37 -34 39 -34 39 -28 45 -28 44 -20 61 -20 61 -6 37 -7 36 34 7 33 7 125 68 125 68 230 122 230 123 180 102 180 102 95 58 95 57 110 76 110 76 49 33 48 33 14 0 14 0 -6 -32z" fill="none" stroke="red" stroke-width="1mm" /><path d="M10915 2223 l-50 -26 -126 -126 -127 -126 -78 -107 -79 -107 -89 -143 -89 -143 -9 -35 -10 -35 -26 -34 -27 -33 -21 -37 -22 -36 -23 -3 -24 -4 -40 -37 -40 -38 -35 -26 -35 -25 -29 -8 -28 -7 -9 14 -9 14 0 33 0 34 66 68 66 69 33 15 33 16 30 0 31 0 5 8 5 9 -50 -8 -49 -8 -28 -19 -27 -20 -63 -66 -64 -66 -14 0 -13 0 -105 -88 -105 -87 -92 -58 -92 -57 -35 -6 -35 -7 -16 10 -16 10 -3 42 -3 42 45 95 46 95 0 20 0 20 -11 21 -11 21 51 46 51 46 10 28 10 28 -14 5 -14 5 -39 -20 -40 -20 -31 -36 -32 -36 0 -29 0 -30 -22 -14 -23 -15 -66 -25 -65 -24 -61 -11 -60 -11 -52 11 -52 11 -6 14 -5 13 21 27 21 27 0 42 0 43 -16 13 -16 13 -16 -10 -17 -11 -20 -36 -20 -36 -34 -27 -34 -28 -18 -41 -19 -40 0 -21 0 -20 13 -18 13 -17 29 11 30 11 40 44 41 43 54 -14 55 -15 64 11 65 11 77 30 76 29 18 20 18 20 13 0 13 0 11 -19 10 -20 0 -20 0 -20 -45 -93 -45 -93 0 -41 0 -41 18 -16 19 -17 25 0 26 0 55 29 55 29 63 43 63 42 93 79 93 78 15 0 15 0 0 -26 0 -25 11 -21 11 -20 30 6 30 6 47 34 46 34 29 31 30 31 19 0 19 0 -5 -28 -5 -27 -21 -74 -21 -75 0 -49 0 -49 34 -34 34 -34 34 0 34 0 80 38 79 39 69 52 68 52 80 70 79 70 9 -6 10 -6 0 -14 0 -14 16 -9 17 -9 21 5 21 5 27 19 26 18 17 0 16 0 -7 -22 -7 -23 -13 -27 -14 -27 0 -44 0 -44 25 -23 24 -23 53 5 53 4 64 32 63 33 76 57 77 57 20 12 20 12 13 1 12 0 0 -17 0 -18 -25 -44 -25 -44 3 -3 4 -4 26 49 27 49 0 15 0 15 36 6 35 7 60 59 60 58 26 7 26 6 15 -15 15 -15 26 -47 26 -47 28 -21 27 -20 39 1 38 2 59 20 58 21 15 15 15 14 -43 -21 -43 -21 -56 -13 -57 -13 -35 17 -35 17 -26 48 -26 48 -20 20 -20 20 -26 -6 -27 -7 -55 -54 -55 -55 -26 -10 -27 -10 -5 5 -5 5 28 53 27 53 17 20 16 20 -21 -17 -20 -18 -30 -60 -29 -60 -20 0 -20 -1 -20 -12 -20 -12 -77 -57 -76 -57 -63 -33 -64 -32 -53 -4 -53 -5 -19 18 -20 18 0 41 0 41 23 56 23 56 42 49 42 49 0 8 0 8 -43 -53 -43 -53 -24 -4 -25 -3 -25 -18 -25 -18 -20 -2 -20 -2 -11 1 -12 1 -5 21 -6 22 29 42 30 43 39 31 39 31 43 20 44 20 38 0 38 0 27 -16 27 -16 -25 21 -25 21 -40 0 -40 0 -53 -25 -53 -24 -53 -57 -54 -56 -13 -14 -14 -14 -81 -70 -82 -69 -68 -52 -69 -52 -79 -39 -80 -38 -34 0 -34 0 -29 29 -29 29 0 49 0 49 21 75 21 74 5 30 6 30 18 27 19 26 0 7 0 6 33 39 32 40 27 0 28 0 142 122 143 122 131 130 131 131 56 75 56 75 30 58 30 57 7 36 6 35 -17 19 -18 20 -26 0 -26 -1 -50 -26z m115 2 l12 -15 -6 -35 -7 -35 -30 -57 -30 -58 -56 -75 -56 -75 -126 -126 -126 -125 -143 -122 -142 -122 -25 0 -25 0 6 28 6 27 61 100 61 100 67 100 68 100 64 80 65 80 101 97 101 98 48 24 47 25 26 1 27 0 12 -15z m-1511 -855 l-11 -30 -48 -40 -48 -40 -16 0 -16 0 0 19 0 19 26 32 26 31 37 19 36 19 12 1 12 0 -10 -30z m-531 -78 l3 -44 -15 -23 -16 -24 -13 5 -12 4 -12 26 -12 26 10 26 10 26 11 14 11 13 16 -3 16 -3 3 -43z m-68 -66 l9 -24 13 -5 13 -4 -20 -38 -19 -37 -31 -23 -30 -23 -22 -6 -22 -7 -7 26 -6 26 17 44 16 44 30 26 31 25 9 0 9 0 10 -24z" fill="none" stroke="red" stroke-width="1mm" /><path d="M5695 2219 l-60 -21 -67 -44 -67 -45 -47 -52 -47 -52 -32 -50 -32 -50 -10 -30 -9 -29 -65 -13 -64 -13 -91 -30 -90 -30 -79 -41 -78 -40 -48 -35 -48 -35 -68 -73 -68 -73 -34 -57 -34 -56 -19 -68 -19 -67 -14 -60 -13 -59 -18 -13 -18 -13 -8 0 -8 0 -34 -68 -34 -68 -27 -80 -27 -79 -5 -96 -6 -97 13 -53 13 -54 25 -54 25 -54 61 -62 61 -62 60 -30 60 -30 53 -12 53 -11 40 0 40 0 69 16 70 16 22 18 23 19 -40 -19 -40 -19 -72 -13 -73 -12 -70 12 -71 12 -62 31 -62 32 -56 57 -57 58 -25 54 -24 53 -13 54 -13 53 6 97 6 96 21 65 21 65 35 76 36 77 23 10 22 10 12 -83 12 -83 19 -56 19 -56 29 -43 30 -42 44 -41 44 -41 45 -25 44 -26 55 -18 55 -19 130 0 130 1 73 26 74 27 55 33 56 33 62 60 62 60 42 65 42 64 22 71 22 70 -1 90 -1 90 -22 58 -23 58 -53 55 -54 54 -63 30 -64 30 -77 12 -77 13 0 18 0 19 35 105 35 105 0 12 0 13 18 15 17 15 40 8 40 7 110 35 110 36 82 37 82 38 45 32 46 31 21 41 21 40 -6 24 -7 25 -32 19 -32 20 -50 0 -50 -1 -60 -20z m185 -4 l30 -15 6 -24 6 -24 -21 -39 -20 -40 -48 -31 -48 -31 -76 -34 -75 -35 -110 -35 -109 -35 -39 -7 -38 -8 7 24 8 24 32 50 32 50 42 47 42 47 67 45 67 44 60 21 60 20 48 1 48 0 29 -15z m-590 -417 l-9 -33 -30 -93 -31 -92 0 -18 0 -17 -59 -1 -60 -2 -78 -17 -78 -17 -90 -43 -90 -44 -91 -79 -91 -80 -20 -6 -21 -7 9 42 10 41 16 32 16 31 42 60 43 61 66 61 65 62 68 39 68 40 60 25 60 24 65 22 65 21 40 9 40 9 11 1 12 1 -8 -32z m-84 -280 l-6 -23 -12 -121 -12 -122 12 -103 11 -104 16 -53 16 -54 4 4 3 3 -19 72 -18 73 -7 97 -6 98 11 108 12 108 6 14 5 15 32 0 31 0 63 -15 62 -15 52 -26 51 -26 48 -49 47 -49 23 -57 22 -58 1 -90 1 -90 -22 -70 -22 -71 -42 -64 -42 -65 -57 -55 -58 -55 -55 -33 -55 -33 -74 -27 -73 -26 -130 -1 -130 0 -55 19 -55 18 -44 25 -43 25 -40 36 -40 36 -29 43 -30 43 -19 55 -19 55 -12 80 -11 80 12 67 13 68 8 17 9 17 22 7 21 6 91 80 91 79 90 44 90 43 75 16 75 15 25 4 25 4 34 2 33 1 -6 -22z" fill="none" stroke="red" stroke-width="1mm" /><path d="M2091 1350 l-43 -20 -40 -32 -41 -32 -28 -39 -29 -40 0 -28 0 -28 16 -9 17 -9 21 5 21 5 27 19 26 18 17 0 16 0 -7 -22 -7 -23 -13 -27 -14 -27 0 -44 0 -44 25 -23 24 -23 53 5 53 5 60 29 59 29 110 83 110 82 14 0 15 0 -6 -29 -6 -29 -46 -82 -45 -82 12 10 13 10 45 91 45 90 14 1 14 0 106 104 106 103 23 6 22 5 0 -24 0 -25 -25 -49 -25 -49 0 -11 0 -10 -43 -57 -44 -58 -8 -15 -8 -15 10 10 10 10 42 58 42 57 22 0 23 0 20 15 19 15 38 10 38 11 73 -41 73 -40 53 0 52 0 58 31 58 31 24 26 23 26 -34 -28 -34 -27 -48 -25 -48 -24 -52 0 -52 0 -73 40 -73 41 -38 -11 -38 -10 -19 -15 -20 -15 -18 0 -18 0 0 10 0 11 26 50 25 51 -3 26 -3 27 -25 -3 -25 -4 -85 -84 -86 -84 -18 13 -19 14 7 14 7 14 13 23 13 23 24 27 24 27 -29 -25 -28 -25 -9 -20 -9 -20 -24 -40 -24 -39 -24 -7 -24 -6 -100 -76 -99 -75 -65 -33 -65 -33 -53 -4 -53 -5 -19 18 -20 18 0 41 0 41 23 56 23 56 42 49 42 49 0 8 0 8 -43 -53 -43 -53 -24 -4 -25 -3 -25 -18 -25 -18 -20 -2 -20 -2 -12 1 -13 1 0 28 0 29 28 39 29 39 36 28 37 28 42 19 43 20 38 0 38 0 27 -16 27 -16 -25 21 -25 21 -40 0 -40 0 -44 -20z m518 -182 l-21 -18 -14 0 -14 0 0 5 0 6 16 24 16 24 19 -12 20 -12 -22 -17z" fill="none" stroke="red" stroke-width="1mm" /></g><g transform="translate(2815.220472440945,3886.1204724409445) scale(1,-1) translate(0,-1072.0)"><path d="M1059 728 l-14 -33 -150 -5 -150 -5 -3 -141 -3 -141 13 -10 13 -10 82 10 82 10 37 -20 38 -19 20 -28 21 -27 3 -74 4 -74 -22 -45 -21 -45 -45 -22 -46 -22 -66 5 -67 5 -33 19 -33 19 4 27 3 27 -8 -5 -8 -5 0 -24 0 -23 38 -22 37 -23 70 -4 70 -5 44 24 45 24 23 44 23 43 0 64 0 64 -14 33 -14 33 -38 29 -37 29 -51 0 -51 0 -50 -5 -50 -5 -3 143 -3 142 144 0 144 0 15 18 16 17 6 23 7 22 -4 0 -3 0 -15 -32z" fill="none" stroke="red" stroke-width="1mm" /><path d="M4305 743 l30 -4 28 -11 27 -10 0 -329 0 -328 -12 -8 -13 -8 -40 -12 -40 -13 40 6 40 6 13 10 13 11 22 -11 22 -11 22 -6 21 -6 5 8 5 8 -30 2 -30 2 -14 12 -14 11 0 178 0 177 34 6 35 6 28 20 28 21 55 6 55 6 25 -27 25 -27 3 -182 3 -183 -13 -10 -13 -11 -35 -10 -35 -10 20 -1 20 -1 29 15 28 15 46 -15 45 -16 8 8 8 8 -29 2 -30 2 -19 11 -20 10 -3 184 -3 185 -30 31 -30 32 -55 -6 -55 -6 -28 -21 -28 -20 -35 -6 -34 -6 0 146 0 146 -30 16 -29 15 -33 -1 -33 -2 30 -4z" fill="none" stroke="red" stroke-width="1mm" /><path d="M7118 739 l42 -8 10 -6 10 -6 0 -121 0 -120 -27 7 -28 7 -81 5 -81 5 -38 -34 -38 -33 -18 -40 -18 -41 -7 -65 -6 -66 11 -53 12 -54 24 -32 24 -31 30 -12 30 -13 50 11 49 10 48 31 48 30 13 0 13 0 0 -29 0 -30 22 -15 22 -16 28 0 27 0 5 8 5 8 -32 -4 -32 -3 -20 15 -20 14 -5 333 -5 333 -25 13 -25 13 -30 -1 -30 -1 43 -9z m17 -261 l45 -12 0 -171 -1 -170 -57 -33 -57 -33 -52 -11 -52 -11 -32 19 -32 19 -21 40 -21 40 0 90 0 90 18 47 18 47 35 31 35 30 64 0 65 0 45 -12z" fill="none" stroke="red" stroke-width="1mm" /><path d="M1579 706 l-46 -12 -50 -37 -51 -37 -24 -32 -24 -33 -22 -45 -21 -45 -17 -85 -17 -85 10 -70 10 -70 16 -36 15 -36 38 -29 37 -29 72 0 72 0 40 28 40 28 13 27 13 27 5 78 5 77 -18 46 -17 45 -39 26 -39 25 -55 -7 -56 -7 -42 -19 -42 -19 -24 0 -24 0 6 39 5 40 27 57 27 56 44 43 44 43 45 22 44 22 45 1 44 2 -11 7 -12 8 -10 -1 -10 0 -46 -13z m37 -306 l33 -21 17 -44 17 -45 -5 -77 -5 -78 -12 -25 -12 -25 -36 -25 -37 -25 -71 0 -72 0 -35 27 -36 28 -16 47 -16 48 -6 57 -7 56 7 36 7 36 25 0 25 0 37 16 37 17 35 7 35 8 29 1 29 1 33 -20z" fill="none" stroke="red" stroke-width="1mm" /><path d="M6169 709 l43 -8 14 -12 14 -11 0 -303 0 -303 -16 -13 -17 -14 -41 -12 -41 -13 40 6 40 6 17 15 16 15 24 -15 23 -15 27 -6 27 -6 4 7 5 8 -29 2 -29 2 -20 11 -20 11 0 139 0 140 89 0 89 0 16 -6 16 -6 0 -11 0 -11 21 -22 22 -23 61 -108 61 -107 45 -13 44 -13 11 12 10 11 -11 -6 -10 -6 -42 11 -42 11 -57 101 -56 101 -22 25 -22 25 -7 18 -6 19 32 26 31 27 22 22 22 23 11 53 11 54 -8 34 -8 34 -11 22 -12 22 -32 23 -32 22 -99 4 -99 4 -22 -11 -22 -12 -29 15 -30 16 -30 -1 -30 -1 44 -9z m344 -33 l28 -19 11 -21 11 -21 8 -34 8 -34 -11 -54 -11 -54 -30 -27 -30 -27 -21 -20 -22 -20 -102 3 -102 3 0 163 0 162 13 13 12 13 105 -4 105 -4 28 -18z" fill="none" stroke="red" stroke-width="1mm" /><path d="M378 670 l-10 -31 -37 -17 -36 -17 -93 -140 -93 -140 -5 -26 -6 -27 -22 -10 -21 -10 25 1 25 1 133 -2 132 -2 0 -94 0 -95 -12 -8 -13 -8 -40 -12 -40 -13 40 6 40 6 12 10 12 9 47 -16 47 -16 8 8 8 8 -29 2 -30 2 -20 11 -20 11 0 94 0 95 63 0 64 0 15 18 15 17 7 20 7 19 -7 -7 -7 -7 -11 -22 -12 -23 -67 -3 -67 -3 0 195 0 195 10 25 10 26 -6 0 -5 0 -11 -30z m-8 -225 l0 -185 -130 0 -130 0 0 23 0 24 93 144 93 144 35 17 34 17 3 1 2 0 0 -185z" fill="none" stroke="red" stroke-width="1mm" /><path d="M2391 685 l-1 -20 -29 -25 -29 -25 -51 -142 -51 -142 0 -12 0 -12 -26 -56 -27 -55 -10 -68 -10 -67 -26 -10 -26 -10 -35 -10 -35 -9 17 -1 17 -1 46 16 46 15 12 -9 12 -10 32 -6 31 -7 5 8 5 8 -28 1 -28 1 -17 7 -18 6 7 61 7 60 20 52 20 52 131 -3 130 -4 11 11 11 11 7 0 7 0 20 -67 20 -68 5 -42 5 -42 -15 -13 -16 -13 -41 -12 -41 -13 40 6 40 6 18 16 17 15 33 -15 32 -15 35 -7 35 -6 -55 19 -54 20 -13 17 -13 18 0 29 0 30 -29 96 -29 96 -42 145 -43 145 -12 15 -13 15 -5 20 -5 20 -1 -20z m61 -165 l38 -125 10 -44 11 -43 -12 -14 -11 -14 -124 0 -124 0 0 25 0 26 51 142 51 142 22 17 21 18 14 -3 14 -2 39 -125z" fill="none" stroke="red" stroke-width="1mm" /><path d="M4027 603 l-7 -6 0 -49 0 -48 -26 -10 -25 -10 -24 0 -24 0 -5 -9 -5 -8 42 8 42 8 6 1 6 0 5 -178 5 -179 14 -28 14 -28 26 -20 26 -19 56 12 55 11 12 14 12 14 -28 -13 -29 -14 -41 -7 -41 -6 -27 23 -27 23 -9 70 -9 70 -1 127 0 127 103 4 102 3 -100 2 -101 2 6 60 6 60 -1 0 -2 0 -6 -7z" fill="none" stroke="red" stroke-width="1mm" /><path d="M2795 491 l49 -6 7 -25 7 -25 1 -176 1 -177 -17 -20 -18 -21 -35 -10 -35 -9 20 -1 20 -1 29 15 28 15 46 -15 45 -16 8 8 8 8 -29 2 -30 2 -21 11 -21 12 6 15 6 15 0 156 1 157 69 33 69 34 39 5 39 5 22 -12 23 -12 14 -33 14 -34 0 -164 0 -165 -12 -10 -13 -10 -35 -10 -35 -10 20 -1 20 -1 29 15 29 15 44 -16 44 -17 12 12 12 12 -16 -6 -17 -6 -36 15 -36 15 0 166 0 166 -14 34 -14 33 -26 18 -27 17 -45 -7 -45 -6 -42 -24 -42 -24 -22 -7 -22 -6 -7 28 -7 28 -10 13 -9 12 -47 -2 -46 -1 50 -6z" fill="none" stroke="red" stroke-width="1mm" /><path d="M3495 468 l-36 -31 -21 -41 -21 -41 -1 -95 -1 -95 23 -47 24 -48 31 -22 31 -22 55 -4 56 -3 35 18 34 18 28 40 28 40 9 68 10 69 -9 54 -9 54 -17 35 -17 36 -36 25 -36 24 -62 0 -62 0 -36 -32z m190 2 l33 -20 16 -35 17 -35 9 -54 9 -54 -10 -69 -10 -68 -25 -38 -25 -39 -34 -14 -34 -14 -43 0 -43 0 -35 19 -35 18 -25 49 -25 49 1 95 1 95 21 41 21 41 31 27 32 26 60 0 61 0 32 -20z" fill="none" stroke="red" stroke-width="1mm" /><path d="M5043 479 l-32 -21 -21 -33 -20 -33 -12 -79 -11 -78 7 -47 7 -47 22 -32 22 -32 28 -21 28 -21 68 1 68 0 34 17 35 16 19 23 20 23 -25 -20 -25 -21 -28 -14 -28 -14 -69 0 -69 -1 -28 21 -28 21 -19 32 -18 32 -6 64 -5 65 142 0 141 0 20 12 19 12 19 -17 19 -17 8 0 8 0 -25 20 -26 20 -7 47 -7 48 -14 26 -14 27 -26 21 -27 21 -56 0 -56 0 -32 -21z m165 -5 l22 -15 14 -27 14 -27 7 -43 7 -43 -12 -14 -12 -15 -143 0 -142 0 9 53 10 52 17 28 18 29 29 19 29 19 55 0 56 0 22 -16z" fill="none" stroke="red" stroke-width="1mm" /><path d="M5465 491 l49 -6 7 -25 7 -25 1 -176 1 -177 -17 -20 -18 -21 -35 -10 -35 -9 18 -1 19 -1 35 17 35 16 17 -10 17 -10 31 -7 31 -7 5 8 5 8 -30 1 -29 1 -25 13 -25 14 6 14 5 14 0 153 0 153 33 13 32 13 31 23 31 23 45 6 45 6 7 -17 6 -17 -6 -11 -7 -12 12 11 13 12 -12 22 -12 22 -46 -6 -45 -6 -31 -23 -31 -23 -28 -12 -28 -12 -4 0 -3 0 -7 33 -7 32 -10 13 -10 12 -47 -2 -46 -1 50 -6z" fill="none" stroke="red" stroke-width="1mm" /></g><g transform="translate(1795.2204724409448,4904.520472440944) scale(1,-1) translate(0,-1233.0)"><path d="M8789 868 l-14 -33 -150 -5 -150 -5 -3 -141 -3 -141 13 -10 13 -10 82 10 82 10 37 -20 38 -19 20 -28 21 -27 3 -74 4 -74 -22 -45 -21 -45 -45 -22 -46 -22 -66 5 -67 5 -33 19 -33 19 4 27 3 27 -8 -5 -8 -5 0 -24 0 -23 38 -22 37 -23 70 -4 70 -5 44 24 45 24 23 44 23 43 0 64 0 64 -14 33 -14 33 -38 29 -37 29 -51 0 -51 0 -50 -5 -50 -5 -3 143 -3 142 144 0 144 0 15 18 16 17 6 23 7 22 -4 0 -3 0 -15 -32z" fill="none" stroke="red" stroke-width="1mm" /><path d="M1775 883 l30 -4 28 -11 27 -11 -2 -331 -3 -331 -50 -17 -50 -17 17 -1 18 0 40 16 40 16 13 -9 12 -10 27 -7 27 -6 4 7 5 8 -30 2 -30 2 -14 12 -14 11 0 109 0 109 75 0 75 0 0 -11 0 -10 56 -72 56 -72 9 -24 10 -24 -17 -18 -17 -19 -16 -1 -16 -1 13 -5 13 -5 19 17 20 18 57 -16 57 -17 11 12 10 11 -11 -6 -12 -7 -50 15 -51 15 -6 23 -7 22 -59 77 -59 77 0 25 0 26 34 37 34 38 18 40 19 40 62 15 62 16 7 6 6 7 -62 -15 -62 -14 -10 -6 -9 -6 -17 15 -17 14 -23 6 -22 5 6 -9 5 -9 18 0 19 0 11 -14 12 -14 -16 -37 -15 -38 -35 -38 -35 -39 0 -10 0 -10 -75 0 -75 0 0 215 0 214 -30 16 -29 15 -33 -1 -33 -2 30 -4z" fill="none" stroke="red" stroke-width="1mm" /><path d="M3185 883 l30 -4 28 -11 27 -11 -2 -331 -3 -331 -50 -17 -50 -17 17 -1 18 0 40 16 40 16 13 -9 12 -10 27 -7 27 -6 4 7 5 8 -30 2 -30 2 -14 12 -14 11 0 329 0 328 -30 16 -29 15 -33 -1 -33 -2 30 -4z" fill="none" stroke="red" stroke-width="1mm" /><path d="M3475 883 l30 -4 28 -11 27 -11 -2 -331 -3 -331 -50 -17 -50 -17 17 -1 18 0 40 16 40 16 13 -9 12 -10 27 -7 27 -6 4 7 5 8 -30 2 -30 2 -14 12 -14 11 0 329 0 328 -30 16 -29 15 -33 -1 -33 -2 30 -4z" fill="none" stroke="red" stroke-width="1mm" /><path d="M5470 859 l-35 -10 -35 -35 -35 -35 -28 -22 -27 -22 -73 -185 -72 -185 -28 -9 -27 -10 -11 11 -11 11 -72 201 -72 202 -30 20 -29 19 -34 25 -34 25 -31 -1 -31 -1 37 -7 36 -8 27 -17 27 -18 -16 -17 -16 -17 -2 -294 -3 -294 -45 -12 -45 -12 15 -1 15 -1 38 11 38 10 35 -11 36 -12 11 12 12 13 -13 -7 -12 -7 -35 11 -35 12 0 293 0 294 11 6 10 7 27 -11 27 -11 69 -196 69 -196 20 -24 19 -25 -4 -34 -4 -34 8 5 8 5 0 32 0 32 28 16 28 16 73 187 74 188 31 19 31 19 8 0 7 0 0 -289 0 -289 -32 -15 -33 -15 -20 -5 -20 -5 20 -1 20 -1 37 20 37 20 6 -10 6 -9 37 -10 36 -11 8 8 7 7 -29 2 -30 2 -19 11 -20 10 -3 303 -3 302 14 17 14 18 33 6 34 6 6 9 5 9 -3 -1 -3 -1 -35 -9z" fill="none" stroke="red" stroke-width="1mm" /><path d="M99 849 l43 -8 14 -12 14 -11 0 -303 0 -303 -16 -13 -17 -14 -41 -12 -41 -13 40 6 40 6 17 15 16 15 24 -15 23 -15 27 -6 27 -6 4 7 5 8 -29 2 -29 2 -20 11 -20 11 0 139 0 140 89 0 89 0 16 -6 16 -6 0 -11 0 -11 21 -22 22 -23 61 -108 61 -107 45 -13 44 -13 11 12 10 11 -11 -6 -10 -6 -42 11 -42 11 -57 101 -56 101 -22 25 -22 25 -7 18 -6 19 32 26 31 27 22 22 22 23 11 53 11 54 -8 34 -8 34 -11 22 -12 22 -32 23 -32 22 -99 4 -99 4 -22 -11 -22 -12 -29 15 -30 16 -30 -1 -30 -1 44 -9z m344 -33 l28 -19 11 -21 11 -21 8 -34 8 -34 -11 -54 -11 -54 -30 -27 -30 -27 -21 -20 -22 -20 -102 3 -102 3 0 163 0 162 13 13 12 13 105 -4 105 -4 28 -18z" fill="none" stroke="red" stroke-width="1mm" /><path d="M5679 849 l43 -8 14 -12 14 -11 0 -303 0 -303 -16 -13 -17 -14 -41 -12 -41 -13 40 6 40 6 18 15 17 16 18 -16 19 -17 74 0 75 0 50 15 49 14 39 33 39 32 30 65 30 66 1 120 0 120 -22 50 -23 50 -32 33 -32 34 -40 20 -40 21 -93 5 -93 5 -22 -12 -23 -12 -29 15 -30 16 -30 -1 -30 -1 44 -9z m346 -36 l40 -21 27 -29 27 -28 23 -50 22 -50 0 -120 -1 -120 -30 -66 -30 -66 -36 -27 -36 -28 -47 -14 -47 -14 -77 0 -76 0 -12 12 -12 12 0 306 0 306 13 13 12 13 100 -4 100 -5 40 -20z" fill="none" stroke="red" stroke-width="1mm" /><path d="M6730 849 l-24 -10 -32 -24 -31 -24 -6 -22 -6 -21 6 6 6 6 11 22 11 21 45 24 45 25 72 -4 73 -3 26 -26 25 -26 9 -39 9 -40 -13 -55 -13 -56 -29 -40 -29 -41 -97 -111 -96 -111 -12 -50 -12 -50 -27 -16 -26 -15 20 8 20 8 167 3 166 3 10 12 9 12 11 43 10 44 -6 -7 -7 -6 -10 -42 -11 -42 -158 -3 -158 -3 7 33 8 33 8 22 8 21 93 107 93 107 29 41 29 40 13 56 13 55 -9 40 -9 39 -30 31 -31 31 -72 2 -73 3 -25 -11z" fill="none" stroke="red" stroke-width="1mm" /><path d="M7350 838 l-34 -23 -23 -45 -24 -46 -10 -54 -10 -55 -5 -80 -6 -80 16 -84 16 -84 23 -41 22 -40 35 -24 35 -24 54 5 53 6 20 18 21 18 22 35 22 35 14 55 13 55 0 140 -1 140 -16 48 -17 49 -15 28 -15 28 -33 21 -34 21 -45 0 -45 0 -33 -22z m155 -8 l32 -20 12 -27 13 -28 16 -45 15 -45 1 -140 0 -140 -13 -55 -14 -55 -22 -35 -22 -35 -16 -13 -16 -13 -53 -5 -53 -5 -32 20 -32 20 -21 41 -20 40 -16 83 -16 82 6 80 5 80 10 53 10 54 22 45 22 45 31 19 31 19 44 0 44 0 32 -20z" fill="none" stroke="red" stroke-width="1mm" /><path d="M7933 843 l-31 -18 -20 -25 -20 -26 -11 -42 -12 -42 11 -41 11 -40 35 -39 35 -39 -9 -18 -10 -18 -22 -20 -22 -20 -15 -30 -16 -30 0 -51 0 -52 24 -43 24 -44 45 -23 44 -22 47 0 46 0 34 11 34 12 22 20 22 20 20 43 21 44 0 44 0 45 -10 6 -10 6 0 18 0 17 -35 34 -35 34 0 11 0 12 36 47 37 46 5 49 4 49 -12 36 -12 36 -36 28 -35 27 -76 3 -76 2 -32 -17z m197 -11 l35 -19 18 -34 18 -34 -4 -56 -3 -57 -40 -51 -39 -52 -88 2 -88 3 -34 37 -34 38 -11 40 -11 40 11 43 11 43 18 21 17 21 29 16 30 16 65 1 65 0 35 -18z m23 -350 l37 -36 0 -17 0 -18 10 -6 10 -6 0 -45 0 -44 -21 -44 -20 -44 -17 -15 -17 -14 -34 -12 -34 -11 -46 0 -46 0 -42 19 -42 19 -22 44 -22 43 0 50 0 51 14 26 14 26 36 39 35 38 85 -3 84 -4 38 -36z" fill="none" stroke="red" stroke-width="1mm" /><path d="M9150 838 l-34 -23 -23 -45 -24 -46 -10 -54 -10 -55 -5 -80 -6 -80 16 -84 16 -84 23 -41 22 -40 35 -24 35 -24 54 5 53 6 20 18 21 18 22 35 22 35 14 55 13 55 0 140 -1 140 -16 48 -17 49 -15 28 -15 28 -33 21 -34 21 -45 0 -45 0 -33 -22z m155 -8 l32 -20 12 -27 13 -28 16 -45 15 -45 1 -140 0 -140 -13 -55 -14 -55 -22 -35 -22 -35 -16 -13 -16 -13 -53 -5 -53 -5 -32 20 -32 20 -21 41 -20 40 -16 83 -16 82 6 80 5 80 10 53 10 54 22 45 22 45 31 19 31 19 44 0 44 0 32 -20z" fill="none" stroke="red" stroke-width="1mm" /><path d="M2983 813 l7 -6 7 6 6 7 -13 0 -13 0 6 -7z" fill="none" stroke="red" stroke-width="1mm" /><path d="M2473 640 l-33 -7 -14 -12 -15 -12 -30 15 -30 16 -28 -1 -28 -1 35 -7 35 -7 23 -13 22 -12 0 -26 0 -27 51 -145 51 -146 15 -17 15 -17 -4 -25 -5 -25 8 5 9 5 0 18 0 17 28 21 29 21 57 133 57 132 6 44 6 43 41 12 41 11 10 9 9 8 -52 -15 -52 -16 -19 11 -20 10 -28 -1 -28 -1 20 -5 20 -4 24 -5 24 -5 -6 -47 -5 -47 -58 -133 -57 -134 -24 -15 -24 -16 -14 14 -13 14 -51 146 -51 145 0 32 0 31 19 11 20 10 20 0 20 0 6 10 6 10 -3 -1 -3 -1 -32 -8z" fill="none" stroke="red" stroke-width="1mm" /><path d="M855 608 l-36 -31 -21 -41 -21 -41 -1 -95 -1 -95 23 -47 24 -48 31 -22 31 -22 55 -4 56 -3 35 18 34 18 28 40 28 40 9 68 10 69 -9 54 -9 54 -17 35 -17 36 -36 25 -36 24 -62 0 -62 0 -36 -32z m190 2 l33 -20 16 -35 17 -35 9 -54 9 -54 -10 -69 -10 -68 -25 -38 -25 -39 -34 -14 -34 -14 -43 0 -43 0 -35 19 -35 18 -25 49 -25 49 1 95 1 95 21 41 21 41 31 27 32 26 60 0 61 0 32 -20z" fill="none" stroke="red" stroke-width="1mm" /><path d="M1445 621 l-30 -18 -21 -24 -22 -24 -10 -35 -11 -35 -6 -43 -7 -43 7 -59 7 -60 21 -32 22 -31 28 -21 29 -21 61 2 62 1 37 16 37 16 5 9 6 9 -42 -20 -41 -20 -63 -1 -62 -2 -29 21 -28 21 -20 34 -19 33 0 91 0 90 13 40 13 40 22 23 21 24 27 14 27 14 58 0 59 0 23 -16 23 -16 -5 -19 -5 -19 9 6 9 5 0 14 0 14 -26 20 -27 21 -61 0 -61 0 -30 -19z" fill="none" stroke="red" stroke-width="1mm" /><path d="M2915 631 l49 -6 7 -25 7 -25 1 -176 1 -177 -17 -20 -18 -21 -35 -10 -35 -9 20 -1 20 -1 29 15 28 15 46 -15 45 -16 11 11 11 11 -15 -5 -15 -5 -33 12 -33 12 -2 206 -2 206 -14 16 -13 17 -47 -2 -46 -1 50 -6z" fill="none" stroke="red" stroke-width="1mm" /><path d="M3903 619 l-32 -21 -21 -33 -20 -33 -12 -79 -11 -78 7 -47 7 -47 22 -32 22 -32 28 -21 28 -21 68 1 68 0 34 17 35 16 19 23 20 23 -25 -20 -25 -21 -28 -14 -28 -14 -69 0 -69 -1 -28 21 -28 21 -19 32 -18 32 -6 64 -5 65 142 0 141 0 20 12 19 12 19 -17 19 -17 8 0 8 0 -25 20 -26 20 -7 47 -7 48 -14 26 -14 27 -26 21 -27 21 -56 0 -56 0 -32 -21z m165 -5 l22 -15 14 -27 14 -27 7 -43 7 -43 -12 -14 -12 -15 -143 0 -142 0 9 53 10 52 17 28 18 29 29 19 29 19 55 0 56 0 22 -16z" fill="none" stroke="red" stroke-width="1mm" /><path d="M4357 223 l-4 -8 -8 -50 -7 -50 -10 -20 -10 -20 -22 -25 -21 -25 23 20 24 20 11 20 11 20 12 63 12 62 -4 0 -3 0 -4 -7z" fill="none" stroke="red" stroke-width="1mm" /></g></svg>