<?xml version="1.0" encoding="utf-8" ?>
<svg baseProfile="full" height="7479.640944881889px" version="1.1" viewBox="0 0 12770.44094488189 7479.640944881889" width="12770.44094488189px" xmlns="http://www.w3.org/2000/svg" xmlns:ev="http://www.w3.org/2001/xml-events" xmlns:xlink="http://www.w3.org/1999/xlink"><defs /><g transform="translate(1606.7204724409448,236.2204724409449) scale(1,-1) translate(0,-3579.0)"><path d="M2900 2530 l-25 -20 -31 0 -30 0 -90 -53 -89 -53 -65 -43 -65 -44 -95 -76 -95 -75 -220 -197 -220 -196 -32 -37 -33 -37 0 -10 0 -11 -42 5 -43 4 -135 31 -135 31 -99 12 -99 12 -116 -6 -116 -5 -101 -26 -100 -25 -76 -34 -76 -35 -64 -43 -63 -43 -70 -72 -70 -71 -38 -64 -38 -64 -22 -70 -22 -70 0 -76 1 -75 27 -57 28 -56 37 -29 37 -29 12 -7 13 -7 0 4 0 4 -44 31 -45 32 -27 57 -28 57 -1 75 0 76 22 70 22 70 38 64 38 64 65 66 65 67 63 43 64 43 76 35 76 34 106 27 105 27 170 0 170 -1 90 -18 90 -18 88 -20 89 -20 -7 -26 -6 -26 -227 -234 -227 -235 -195 -182 -195 -182 -95 -83 -95 -84 -125 -100 -125 -100 -105 -68 -104 -68 -51 -19 -51 -19 -46 -7 -46 -7 -11 19 -10 18 -1 -11 0 -12 15 -12 14 -12 43 7 43 7 50 19 51 19 104 68 105 68 125 100 125 100 95 83 95 84 200 187 200 187 226 234 226 234 7 23 7 22 33 0 32 0 9 -9 10 -9 90 -15 90 -16 78 -7 77 -6 0 -19 0 -19 -44 -88 -44 -87 -32 -90 -31 -90 -20 -82 -20 -83 0 -62 0 -63 10 -52 10 -53 15 -28 15 -29 39 -35 39 -36 38 -12 38 -13 61 5 62 5 41 22 42 21 6 9 5 10 -45 -26 -46 -25 -63 -5 -63 -6 -37 13 -38 12 -34 31 -35 30 -15 28 -15 29 -10 53 -10 52 0 63 0 62 20 83 20 82 31 90 32 90 44 87 44 88 0 14 0 14 28 10 27 11 71 4 71 4 71 33 71 32 23 27 23 26 -25 -22 -25 -22 -68 -32 -69 -32 -70 -5 -71 -5 7 28 7 27 91 135 91 135 86 113 86 113 130 142 130 142 3 12 4 11 36 32 37 33 -5 0 -5 0 -25 -20z m-48 -49 l-7 -19 -130 -142 -130 -142 -86 -113 -86 -113 -91 -135 -91 -135 -7 -26 -6 -27 -17 -8 -16 -9 -112 13 -111 13 -71 13 -71 12 0 18 0 17 27 32 26 32 221 197 221 197 95 75 95 76 65 44 65 43 89 53 90 53 23 0 22 0 -7 -19z" fill="none" stroke="red" stroke-width="1mm" /><path d="M6485 2519 l-90 -8 -165 -21 -165 -21 -262 -40 -262 -39 -64 0 -64 0 -11 24 -11 24 -58 22 -58 22 -74 -4 -73 -3 -20 -24 -19 -24 3 -16 3 -16 40 -14 40 -15 100 0 100 0 46 8 46 8 36 -77 37 -77 15 -58 15 -58 0 -127 0 -126 -11 -69 -12 -70 12 -14 12 -14 -15 -33 -15 -34 -36 -97 -36 -96 -14 -6 -14 -5 -45 -88 -44 -88 -71 -158 -72 -159 -60 -150 -61 -151 -8 -51 -8 -51 5 -7 4 -8 13 0 13 0 27 21 26 20 64 132 64 132 55 130 54 130 52 153 51 153 0 17 0 18 -10 10 -10 10 36 95 36 94 10 27 10 27 32 34 31 34 69 114 69 114 71 100 70 100 65 80 64 80 -22 -19 -22 -20 -73 -95 -73 -96 -80 -120 -80 -120 -43 -73 -43 -73 -19 -10 -18 -10 -6 15 -6 16 11 63 11 64 0 127 0 128 -15 59 -15 58 -35 73 -35 73 27 3 28 3 270 39 270 40 150 19 150 20 142 12 142 12 143 -5 143 -5 49 -17 48 -18 9 9 8 8 -22 2 -22 2 -65 15 -65 16 -155 -2 -155 -1 -90 -8z m-1151 -70 l55 -20 6 -20 7 -21 -7 -6 -6 -7 -76 -3 -75 -4 -58 12 -57 12 -13 8 -12 8 7 21 7 22 21 9 22 9 62 0 62 1 55 -21z m156 -1049 l0 -19 -51 -153 -52 -153 -65 -154 -66 -155 -55 -110 -56 -110 -27 -15 -27 -15 -4 4 -5 5 8 51 8 51 61 151 60 150 72 159 71 158 44 87 43 86 13 5 13 4 8 -4 7 -4 0 -19z" fill="none" stroke="red" stroke-width="1mm" /><path d="M8065 2293 l-50 -26 -126 -126 -127 -126 -78 -107 -79 -107 -89 -143 -89 -143 -9 -35 -10 -35 -26 -34 -27 -33 -21 -37 -22 -36 -23 -3 -24 -4 -40 -37 -40 -38 -36 -26 -36 -27 -30 -6 -31 -6 -7 21 -6 20 6 35 7 35 68 65 68 66 26 10 27 10 29 0 29 0 5 8 5 9 -50 -8 -49 -8 -28 -20 -27 -19 -50 -51 -49 -51 -22 0 -22 0 -64 -24 -64 -24 -61 -11 -60 -11 -52 11 -52 11 -6 14 -5 13 21 27 21 27 0 42 0 43 -16 13 -16 13 -16 -10 -17 -11 -20 -36 -20 -36 -40 -29 -41 -29 -29 -6 -30 -5 -62 -26 -62 -27 -54 -10 -53 -11 -42 11 -42 12 -59 54 -59 55 -23 0 -24 0 -29 -19 -29 -19 -22 -27 -21 -28 -22 12 -22 12 0 13 0 14 33 48 33 48 40 13 40 13 95 82 94 81 180 181 180 181 64 85 64 85 34 70 33 69 0 22 0 21 -18 16 -19 17 -28 0 -28 0 -45 -22 -46 -23 -84 -79 -83 -80 -78 -96 -77 -96 -66 -94 -65 -95 -87 -141 -86 -142 0 -15 0 -15 -36 -53 -36 -54 -19 -37 -19 -37 0 -24 0 -23 -40 -78 -40 -77 9 5 9 6 31 65 31 65 29 14 28 15 33 38 33 38 26 17 26 18 24 0 23 0 59 -55 59 -54 42 -12 42 -11 53 11 54 10 62 27 62 26 29 5 29 6 -7 -24 -7 -24 -5 -30 -5 -30 13 -18 14 -18 29 11 30 11 40 44 41 43 54 -14 55 -15 64 11 63 11 65 24 65 25 15 0 15 0 -7 -39 -7 -40 12 -21 12 -22 30 6 30 6 47 34 46 34 29 31 30 31 19 0 19 0 -5 -28 -5 -27 -21 -74 -21 -75 0 -49 0 -49 34 -34 34 -34 35 0 35 0 88 45 89 44 83 68 84 68 35 28 36 27 7 0 7 0 5 -52 5 -52 23 -18 22 -18 48 0 47 0 58 20 59 20 55 31 56 31 32 24 32 24 20 0 21 0 0 -17 0 -18 -25 -44 -25 -44 3 -3 4 -4 26 49 27 49 0 15 0 15 36 6 35 7 60 59 60 58 26 7 26 6 15 -15 15 -15 26 -47 26 -47 28 -21 27 -20 39 1 38 2 59 20 58 21 15 15 15 14 -43 -21 -43 -21 -56 -13 -57 -13 -35 17 -35 17 -26 48 -26 48 -20 20 -20 20 -26 -6 -27 -7 -55 -54 -55 -55 -26 -10 -27 -10 -5 5 -5 5 28 53 27 53 17 20 16 20 -21 -17 -20 -18 -30 -60 -29 -60 -28 0 -28 0 -32 -24 -32 -24 -56 -31 -55 -31 -59 -20 -58 -20 -47 0 -46 0 -18 13 -17 13 -6 41 -5 42 5 23 6 23 30 32 30 33 30 -6 31 -6 55 26 55 27 20 26 20 26 0 14 0 13 -24 11 -23 11 -34 -17 -34 -17 -82 -85 -83 -86 0 -8 0 -7 -23 -6 -23 -5 -60 -52 -59 -53 -60 -44 -60 -45 -79 -38 -80 -39 -34 0 -34 0 -29 29 -29 29 0 49 0 49 21 75 21 74 5 30 6 30 18 27 19 26 0 7 0 6 33 39 32 40 27 0 28 0 142 122 143 122 131 130 131 131 56 75 56 75 30 58 30 57 7 36 6 35 -17 19 -18 20 -26 0 -26 -1 -50 -26z m115 2 l12 -15 -6 -35 -7 -35 -30 -57 -30 -58 -56 -75 -56 -75 -126 -126 -126 -125 -143 -122 -142 -122 -25 0 -25 0 6 28 6 27 61 100 61 100 67 100 68 100 64 80 65 80 101 97 101 98 48 24 47 25 26 1 27 0 12 -15z m-1492 -7 l12 -12 0 -21 0 -21 -33 -69 -34 -70 -63 -83 -62 -83 -135 -139 -134 -139 -116 -103 -115 -103 -32 -22 -31 -21 -23 -7 -23 -7 7 29 7 28 85 140 85 140 65 95 66 94 77 97 78 96 79 74 79 74 44 22 44 23 31 0 30 0 12 -12z m1401 -877 l15 -10 -12 -25 -11 -25 -45 -26 -44 -26 -36 -6 -36 -6 0 11 0 11 32 36 31 36 36 19 36 19 10 0 10 1 14 -9z m-1411 -49 l3 -44 -15 -23 -16 -24 -13 5 -12 4 -12 26 -12 26 10 26 10 26 11 14 11 13 16 -3 16 -3 3 -43z m-68 -66 l9 -24 13 -5 13 -4 -20 -38 -19 -37 -31 -23 -30 -23 -22 -6 -21 -7 -7 21 -7 21 13 51 13 50 35 24 36 24 8 0 7 0 10 -24z m-760 -78 l0 -7 -19 -11 -20 -10 -5 0 -6 0 0 23 0 24 6 6 6 6 19 -12 19 -12 0 -7z" fill="none" stroke="red" stroke-width="1mm" /><path d="M3250 2259 l-55 -32 -121 -121 -121 -121 -79 -107 -79 -107 -89 -143 -89 -142 -12 -40 -12 -39 -31 -37 -31 -37 -26 -64 -26 -64 -19 -80 -20 -80 0 -37 0 -37 12 -26 12 -26 27 -15 28 -14 24 0 23 0 80 38 79 39 100 75 100 76 34 36 35 36 17 0 16 0 6 -47 5 -47 22 -18 22 -18 48 0 47 0 58 20 59 20 55 31 56 31 52 39 52 39 17 0 17 0 -7 -49 -6 -49 -102 -101 -101 -101 6 0 7 0 91 92 91 93 8 -21 8 -21 33 -27 33 -28 62 4 63 4 93 47 93 46 65 50 65 49 45 42 45 41 -80 -64 -80 -64 -48 -32 -47 -32 -77 -37 -77 -36 -61 -4 -61 -4 -32 27 -32 27 0 38 0 38 6 16 6 16 24 0 23 0 87 78 87 77 36 34 36 33 -65 -53 -65 -53 -57 -53 -57 -53 -25 0 -26 0 0 19 0 18 20 26 20 25 0 8 0 7 26 36 25 36 -30 -35 -31 -34 0 -11 -1 -10 -18 -22 -19 -23 -17 0 -16 0 -52 -39 -52 -39 -56 -31 -55 -31 -59 -20 -58 -20 -47 0 -46 0 -18 13 -17 13 -6 43 -6 42 22 45 22 44 17 9 17 9 28 -5 27 -5 55 26 55 27 20 26 20 26 0 14 0 13 -24 11 -23 11 -39 -20 -39 -21 -65 -68 -65 -68 -14 -27 -14 -28 -22 0 -21 0 -35 -36 -34 -36 -100 -76 -100 -75 -79 -39 -80 -38 -23 0 -22 0 -24 11 -25 11 -11 25 -11 24 0 37 0 37 20 80 19 80 26 64 26 64 32 38 32 39 27 0 27 0 68 57 68 57 127 113 126 113 83 88 83 87 57 77 57 77 26 56 26 55 7 30 6 31 -18 19 -18 20 -26 0 -26 0 -55 -31z m120 6 l12 -15 -6 -30 -6 -30 -26 -55 -26 -56 -57 -77 -58 -77 -77 -82 -77 -82 -127 -114 -127 -113 -68 -57 -68 -57 -26 0 -25 0 7 28 6 27 61 100 61 100 68 100 68 100 64 80 65 80 94 91 95 92 54 31 54 31 26 0 27 0 12 -15z m-71 -854 l15 -10 -12 -25 -11 -25 -45 -26 -44 -26 -36 -6 -36 -6 0 11 0 11 32 36 31 36 36 19 36 19 10 0 10 1 14 -9z" fill="none" stroke="red" stroke-width="1mm" /></g><g transform="translate(1887.7204724409448,3636.2704724409446) scale(1,-1) translate(0,-1294.0)"><path d="M5265 963 l30 -4 28 -11 27 -11 -2 -331 -3 -331 -50 -17 -50 -17 17 -1 18 0 40 16 40 16 13 -9 12 -10 27 -7 27 -6 4 7 5 8 -30 2 -30 2 -14 12 -14 11 0 329 0 328 -30 16 -29 15 -33 -1 -33 -2 30 -4z" fill="none" stroke="red" stroke-width="1mm" /><path d="M336 921 l-18 -38 -56 -13 -57 -12 -42 -25 -41 -24 -6 -17 -6 -17 12 15 13 15 29 19 29 19 51 13 51 14 8 0 7 0 0 -294 0 -294 -31 -11 -32 -11 -53 0 -53 0 -5 -8 -4 -7 71 5 72 6 19 11 19 11 33 -14 33 -14 63 2 63 1 -75 7 -75 7 -17 8 -18 7 0 294 0 295 21 40 20 41 -4 4 -4 4 -17 -39z" fill="none" stroke="red" stroke-width="1mm" /><path d="M800 929 l-24 -10 -32 -24 -31 -24 -6 -22 -6 -21 6 6 6 6 11 22 11 21 45 24 45 25 72 -4 73 -3 26 -26 25 -26 9 -39 9 -40 -13 -55 -13 -56 -29 -40 -29 -41 -97 -111 -96 -111 -12 -50 -12 -50 -27 -16 -26 -15 20 8 20 8 167 3 166 3 10 12 9 12 11 43 10 44 -6 -7 -7 -6 -10 -42 -11 -42 -158 -3 -158 -3 7 33 8 33 8 22 8 21 93 107 93 107 29 41 29 40 13 56 13 55 -9 40 -9 39 -30 31 -31 31 -72 2 -73 3 -25 -11z" fill="none" stroke="red" stroke-width="1mm" /><path d="M1364 908 l-47 -33 -9 -23 -8 -23 10 6 10 6 0 15 0 14 47 30 47 30 65 0 66 0 33 -20 32 -20 10 -26 10 -25 0 -39 0 -39 -10 -26 -10 -27 -40 -39 -40 -40 0 -9 0 -10 -47 -1 -48 0 -20 -8 -20 -9 65 5 66 5 13 -16 13 -16 12 0 12 0 25 -27 25 -28 12 -28 12 -28 0 -34 0 -34 -11 -28 -11 -28 -11 -22 -10 -23 -44 -21 -45 -22 -66 5 -67 5 -33 19 -33 19 -5 23 -6 23 -5 -5 -5 -4 7 -21 6 -20 37 -22 37 -22 67 -5 66 -5 46 23 46 22 12 21 12 22 13 35 13 35 0 32 0 32 -12 28 -12 28 -30 33 -30 32 -11 0 -11 0 -12 12 -11 11 11 20 11 20 27 24 28 23 16 34 16 34 0 44 0 43 -13 25 -12 24 -34 23 -34 23 -67 0 -68 0 -48 -32z" fill="none" stroke="red" stroke-width="1mm" /><path d="M2139 929 l43 -8 14 -12 14 -11 0 -303 0 -303 -16 -13 -17 -14 -41 -12 -41 -13 40 6 40 6 18 15 17 16 19 -17 20 -18 139 4 139 3 16 14 16 13 6 37 5 36 10 29 10 30 -12 -12 -11 -11 -8 -52 -8 -52 -11 -11 -11 -11 -140 -3 -140 -4 -14 12 -15 12 0 159 0 159 120 0 120 0 2 -27 1 -28 -1 -20 -2 -20 10 16 9 15 -8 35 -8 35 12 47 12 46 -9 -5 -8 -5 -6 -40 -7 -39 -118 0 -119 0 0 144 0 144 14 12 15 11 145 -3 144 -3 8 -8 9 -8 0 -44 0 -43 9 5 8 6 -5 40 -5 39 -12 12 -11 11 -141 3 -141 4 -22 -12 -21 -11 -29 15 -30 16 -30 -1 -30 -1 44 -9z" fill="none" stroke="red" stroke-width="1mm" /><path d="M6464 922 l-31 -20 -21 -27 -21 -27 -7 -34 -6 -34 6 -35 7 -34 23 -29 24 -28 96 -54 97 -55 27 -28 27 -28 0 -73 0 -73 -14 -26 -14 -27 -26 -17 -25 -16 -71 -5 -72 -4 -45 20 -45 20 -6 32 -7 32 7 12 6 11 -12 -11 -12 -11 8 -34 9 -34 44 -23 45 -23 75 3 75 4 27 18 27 17 18 27 18 27 0 77 0 78 -33 32 -32 33 -97 56 -97 56 -19 26 -20 26 -4 48 -4 48 18 35 18 35 35 23 35 24 81 -4 82 -3 22 -20 22 -20 -4 -36 -3 -37 7 4 8 5 0 33 0 33 -26 24 -26 24 -81 3 -82 3 -31 -19z" fill="none" stroke="red" stroke-width="1mm" /><path d="M6957 823 l-7 -6 0 -49 0 -48 -26 -10 -25 -10 -24 0 -24 0 -5 -9 -5 -8 42 8 42 8 6 1 6 0 5 -178 5 -179 14 -28 14 -28 26 -20 26 -19 56 12 55 11 12 14 12 14 -28 -13 -29 -14 -41 -7 -41 -6 -27 23 -27 23 -9 70 -9 70 -1 127 0 127 103 4 102 3 -100 2 -101 2 6 60 6 60 -1 0 -2 0 -6 -7z" fill="none" stroke="red" stroke-width="1mm" /><path d="M8837 823 l-7 -6 0 -49 0 -48 -26 -10 -25 -10 -24 0 -24 0 -5 -9 -5 -8 42 8 42 8 6 1 6 0 5 -178 5 -179 14 -28 14 -28 26 -20 26 -19 56 12 55 11 12 14 12 14 -28 -13 -29 -14 -41 -7 -41 -6 -27 23 -27 23 -9 70 -9 70 -1 127 0 127 103 4 102 3 -100 2 -101 2 6 60 6 60 -1 0 -2 0 -6 -7z" fill="none" stroke="red" stroke-width="1mm" /><path d="M4780 725 l-12 -14 -57 3 -56 4 25 -4 25 -4 23 -5 22 -5 -2 -327 -3 -326 -15 -8 -15 -7 -35 -11 -35 -10 40 6 40 6 12 9 12 9 47 -16 47 -16 8 8 8 8 -29 2 -30 2 -20 11 -20 11 0 111 0 110 23 -6 22 -7 66 -11 65 -11 36 7 35 6 35 34 35 34 12 49 13 48 -1 81 0 80 -16 42 -17 42 -31 26 -31 26 -60 -6 -60 -6 -24 -18 -25 -17 -31 -17 -31 -17 -7 -1 -8 0 0 32 0 32 22 23 21 23 -5 0 -6 0 -12 -15z m252 -45 l26 -20 16 -42 17 -42 0 -80 1 -81 -12 -47 -12 -48 -31 -30 -31 -30 -33 -6 -34 -6 -52 6 -52 7 -37 11 -38 11 0 167 0 168 33 12 32 13 22 20 22 19 33 8 33 8 36 1 36 1 25 -20z" fill="none" stroke="red" stroke-width="1mm" /><path d="M2855 723 l-20 -5 -16 -14 -16 -14 -43 15 -43 15 -21 -1 -21 0 54 -15 53 -14 8 -5 8 -5 7 -29 6 -28 49 -62 50 -61 0 -10 0 -10 -60 -71 -60 -72 -12 -34 -12 -33 -41 -11 -40 -10 -10 -4 -10 -3 15 -1 15 -1 35 10 35 10 28 -11 28 -12 11 11 11 11 -19 -5 -19 -4 -14 9 -14 9 7 25 6 26 48 62 47 62 18 11 19 11 39 -45 39 -45 21 -43 21 -43 -12 -14 -13 -15 -31 -9 -31 -9 18 -1 19 -1 27 16 27 16 54 -16 53 -16 4 4 4 4 -55 16 -54 16 -11 33 -11 32 -47 59 -48 59 -10 13 -9 13 52 52 52 52 25 52 25 53 40 7 40 7 5 8 5 8 -52 -14 -52 -13 -12 10 -13 11 -23 -5 -23 -4 28 -2 28 -1 5 -15 6 -15 -21 -43 -21 -43 -41 -42 -42 -42 -8 0 -9 0 -45 57 -44 57 -7 29 -6 28 12 14 12 15 19 0 18 0 6 10 6 10 -3 -1 -3 -1 -20 -5z" fill="none" stroke="red" stroke-width="1mm" /><path d="M3355 703 l-30 -16 -33 -28 -33 -29 9 0 9 0 19 21 19 21 37 19 37 19 55 0 55 0 27 -23 27 -24 5 -85 4 -86 -83 -4 -84 -3 -49 -24 -48 -24 -14 -33 -14 -33 0 -35 0 -34 32 -27 32 -27 53 4 52 5 38 26 38 26 27 6 26 7 4 -29 3 -28 39 -13 39 -13 11 12 11 12 -11 -6 -11 -6 -36 10 -37 10 -1 2 -1 2 -7 193 -6 194 -33 29 -32 29 -58 0 -57 -1 -30 -16z m205 -296 l0 -74 -37 -17 -38 -17 -35 -19 -35 -20 -41 0 -41 0 -27 21 -26 20 0 33 0 33 11 31 11 31 41 19 42 20 15 5 15 5 73 1 72 1 0 -73z" fill="none" stroke="red" stroke-width="1mm" /><path d="M3795 711 l49 -6 7 -25 7 -25 1 -176 1 -177 -17 -20 -18 -21 -35 -10 -35 -9 20 -1 20 -1 29 15 28 15 46 -15 45 -16 8 8 8 8 -29 2 -30 2 -21 11 -21 12 6 15 6 15 0 156 1 157 69 33 69 34 39 5 39 5 21 -11 20 -11 16 -48 17 -49 -3 -154 -3 -154 -50 -17 -50 -17 17 -1 18 0 40 16 40 16 13 -9 12 -10 27 -7 27 -6 4 7 5 8 -31 2 -31 2 -12 13 -13 13 -2 163 -1 163 64 39 64 38 37 7 37 7 25 -6 26 -7 20 -46 19 -46 -2 -161 -3 -161 -50 -17 -50 -17 17 -1 18 0 40 16 40 16 13 -9 12 -10 27 -7 27 -6 4 7 5 8 -30 2 -30 2 -14 12 -14 11 0 158 0 158 -19 45 -20 46 -22 11 -22 12 -46 -6 -45 -6 -36 -24 -35 -23 -32 -17 -33 -16 -14 34 -14 34 -23 12 -22 12 -44 -6 -44 -6 -42 -24 -42 -24 -22 -7 -22 -6 -7 28 -7 28 -10 13 -9 12 -47 -2 -46 -1 50 -6z" fill="none" stroke="red" stroke-width="1mm" /><path d="M5693 699 l-32 -21 -21 -33 -20 -33 -12 -79 -11 -78 7 -47 7 -47 22 -32 22 -32 28 -21 28 -21 68 1 68 0 34 17 35 16 19 23 20 23 -25 -20 -25 -21 -28 -14 -28 -14 -69 0 -69 -1 -28 21 -28 21 -19 32 -18 32 -6 64 -5 65 142 0 141 0 20 12 19 12 19 -17 19 -17 8 0 8 0 -25 20 -26 20 -7 47 -7 48 -14 26 -14 27 -26 21 -27 21 -56 0 -56 0 -32 -21z m165 -5 l22 -15 14 -27 14 -27 7 -43 7 -43 -12 -14 -12 -15 -143 0 -142 0 9 53 10 52 17 28 18 29 29 19 29 19 55 0 56 0 22 -16z" fill="none" stroke="red" stroke-width="1mm" /><path d="M7265 711 l49 -6 7 -25 7 -25 1 -176 1 -177 -17 -20 -18 -21 -35 -10 -35 -9 18 -1 19 -1 35 17 35 16 17 -10 17 -10 31 -7 31 -7 5 8 5 8 -30 1 -29 1 -25 13 -25 14 6 14 5 14 0 153 0 153 33 13 32 13 31 23 31 23 45 6 45 6 7 -17 6 -17 -6 -11 -7 -12 12 11 13 12 -12 22 -12 22 -46 -6 -45 -6 -31 -23 -31 -23 -28 -12 -28 -12 -4 0 -3 0 -7 33 -7 32 -10 13 -10 12 -47 -2 -46 -1 50 -6z" fill="none" stroke="red" stroke-width="1mm" /><path d="M7823 699 l-32 -21 -21 -33 -20 -33 -12 -79 -11 -78 7 -47 7 -47 22 -32 22 -32 28 -21 28 -21 68 1 68 0 34 17 35 16 19 23 20 23 -25 -20 -25 -21 -28 -14 -28 -14 -69 0 -69 -1 -28 21 -28 21 -19 32 -18 32 -6 64 -5 65 142 0 141 0 20 12 19 12 19 -17 19 -17 8 0 8 0 -25 20 -26 20 -7 47 -7 48 -14 26 -14 27 -26 21 -27 21 -56 0 -56 0 -32 -21z m165 -5 l22 -15 14 -27 14 -27 7 -43 7 -43 -12 -14 -12 -15 -143 0 -142 0 9 53 10 52 17 28 18 29 29 19 29 19 55 0 56 0 22 -16z" fill="none" stroke="red" stroke-width="1mm" /><path d="M8353 699 l-32 -21 -21 -33 -20 -33 -12 -79 -11 -78 7 -47 7 -47 22 -32 22 -32 28 -21 28 -21 68 1 68 0 34 17 35 16 19 23 20 23 -25 -20 -25 -21 -28 -14 -28 -14 -69 0 -69 -1 -28 21 -28 21 -19 32 -18 32 -6 64 -5 65 142 0 141 0 20 12 19 12 19 -17 19 -17 8 0 8 0 -25 20 -26 20 -7 47 -7 48 -14 26 -14 27 -26 21 -27 21 -56 0 -56 0 -32 -21z m165 -5 l22 -15 14 -27 14 -27 7 -43 7 -43 -12 -14 -12 -15 -143 0 -142 0 9 53 10 52 17 28 18 29 29 19 29 19 55 0 56 0 22 -16z" fill="none" stroke="red" stroke-width="1mm" /></g><g transform="translate(5030.720472440945,4865.570472440944) scale(1,-1) translate(0,-1270.0)"><path d="M2579 929 l43 -8 14 -12 14 -11 0 -303 0 -303 -16 -13 -17 -14 -41 -12 -41 -13 40 6 40 6 18 15 17 16 20 -18 19 -17 108 3 108 4 38 24 38 23 19 39 20 38 0 46 0 46 -14 33 -14 33 -36 28 -36 27 0 17 0 17 31 30 31 29 14 32 14 32 0 41 0 41 -16 30 -15 31 -42 19 -42 19 -105 0 -106 0 -11 -11 -12 -12 -34 17 -35 16 -29 -1 -28 -1 44 -9z m351 -25 l41 -16 14 -29 15 -28 0 -43 -1 -43 -12 -27 -12 -26 -36 -39 -36 -40 -122 -2 -121 -2 0 143 0 144 12 12 12 12 103 0 103 0 40 -16z m17 -341 l41 -34 11 -31 11 -31 0 -44 0 -44 -19 -37 -19 -37 -34 -20 -33 -20 -108 -3 -107 -4 -15 12 -15 12 0 159 0 158 103 3 102 3 20 -4 20 -4 42 -34z" fill="none" stroke="red" stroke-width="1mm" /><path d="M2258 890 l-10 -31 -37 -17 -36 -17 -93 -140 -93 -140 -5 -26 -6 -27 -22 -10 -21 -10 25 1 25 1 133 -2 132 -2 0 -94 0 -95 -12 -8 -13 -8 -40 -12 -40 -13 40 6 40 6 12 10 12 9 47 -16 47 -16 8 8 8 8 -29 2 -30 2 -20 11 -20 11 0 94 0 95 63 0 64 0 15 18 15 17 7 20 7 19 -7 -7 -7 -7 -11 -22 -12 -23 -67 -3 -67 -3 0 195 0 195 10 25 10 26 -6 0 -5 0 -11 -30z m-8 -225 l0 -185 -130 0 -130 0 0 23 0 24 93 144 93 144 35 17 34 17 3 1 2 0 0 -185z" fill="none" stroke="red" stroke-width="1mm" /><path d="M329 872 l-36 -37 -51 -142 -52 -142 0 -12 0 -12 -26 -55 -26 -55 -11 -66 -10 -66 -11 -8 -11 -7 -43 -11 -43 -12 5 -5 5 -5 51 17 52 17 11 -9 12 -10 32 -6 31 -7 5 8 5 8 -28 1 -28 1 -17 7 -18 6 7 61 7 60 20 52 20 52 131 -3 130 -4 11 11 11 11 7 0 7 0 20 -67 20 -68 5 -42 5 -42 -15 -13 -16 -13 -41 -12 -41 -13 40 6 40 6 18 16 17 15 33 -15 32 -15 35 -7 35 -6 -55 19 -54 20 -13 17 -13 18 0 29 0 30 -29 96 -29 96 -42 145 -43 145 -14 17 -15 17 7 10 6 11 -3 -1 -3 -1 -36 -36z m83 -132 l38 -125 10 -44 11 -43 -12 -14 -11 -14 -124 0 -124 0 0 25 0 26 51 142 51 142 22 17 21 18 14 -3 14 -2 39 -125z" fill="none" stroke="red" stroke-width="1mm" /><path d="M1417 823 l-7 -6 0 -49 0 -48 -26 -10 -25 -10 -24 0 -24 0 -5 -9 -5 -8 42 8 42 8 6 1 6 0 5 -178 5 -179 14 -28 14 -28 26 -20 26 -19 56 12 55 11 12 14 12 14 -28 -13 -29 -14 -41 -7 -41 -6 -27 23 -27 23 -9 70 -9 70 -1 127 0 127 103 4 102 3 -100 2 -101 2 6 60 6 60 -1 0 -2 0 -6 -7z" fill="none" stroke="red" stroke-width="1mm" /><path d="M840 725 l-12 -14 -57 3 -56 4 25 -4 25 -4 23 -5 22 -5 -2 -327 -3 -326 -15 -8 -15 -7 -35 -11 -35 -10 40 6 40 6 12 9 12 9 47 -16 47 -16 8 8 8 8 -29 2 -30 2 -20 11 -20 11 0 111 0 110 23 -6 22 -7 66 -11 65 -11 36 7 35 6 35 34 35 34 12 49 13 48 -1 81 0 80 -16 42 -17 42 -31 26 -31 26 -60 -6 -60 -6 -24 -18 -25 -17 -31 -17 -31 -17 -7 -1 -8 0 0 32 0 32 22 23 21 23 -5 0 -6 0 -12 -15z m252 -45 l26 -20 16 -42 17 -42 0 -80 1 -81 -12 -47 -12 -48 -31 -30 -31 -30 -33 -6 -34 -6 -52 6 -52 7 -37 11 -38 11 0 167 0 168 33 12 32 13 22 20 22 19 33 8 33 8 36 1 36 1 25 -20z" fill="none" stroke="red" stroke-width="1mm" /></g><g transform="translate(236.22047244094483,6072.070472440944) scale(1,-1) translate(0,-1233.0)"><path d="M11799 868 l-14 -33 -150 -5 -150 -5 -3 -141 -3 -141 13 -10 13 -10 82 10 82 10 37 -20 38 -19 20 -28 21 -27 3 -74 4 -74 -22 -45 -21 -45 -45 -22 -46 -22 -66 5 -67 5 -33 19 -33 19 4 27 3 27 -8 -5 -8 -5 0 -24 0 -23 38 -22 37 -23 70 -4 70 -5 44 24 45 24 23 44 23 43 0 64 0 64 -14 33 -14 33 -38 29 -37 29 -51 0 -51 0 -50 -5 -50 -5 -3 143 -3 142 144 0 144 0 15 18 16 17 6 23 7 22 -4 0 -3 0 -15 -32z" fill="none" stroke="red" stroke-width="1mm" /><path d="M2185 883 l30 -4 28 -11 27 -10 0 -329 0 -328 -12 -8 -13 -8 -40 -12 -40 -13 40 6 40 6 13 10 13 11 22 -11 22 -11 22 -6 21 -6 5 8 5 8 -30 2 -30 2 -14 12 -14 11 0 178 0 177 34 6 35 6 28 20 28 21 55 6 55 6 25 -27 25 -27 3 -182 3 -183 -13 -10 -13 -11 -35 -10 -35 -10 20 -1 20 -1 29 15 28 15 46 -15 45 -16 8 8 8 8 -29 2 -30 2 -19 11 -20 10 -3 184 -3 185 -30 31 -30 32 -55 -6 -55 -6 -28 -21 -28 -20 -35 -6 -34 -6 0 146 0 146 -30 16 -29 15 -33 -1 -33 -2 30 -4z" fill="none" stroke="red" stroke-width="1mm" /><path d="M4585 883 l30 -4 28 -11 27 -10 0 -329 0 -328 -12 -8 -13 -8 -40 -12 -40 -13 40 6 40 6 13 10 13 11 22 -11 22 -11 22 -6 21 -6 5 8 5 8 -30 2 -30 2 -14 12 -14 11 0 178 0 177 34 6 35 6 28 20 28 21 55 6 55 6 25 -27 25 -27 3 -182 3 -183 -13 -10 -13 -11 -35 -10 -35 -10 20 -1 20 -1 29 15 28 15 46 -15 45 -16 8 8 8 8 -29 2 -30 2 -19 11 -20 10 -3 184 -3 185 -30 31 -30 32 -55 -6 -55 -6 -28 -21 -28 -20 -35 -6 -34 -6 0 146 0 146 -30 16 -29 15 -33 -1 -33 -2 30 -4z" fill="none" stroke="red" stroke-width="1mm" /><path d="M6498 879 l42 -8 10 -6 10 -6 0 -121 0 -120 -27 7 -28 7 -81 5 -81 5 -38 -34 -38 -33 -18 -40 -18 -41 -7 -65 -6 -66 11 -53 12 -54 24 -32 24 -31 30 -12 30 -13 50 11 49 10 48 31 48 30 13 0 13 0 0 -29 0 -30 22 -15 22 -16 28 0 27 0 5 8 5 8 -32 -4 -32 -3 -20 15 -20 14 -5 333 -5 333 -25 13 -25 13 -30 -1 -30 -1 43 -9z m17 -261 l45 -12 0 -171 -1 -170 -57 -33 -57 -33 -52 -11 -52 -11 -32 19 -32 19 -21 40 -21 40 0 90 0 90 18 47 18 47 35 31 35 30 64 0 65 0 45 -12z" fill="none" stroke="red" stroke-width="1mm" /><path d="M621 855 l-44 -14 -18 10 -18 9 -33 -1 -33 -2 42 -6 43 -7 3 -5 4 -4 6 -251 7 -252 -15 -12 -16 -13 -23 11 -23 10 -131 220 -131 220 -26 6 -26 7 -9 24 -9 24 -30 16 -30 15 -28 -1 -28 -1 35 -7 35 -7 23 -13 22 -12 0 -17 0 -18 -10 -10 -10 -10 -2 -289 -3 -289 -45 -12 -45 -12 15 -1 15 -1 38 11 38 10 35 -11 36 -12 11 12 12 13 -13 -7 -12 -7 -35 11 -35 12 0 288 0 289 9 5 8 5 30 -11 31 -12 128 -214 128 -215 28 -16 29 -16 6 -25 7 -25 0 -32 1 -32 9 9 8 8 -11 52 -11 53 12 15 13 15 0 251 0 250 37 11 36 10 8 8 7 7 -4 -1 -4 0 -44 -14z" fill="none" stroke="red" stroke-width="1mm" /><path d="M8480 859 l-35 -10 -35 -35 -35 -35 -28 -22 -27 -22 -73 -185 -72 -185 -28 -9 -27 -10 -11 11 -11 11 -72 201 -72 202 -30 20 -29 19 -34 25 -34 25 -31 -1 -31 -1 37 -7 36 -8 27 -17 27 -18 -16 -17 -16 -17 -2 -294 -3 -294 -45 -12 -45 -12 15 -1 15 -1 38 11 38 10 35 -11 36 -12 11 12 12 13 -13 -7 -12 -7 -35 11 -35 12 0 293 0 294 11 6 10 7 27 -11 27 -11 69 -196 69 -196 20 -24 19 -25 -4 -34 -4 -34 8 5 8 5 0 32 0 32 28 16 28 16 73 187 74 188 31 19 31 19 8 0 7 0 0 -289 0 -289 -32 -15 -33 -15 -20 -5 -20 -5 20 -1 20 -1 37 20 37 20 6 -10 6 -9 37 -10 36 -11 8 8 7 7 -29 2 -30 2 -19 11 -20 10 -3 303 -3 302 14 17 14 18 33 6 34 6 6 9 5 9 -3 -1 -3 -1 -35 -9z" fill="none" stroke="red" stroke-width="1mm" /><path d="M3069 849 l43 -8 14 -12 14 -11 0 -303 0 -303 -16 -13 -17 -14 -41 -12 -41 -13 40 6 40 6 18 15 17 16 20 -18 19 -17 108 3 108 4 38 24 38 23 19 39 20 38 0 46 0 46 -14 33 -14 33 -36 28 -36 27 0 17 0 17 31 30 31 29 14 32 14 32 0 41 0 41 -16 30 -15 31 -42 19 -42 19 -105 0 -106 0 -11 -11 -12 -12 -34 17 -35 16 -29 -1 -28 -1 44 -9z m351 -25 l41 -16 14 -29 15 -28 0 -43 -1 -43 -12 -27 -12 -26 -36 -39 -36 -40 -122 -2 -121 -2 0 143 0 144 12 12 12 12 103 0 103 0 40 -16z m17 -341 l41 -34 11 -31 11 -31 0 -44 0 -44 -19 -37 -19 -37 -34 -20 -33 -20 -108 -3 -107 -4 -15 12 -15 12 0 159 0 158 103 3 102 3 20 -4 20 -4 42 -34z" fill="none" stroke="red" stroke-width="1mm" /><path d="M8689 849 l43 -8 14 -12 14 -11 0 -303 0 -303 -16 -13 -17 -14 -41 -12 -41 -13 40 6 40 6 18 15 17 16 18 -16 19 -17 74 0 75 0 50 15 49 14 39 33 39 32 30 65 30 66 1 120 0 120 -22 50 -23 50 -32 33 -32 34 -40 20 -40 21 -93 5 -93 5 -22 -12 -23 -12 -29 15 -30 16 -30 -1 -30 -1 44 -9z m346 -36 l40 -21 27 -29 27 -28 23 -50 22 -50 0 -120 -1 -120 -30 -66 -30 -66 -36 -27 -36 -28 -47 -14 -47 -14 -77 0 -76 0 -12 12 -12 12 0 306 0 306 13 13 12 13 100 -4 100 -5 40 -20z" fill="none" stroke="red" stroke-width="1mm" /><path d="M9740 849 l-24 -10 -32 -24 -31 -24 -6 -22 -6 -21 6 6 6 6 11 22 11 21 45 24 45 25 72 -4 73 -3 26 -26 25 -26 9 -39 9 -40 -13 -55 -13 -56 -29 -40 -29 -41 -97 -111 -96 -111 -12 -50 -12 -50 -27 -16 -26 -15 20 8 20 8 167 3 166 3 10 12 9 12 11 43 10 44 -6 -7 -7 -6 -10 -42 -11 -42 -158 -3 -158 -3 7 33 8 33 8 22 8 21 93 107 93 107 29 41 29 40 13 56 13 55 -9 40 -9 39 -30 31 -31 31 -72 2 -73 3 -25 -11z" fill="none" stroke="red" stroke-width="1mm" /><path d="M10360 838 l-34 -23 -23 -45 -24 -46 -10 -54 -10 -55 -5 -80 -6 -80 16 -84 16 -84 23 -41 22 -40 35 -24 35 -24 54 5 53 6 20 18 21 18 22 35 22 35 14 55 13 55 0 140 -1 140 -16 48 -17 49 -15 28 -15 28 -33 21 -34 21 -45 0 -45 0 -33 -22z m155 -8 l32 -20 12 -27 13 -28 16 -45 15 -45 1 -140 0 -140 -13 -55 -14 -55 -22 -35 -22 -35 -16 -13 -16 -13 -53 -5 -53 -5 -32 20 -32 20 -21 41 -20 40 -16 83 -16 82 6 80 5 80 10 53 10 54 22 45 22 45 31 19 31 19 44 0 44 0 32 -20z" fill="none" stroke="red" stroke-width="1mm" /><path d="M10943 843 l-31 -18 -20 -25 -20 -26 -11 -42 -12 -42 11 -41 11 -40 35 -39 35 -39 -9 -18 -10 -18 -22 -20 -22 -20 -15 -30 -16 -30 0 -51 0 -52 24 -43 24 -44 45 -23 44 -22 47 0 46 0 34 11 34 12 22 20 22 20 20 43 21 44 0 44 0 45 -10 6 -10 6 0 18 0 17 -35 34 -35 34 0 11 0 12 36 47 37 46 5 49 4 49 -12 36 -12 36 -36 28 -35 27 -76 3 -76 2 -32 -17z m197 -11 l35 -19 18 -34 18 -34 -4 -56 -3 -57 -40 -51 -39 -52 -88 2 -88 3 -34 37 -34 38 -11 40 -11 40 11 43 11 43 18 21 17 21 29 16 30 16 65 1 65 0 35 -18z m23 -350 l37 -36 0 -17 0 -18 10 -6 10 -6 0 -45 0 -44 -21 -44 -20 -44 -17 -15 -17 -14 -34 -12 -34 -11 -46 0 -46 0 -42 19 -42 19 -22 44 -22 43 0 50 0 51 14 26 14 26 36 39 35 38 85 -3 84 -4 38 -36z" fill="none" stroke="red" stroke-width="1mm" /><path d="M12140 849 l-24 -10 -32 -24 -31 -24 -6 -22 -6 -21 6 6 6 6 11 22 11 21 45 24 45 25 72 -4 73 -3 26 -26 25 -26 9 -39 9 -40 -13 -55 -13 -56 -29 -40 -29 -41 -97 -111 -96 -111 -12 -50 -12 -50 -27 -16 -26 -15 20 8 20 8 167 3 166 3 10 12 9 12 11 43 10 44 -6 -7 -7 -6 -10 -42 -11 -42 -158 -3 -158 -3 7 33 8 33 8 22 8 21 93 107 93 107 29 41 29 40 13 56 13 55 -9 40 -9 39 -30 31 -31 31 -72 2 -73 3 -25 -11z" fill="none" stroke="red" stroke-width="1mm" /><path d="M1907 743 l-7 -6 0 -49 0 -48 -26 -10 -25 -10 -24 0 -24 0 -5 -9 -5 -8 42 8 42 8 6 1 6 0 5 -178 5 -179 14 -28 14 -28 26 -20 26 -19 56 12 55 11 12 14 12 14 -28 -13 -29 -14 -41 -7 -41 -6 -27 23 -27 23 -9 70 -9 70 -1 127 0 127 103 4 102 3 -100 2 -101 2 6 60 6 60 -1 0 -2 0 -6 -7z" fill="none" stroke="red" stroke-width="1mm" /><path d="M4307 743 l-7 -6 0 -49 0 -48 -26 -10 -25 -10 -24 0 -24 0 -5 -9 -5 -8 42 8 42 8 6 1 6 0 5 -178 5 -179 14 -28 14 -28 26 -20 26 -19 56 12 55 11 12 14 12 14 -28 -13 -29 -14 -41 -7 -41 -6 -27 23 -27 23 -9 70 -9 70 -1 127 0 127 103 4 102 3 -100 2 -101 2 6 60 6 60 -1 0 -2 0 -6 -7z" fill="none" stroke="red" stroke-width="1mm" /><path d="M925 608 l-36 -31 -21 -41 -21 -41 -1 -95 -1 -95 23 -47 24 -48 31 -22 31 -22 55 -4 56 -3 35 18 34 18 28 40 28 40 9 68 10 69 -9 54 -9 54 -17 35 -17 36 -36 25 -36 24 -62 0 -62 0 -36 -32z m190 2 l33 -20 16 -35 17 -35 9 -54 9 -54 -10 -69 -10 -68 -25 -38 -25 -39 -34 -14 -34 -14 -43 0 -43 0 -35 19 -35 18 -25 49 -25 49 1 95 1 95 21 41 21 41 31 27 32 26 60 0 61 0 32 -20z" fill="none" stroke="red" stroke-width="1mm" /><path d="M1395 631 l49 -6 7 -25 7 -25 1 -176 1 -177 -17 -20 -18 -21 -35 -10 -35 -9 18 -1 19 -1 35 17 35 16 17 -10 17 -10 31 -7 31 -7 5 8 5 8 -30 1 -29 1 -25 13 -25 14 6 14 5 14 0 153 0 153 33 13 32 13 31 23 31 23 45 6 45 6 7 -17 6 -17 -6 -11 -7 -12 12 11 13 12 -12 22 -12 22 -46 -6 -45 -6 -31 -23 -31 -23 -28 -12 -28 -12 -4 0 -3 0 -7 33 -7 32 -10 13 -10 12 -47 -2 -46 -1 50 -6z" fill="none" stroke="red" stroke-width="1mm" /><path d="M3823 619 l-32 -21 -21 -33 -20 -33 -12 -79 -11 -78 7 -47 7 -47 22 -32 22 -32 28 -21 28 -21 68 1 68 0 34 17 35 16 19 23 20 23 -25 -20 -25 -21 -28 -14 -28 -14 -69 0 -69 -1 -28 21 -28 21 -19 32 -18 32 -6 64 -5 65 142 0 141 0 20 12 19 12 19 -17 19 -17 8 0 8 0 -25 20 -26 20 -7 47 -7 48 -14 26 -14 27 -26 21 -27 21 -56 0 -56 0 -32 -21z m165 -5 l22 -15 14 -27 14 -27 7 -43 7 -43 -12 -14 -12 -15 -143 0 -142 0 9 53 10 52 17 28 18 29 29 19 29 19 55 0 56 0 22 -16z" fill="none" stroke="red" stroke-width="1mm" /><path d="M5323 619 l-32 -21 -21 -33 -20 -33 -12 -79 -11 -78 7 -47 7 -47 22 -32 22 -32 28 -21 28 -21 68 1 68 0 34 17 35 16 19 23 20 23 -25 -20 -25 -21 -28 -14 -28 -14 -69 0 -69 -1 -28 21 -28 21 -19 32 -18 32 -6 64 -5 65 142 0 141 0 20 12 19 12 19 -17 19 -17 8 0 8 0 -25 20 -26 20 -7 47 -7 48 -14 26 -14 27 -26 21 -27 21 -56 0 -56 0 -32 -21z m165 -5 l22 -15 14 -27 14 -27 7 -43 7 -43 -12 -14 -12 -15 -143 0 -142 0 9 53 10 52 17 28 18 29 29 19 29 19 55 0 56 0 22 -16z" fill="none" stroke="red" stroke-width="1mm" /><path d="M5805 608 l-34 -33 -6 -35 -6 -36 21 -27 22 -28 87 -43 86 -44 19 -21 19 -21 0 -41 0 -41 -20 -26 -20 -27 -24 -6 -24 -7 -60 -1 -60 -1 -34 21 -33 20 5 21 6 21 -11 -11 -11 -11 6 -15 6 -16 33 -21 33 -20 78 4 77 4 25 23 25 24 9 33 9 33 -5 22 -6 23 -21 24 -21 23 -87 44 -88 44 -15 24 -16 24 7 36 6 36 30 25 30 25 69 0 70 0 20 -11 20 -10 9 -22 9 -22 0 17 1 17 -26 20 -27 21 -73 0 -74 0 -35 -32z" fill="none" stroke="red" stroke-width="1mm" /><path d="M6895 623 l-30 -16 -33 -28 -33 -29 9 0 9 0 19 21 19 21 37 19 37 19 55 0 55 0 27 -23 27 -24 5 -85 4 -86 -83 -4 -84 -3 -49 -24 -48 -24 -14 -33 -14 -33 0 -35 0 -34 32 -27 32 -27 53 4 52 5 38 26 38 26 27 6 26 7 4 -29 3 -28 39 -13 39 -13 11 12 11 12 -11 -6 -11 -6 -36 10 -37 10 -1 2 -1 2 -7 193 -6 194 -33 29 -32 29 -58 0 -57 -1 -30 -16z m205 -296 l0 -74 -37 -17 -38 -17 -35 -19 -35 -20 -41 0 -41 0 -27 21 -26 20 0 33 0 33 11 31 11 31 41 19 42 20 15 5 15 5 73 1 72 1 0 -73z" fill="none" stroke="red" stroke-width="1mm" /><path d="M7367 223 l-4 -8 -8 -50 -7 -50 -10 -20 -10 -20 -22 -25 -21 -25 23 20 24 20 11 20 11 20 12 63 12 62 -4 0 -3 0 -4 -7z" fill="none" stroke="red" stroke-width="1mm" /></g></svg>